<svg width="176" height="189" viewBox="0 0 176 189" fill="none" xmlns="http://www.w3.org/2000/svg">
<path d="M88.034 148C60.4643 148 38 125.536 38 97.966C38 70.3962 60.4643 48 88.034 48C115.604 48 138 70.4643 138 98.034C138 125.604 115.604 148 88.034 148ZM88.034 51.4037C62.3022 51.4037 41.4037 72.3022 41.4037 97.966C41.4037 123.63 62.3022 144.528 88.034 144.528C113.766 144.528 134.596 123.63 134.596 97.966C134.596 72.3022 113.698 51.4037 88.034 51.4037ZM88.034 107.36C85.5153 107.36 83.1327 106.407 81.3628 104.637C79.4568 102.731 78.4357 100.076 78.6399 97.3533C78.6399 97.2852 78.6399 97.1491 78.6399 97.081C78.8441 94.9027 79.7971 92.9285 81.2948 91.3628C82.7924 89.7971 84.9707 88.8441 87.2172 88.708C89.9401 88.5037 92.595 89.4568 94.501 91.3628C96.4071 93.2689 97.4282 95.9238 97.224 98.6467C97.0878 100.893 96.1348 103.003 94.501 104.569C92.8673 106.203 90.757 107.156 88.5106 107.292C88.3063 107.292 88.1021 107.292 87.8979 107.292L88.034 107.36ZM82.0436 97.8298C82.0436 99.4636 82.5882 101.097 83.7454 102.255C84.9707 103.48 86.6726 104.093 88.3744 104.025C89.8039 103.956 91.0973 103.344 92.1184 102.255C93.1396 101.233 93.7522 99.9401 93.8203 98.5105C93.9564 96.7406 93.3438 95.0388 92.1184 93.8816C90.8931 92.6562 89.1913 92.0436 87.4894 92.1797C86.0599 92.2478 84.6984 92.8604 83.6773 93.8816C82.6562 94.9027 82.0436 96.1961 81.9755 97.6256C81.9755 97.6937 81.9755 97.7617 81.9755 97.8298H82.0436Z" fill="#00CCCC"/>
<path d="M97.3842 51.982C96.5856 51.982 95.8535 51.3971 95.7204 50.6173C95.1214 46.9784 91.8602 44.1841 88 44.1841C84.1398 44.1841 80.8786 46.9134 80.2796 50.6173C80.1465 51.5271 79.2813 52.1119 78.4161 51.982C77.4843 51.852 76.8854 51.0072 77.0185 50.1625C77.8837 44.8339 82.476 41 88 41C93.524 41 98.1163 44.9639 98.9815 50.1625C99.1146 51.0722 98.5157 51.852 97.5839 51.982C97.5173 51.982 97.3842 51.982 97.3177 51.982H97.3842Z" fill="#00CCCC"/>
<path d="M63.224 100H53.776C52.7814 100 52 99.12 52 98C52 96.88 52.7814 96 53.776 96H63.224C64.2186 96 65 96.88 65 98C65 99.12 64.2186 100 63.224 100Z" fill="#00CCCC"/>
<path d="M122.224 100H112.776C111.781 100 111 99.12 111 98C111 96.88 111.781 96 112.776 96H122.224C123.219 96 124 96.88 124 98C124 99.12 123.219 100 122.224 100Z" fill="#00CCCC"/>
<path d="M95.7088 15.2V32H92.5168L84.1408 21.8V32H80.3008V15.2H83.5168L91.8688 25.4V15.2H95.7088Z" fill="#00CCCC"/>
<path d="M86.6703 176.288C85.3423 176.288 84.0543 176.112 82.8063 175.76C81.5743 175.392 80.5823 174.92 79.8303 174.344L81.1503 171.416C81.8703 171.944 82.7263 172.368 83.7183 172.688C84.7103 173.008 85.7023 173.168 86.6943 173.168C87.7983 173.168 88.6143 173.008 89.1423 172.688C89.6703 172.352 89.9343 171.912 89.9343 171.368C89.9343 170.968 89.7743 170.64 89.4543 170.384C89.1503 170.112 88.7503 169.896 88.2543 169.736C87.7743 169.576 87.1183 169.4 86.2863 169.208C85.0063 168.904 83.9583 168.6 83.1423 168.296C82.3263 167.992 81.6223 167.504 81.0303 166.832C80.4543 166.16 80.1663 165.264 80.1663 164.144C80.1663 163.168 80.4303 162.288 80.9583 161.504C81.4863 160.704 82.2783 160.072 83.3343 159.608C84.4063 159.144 85.7103 158.912 87.2463 158.912C88.3183 158.912 89.3663 159.04 90.3903 159.296C91.4143 159.552 92.3103 159.92 93.0783 160.4L91.8783 163.352C90.3263 162.472 88.7743 162.032 87.2223 162.032C86.1343 162.032 85.3263 162.208 84.7983 162.56C84.2863 162.912 84.0303 163.376 84.0303 163.952C84.0303 164.528 84.3263 164.96 84.9183 165.248C85.5263 165.52 86.4463 165.792 87.6783 166.064C88.9583 166.368 90.0063 166.672 90.8223 166.976C91.6383 167.28 92.3343 167.76 92.9103 168.416C93.5023 169.072 93.7983 169.96 93.7983 171.08C93.7983 172.04 93.5263 172.92 92.9823 173.72C92.4543 174.504 91.6543 175.128 90.5823 175.592C89.5103 176.056 88.2063 176.288 86.6703 176.288Z" fill="#00CCCC"/>
<path d="M6.61279 84.6391L23.4128 90.1351V94.3111L12.0368 98.0071L23.4128 101.823V105.975L6.61279 111.495V107.463L18.4208 103.671L6.61279 99.7111V96.1111L18.5168 92.2711L6.61279 88.3591V84.6391Z" fill="#00CCCC"/>
<path d="M156.005 105.015H152.885V92.0072H169.685V104.703H166.565V95.8712H162.917V103.671H159.893V95.8712H156.005V105.015Z" fill="#00CCCC"/>
<g clip-path="url(#clip0_340_44)">
<path d="M128.5 98.5C128.5 121.133 110.356 139.5 88 139.5C65.6435 139.5 47.5 121.133 47.5 98.5C47.5 75.8674 65.6435 57.5 88 57.5C110.356 57.5 128.5 75.8674 128.5 98.5ZM50.8977 98.5C50.8977 119.206 67.5461 136.06 88 136.06C108.454 136.06 125.102 119.206 125.102 98.5C125.102 77.7936 108.454 60.9396 88 60.9396C67.5461 60.9396 50.8977 77.7936 50.8977 98.5ZM96.3582 98.5C96.3582 100.77 95.4748 102.972 93.9119 104.554C92.2131 106.274 89.8347 107.168 87.3884 107.03C87.3205 107.03 87.2525 107.03 87.1846 107.03C85.2819 106.824 83.4471 105.998 82.0881 104.623C80.6611 103.178 79.7777 101.252 79.7097 99.2567C79.5059 96.849 80.3893 94.3725 82.0881 92.6527C83.7869 90.9329 86.1653 90.0386 88.6116 90.1762L88.4757 91.896L88.6116 90.1762C90.5822 90.3138 92.4849 91.2081 93.9119 92.6527C95.3389 94.0973 96.2223 96.0235 96.3582 98.0872C96.3582 98.2936 96.3582 98.4312 96.3582 98.6376V98.5ZM87.7961 103.591C89.1552 103.591 90.5143 103.109 91.4656 102.146C92.4849 101.114 93.0285 99.6695 92.8926 98.2248C92.8247 97.0554 92.281 95.8859 91.4656 94.9916C90.5822 94.0973 89.495 93.6158 88.3398 93.547C86.7768 93.4782 85.4178 93.9597 84.3985 94.9916C83.3792 96.0235 82.8356 97.4681 82.9715 98.9128C83.0394 100.151 83.5831 101.252 84.3985 102.146C85.2819 103.04 86.3691 103.522 87.5243 103.591C87.5923 103.591 87.6602 103.591 87.7282 103.591H87.7961Z" fill="#00CCCC"/>
<path d="M89 91.3932C89 92.3201 88.2366 93.0484 87.265 93.0484C86.8486 93.0484 86.4322 92.916 86.1546 92.6511C80.2555 87.8181 74.9811 84.5078 71.2334 83.0513C72.7602 86.6264 76.2997 91.658 81.2965 97.2856C81.5741 97.6166 81.7129 97.9476 81.7129 98.3448C81.7129 99.2717 80.9495 100 79.9779 100C79.3533 100 78.8675 99.7352 78.5205 99.2717C73.6625 93.7766 67.694 86.1629 67 80.8665C67 80.3368 67.1388 79.8734 67.4858 79.4761C67.8328 79.1451 68.388 78.9465 68.9432 79.0127C74.8423 79.741 83.5867 86.2291 88.306 90.0691C88.7224 90.4001 89 90.8636 89 91.3932Z" fill="#00CCCC"/>
<path d="M108 116.371C108 116.371 108 116.501 108 116.566C107.862 117.475 107.033 118.06 106.066 117.995C100.539 117.345 92.6645 111.887 87 107.404L88.1053 106.17L89.3487 105C96.602 110.783 102.888 114.356 106.48 114.811C107.378 114.941 108 115.591 108 116.436V116.371Z" fill="#00CCCC"/>
<path d="M108 116.307C108 117.112 107.394 117.849 106.52 117.983C105.578 118.117 104.77 117.447 104.636 116.508C104.165 113.023 100.464 106.924 94.4087 99.7529C93.8032 99.0157 93.8705 98.0104 94.6106 97.4072C95.3507 96.804 96.36 96.871 96.9655 97.6082C101.608 103.104 107.26 110.744 107.933 116.039C107.933 116.106 107.933 116.173 107.933 116.24L108 116.307Z" fill="#00CCCC"/>
</g>
<defs>
<clipPath id="clip0_340_44">
<rect width="82" height="83" fill="white" transform="translate(47 57)"/>
</clipPath>
</defs>
</svg>
