<svg width="176" height="189" viewBox="0 0 176 189" fill="none" xmlns="http://www.w3.org/2000/svg">
<path d="M89 91.3932C89 92.3201 88.2366 93.0484 87.265 93.0484C86.8486 93.0484 86.4322 92.916 86.1546 92.6511C80.2555 87.8181 74.9811 84.5078 71.2334 83.0513C72.7602 86.6264 76.2997 91.658 81.2965 97.2856C81.5741 97.6166 81.7129 97.9476 81.7129 98.3448C81.7129 99.2717 80.9495 100 79.9779 100C79.3533 100 78.8675 99.7352 78.5205 99.2717C73.6625 93.7766 67.694 86.1629 67 80.8665C67 80.3368 67.1388 79.8734 67.4858 79.4761C67.8328 79.1451 68.388 78.9465 68.9432 79.0127C74.8423 79.741 83.5867 86.2291 88.306 90.0691C88.7224 90.4001 89 90.8636 89 91.3932Z" fill="#00CCCC"/>
<path d="M108 116.371C108 116.371 108 116.501 108 116.566C107.862 117.475 107.033 118.06 106.066 117.995C100.539 117.345 92.6645 111.887 87 107.404L88.1053 106.17L89.3487 105C96.602 110.783 102.888 114.356 106.48 114.811C107.378 114.941 108 115.591 108 116.436V116.371Z" fill="#00CCCC"/>
<path d="M108 116.307C108 117.112 107.394 117.849 106.52 117.983C105.578 118.117 104.77 117.447 104.636 116.508C104.165 113.023 100.464 106.924 94.4087 99.7529C93.8032 99.0157 93.8705 98.0104 94.6106 97.4072C95.3507 96.804 96.36 96.871 96.9655 97.6082C101.608 103.104 107.26 110.744 107.933 116.039C107.933 116.106 107.933 116.173 107.933 116.24L108 116.307Z" fill="#00CCCC"/>
</svg>
