<svg width="28" height="49" viewBox="0 0 28 49" fill="none" xmlns="http://www.w3.org/2000/svg">
<g clip-path="url(#clip0_340_75)">
<path d="M2.62591 44.5612C2.22632 44.5612 1.91235 44.2441 1.91235 43.8406V26.6618C1.91235 26.46 1.99798 26.2871 2.11215 26.1429L8.64834 19.5423C8.93376 19.2541 9.39044 19.2541 9.64732 19.5423C9.9042 19.8306 9.93274 20.2918 9.64732 20.5512L3.31093 26.95V43.8406C3.31093 44.2441 2.99696 44.5612 2.59737 44.5612H2.62591Z" fill="white"/>
<path d="M11.9878 39.3441C11.8165 39.3441 11.6168 39.2865 11.474 39.1423C11.1886 38.8541 11.1886 38.3929 11.474 38.1335C12.3589 37.24 12.787 36.3176 12.7584 35.4241C12.6728 34.0694 11.5597 33.1182 11.5311 33.1182C11.3599 33.0029 11.2742 32.8012 11.2742 32.5994C11.2742 32.3976 11.3313 32.1959 11.474 32.0517L15.3558 28.1317C17.3823 26.0853 16.4404 23.9235 15.7839 22.8859L7.70646 31.0429C7.42103 31.3312 6.96436 31.3312 6.70748 31.0429C6.42205 30.7547 6.42205 30.2935 6.70748 30.0341L15.3558 21.3006C15.3558 21.3006 15.6698 21.07 15.8696 21.0988C16.0694 21.0988 16.2406 21.1853 16.3833 21.3294C17.6677 22.7417 19.3232 26.1717 16.3833 29.1694L12.9868 32.5994C13.472 33.1759 14.0999 34.127 14.1856 35.3953C14.2426 36.7212 13.7003 37.9894 12.5016 39.2C12.3589 39.3441 12.1876 39.4017 11.9878 39.4017V39.3441Z" fill="white"/>
<path d="M17.2966 44.5612C16.897 44.5612 16.583 44.2441 16.583 43.8406V40.7565C16.583 40.3818 16.8684 40.0647 17.2395 40.0359C17.5534 40.0359 20.2364 39.7476 20.2364 37.067V33.6082C20.2364 33.2047 20.5504 32.8876 20.95 32.8876C21.3496 32.8876 21.6635 33.2047 21.6635 33.6082V37.067C21.6635 39.8918 19.5514 41.0447 18.0101 41.3906V43.8406C18.0101 44.2441 17.6962 44.5612 17.2966 44.5612Z" fill="white"/>
<path d="M19.1233 49C18.7237 49 18.4098 48.6829 18.4098 48.2794V44.5612H1.42712V48.2794C1.42712 48.6829 1.11315 49 0.713558 49C0.313965 49 0 48.6829 0 48.2794V43.8406C0 43.4371 0.313965 43.12 0.713558 43.12H19.1233C19.5229 43.12 19.8369 43.4371 19.8369 43.8406V48.2794C19.8369 48.6829 19.5229 49 19.1233 49Z" fill="white"/>
<path d="M25.4882 34.1847H15.4128C15.0132 34.1847 14.6993 33.8676 14.6993 33.4641C14.6993 33.0606 15.0132 32.7435 15.4128 32.7435H25.4882C26.0876 32.7435 26.5729 32.2535 26.5729 31.6482V2.53647C26.5729 1.93118 26.0876 1.44118 25.4882 1.44118H10.9602C10.3608 1.44118 9.8756 1.93118 9.8756 2.53647V25.6818C9.8756 26.0853 9.56164 26.4024 9.16204 26.4024C8.76245 26.4024 8.44849 26.0853 8.44849 25.6818V2.53647C8.44849 1.12412 9.59018 0 10.9602 0H25.4882C26.8868 0 28 1.15294 28 2.53647V31.6482C28 33.0606 26.8583 34.1847 25.4882 34.1847Z" fill="white"/>
<path d="M27.2864 29.3134H19.7227C19.3231 29.3134 19.0091 28.9964 19.0091 28.5928C19.0091 28.1893 19.3231 27.8722 19.7227 27.8722H26.5729V4.87111H9.8756V25.7969C9.8756 26.2005 9.56164 26.5175 9.16204 26.5175C8.76245 26.5175 8.44849 26.2005 8.44849 25.7969V4.15052C8.44849 3.74699 8.76245 3.42993 9.16204 3.42993H27.2864C27.686 3.42993 28 3.74699 28 4.15052V28.5928C28 28.9964 27.686 29.3134 27.2864 29.3134Z" fill="white"/>
<path d="M18.7237 3.08412H17.6962C17.2966 3.08412 16.9827 2.76706 16.9827 2.36353C16.9827 1.96 17.2966 1.64294 17.6962 1.64294H18.7237C19.1233 1.64294 19.4373 1.96 19.4373 2.36353C19.4373 2.76706 19.1233 3.08412 18.7237 3.08412Z" fill="white"/>
<path d="M19.8653 31.7347H16.5829C16.1834 31.7347 15.8694 31.4176 15.8694 31.0141C15.8694 30.6106 16.1834 30.2935 16.5829 30.2935H19.8653C20.2649 30.2935 20.5789 30.6106 20.5789 31.0141C20.5789 31.4176 20.2649 31.7347 19.8653 31.7347Z" fill="white"/>
<path d="M19.0949 12.4517C18.6953 12.4517 18.3813 12.1347 18.3813 11.7312V4.52528C18.3813 4.12175 18.6953 3.80469 19.0949 3.80469C19.4945 3.80469 19.8085 4.12175 19.8085 4.52528V11.7312C19.8085 12.1347 19.4945 12.4517 19.0949 12.4517Z" fill="white"/>
<path d="M18.4098 23.4912C18.0103 23.4912 17.6963 23.1741 17.6963 22.7706L17.7534 17.2941C17.7534 16.8906 18.0673 16.5447 18.4669 16.5735C18.8665 16.5735 19.1805 16.9194 19.1805 17.2941L19.1234 22.7706C19.1234 23.1741 18.8094 23.4912 18.4098 23.4912Z" fill="white"/>
<path d="M23.0908 12.3077C22.7769 12.3077 22.4914 12.106 22.4058 11.7601L20.4649 4.32358C20.3508 3.94888 20.5791 3.54535 20.9787 3.45888C21.3497 3.34358 21.7493 3.57417 21.8635 3.9777L23.8044 11.4142C23.9186 11.7889 23.6902 12.1924 23.2906 12.2789C23.2335 12.2789 23.1765 12.2789 23.1194 12.2789L23.0908 12.3077Z" fill="white"/>
<path d="M18.4955 10.8953H9.2763C8.87671 10.8953 8.56274 10.5782 8.56274 10.1747C8.56274 9.77116 8.87671 9.4541 9.2763 9.4541H18.4669C18.8665 9.4541 19.1805 9.77116 19.1805 10.1747C19.1805 10.5782 18.8665 10.8953 18.4669 10.8953H18.4955Z" fill="white"/>
<path d="M20.0083 13.9218C19.7514 13.9218 19.4945 13.7776 19.3803 13.5471C19.2091 13.2012 19.3233 12.7688 19.6943 12.5671L26.9726 8.73353C27.3151 8.56059 27.7432 8.67588 27.943 9.05059C28.1143 9.39647 28.0001 9.82882 27.6291 10.0306L20.3508 13.8641C20.3508 13.8641 20.1224 13.9506 20.0083 13.9506V13.9218Z" fill="white"/>
<path d="M24.4893 19.6288L18.6952 18.0147L12.9011 19.6288L18.6952 9.48291L24.4893 19.6288ZM18.6952 12.3653L15.8695 17.3229L18.6952 16.5447L21.5209 17.3229L18.6952 12.3653Z" fill="white"/>
<path d="M9.27634 19.6288C8.99092 19.6288 8.73404 19.4559 8.61987 19.1965C8.44861 18.8218 8.61987 18.4183 8.99092 18.2453L15.47 15.363C15.8411 15.19 16.2407 15.363 16.4119 15.7377C16.5832 16.1124 16.4119 16.5159 16.0409 16.6888L9.56176 19.5712C9.56176 19.5712 9.36197 19.6288 9.27634 19.6288Z" fill="white"/>
<path d="M27.2863 22.5111H18.5239C18.1243 22.5111 17.8103 22.194 17.8103 21.7905C17.8103 21.387 18.1243 21.0699 18.5239 21.0699H27.2863C27.6859 21.0699 27.9999 21.387 27.9999 21.7905C27.9999 22.194 27.6859 22.5111 27.2863 22.5111Z" fill="white"/>
</g>
<defs>
<clipPath id="clip0_340_75">
<rect width="28" height="49" fill="white"/>
</clipPath>
</defs>
</svg>
