<svg width="64" height="41" viewBox="0 0 64 41" fill="none" xmlns="http://www.w3.org/2000/svg">
<g clip-path="url(#clip0_340_60)">
<path d="M6.11683 24.5771C6.11683 24.5771 5.77701 24.5392 5.66374 24.4633L0.490875 21.4291C0.0377775 21.1636 -0.113255 20.5947 0.151052 20.1396L11.3652 0.606757C11.6295 0.151622 12.1959 -8.88407e-05 12.649 0.265406L17.8218 3.26171C18.0484 3.37549 18.1994 3.60306 18.2749 3.83062C18.3505 4.05819 18.2749 4.32369 18.1994 4.55125L6.94751 24.0841C6.83424 24.3116 6.60769 24.4633 6.38114 24.5392C6.30562 24.5392 6.23011 24.5392 6.15459 24.5392L6.11683 24.5771ZM2.22775 20.2913L5.77701 22.3394L16.0472 4.43747L12.498 2.38937L2.22775 20.2913Z" fill="white"/>
<path d="M57.8831 24.4254C57.5433 24.4254 57.2413 24.2737 57.0525 23.9703L45.8383 4.43751C45.574 3.98237 45.725 3.41346 46.1781 3.14796L51.351 0.113733C51.5775 -5.0135e-05 51.8418 -0.0379779 52.0684 0.0378777C52.2949 0.113733 52.5215 0.265445 52.6348 0.493012L63.8489 20.0258C63.9622 20.2534 64 20.5189 63.9244 20.7464C63.8489 20.974 63.6979 21.2016 63.4713 21.3154L58.2985 24.3117C58.2985 24.3117 57.9964 24.4254 57.8454 24.4254H57.8831ZM47.9528 4.2858L58.223 22.1877L61.7722 20.1396L51.4643 2.23769L47.915 4.2858H47.9528Z" fill="white"/>
<path d="M14.0459 30.8732C13.253 30.8732 12.4601 30.6077 11.8559 30.0767C11.1385 29.4698 10.6854 28.6354 10.5722 27.6872C10.4589 26.739 10.7609 25.8288 11.3273 25.1081L12.1958 24.0462C13.404 22.529 15.6317 22.3015 17.1421 23.5152C17.8595 24.122 18.3126 24.9564 18.4258 25.9046C18.5391 26.8528 18.237 27.7631 17.6707 28.4837L16.8022 29.5457C16.1981 30.2663 15.3674 30.7215 14.4235 30.8352C14.3102 30.8352 14.1592 30.8352 14.0459 30.8352V30.8732ZM14.9143 24.653C14.4235 24.653 13.9704 24.8426 13.6306 25.2598L12.7621 26.3218C12.4978 26.6632 12.3468 27.0804 12.4223 27.5355C12.4601 27.9527 12.6866 28.3699 13.0264 28.6354C13.3663 28.9009 13.7816 29.0526 14.2347 28.9768C14.65 28.9388 15.0654 28.7113 15.3297 28.3699L16.1981 27.3079C16.4624 26.9666 16.6134 26.5494 16.5379 26.0943C16.5002 25.677 16.2736 25.2598 15.9338 24.9943C15.6317 24.7668 15.2542 24.6151 14.9143 24.6151V24.653Z" fill="white"/>
<path d="M17.9352 34.3246C17.1423 34.3246 16.3871 34.0591 15.7075 33.5281C14.9901 32.9213 14.537 32.0869 14.4237 31.1387C14.3104 30.1905 14.6125 29.2802 15.1789 28.5596L18.9169 23.9324C19.5211 23.2118 20.3517 22.7566 21.2957 22.6428C22.2396 22.5291 23.1458 22.8325 23.8632 23.4014C24.5806 24.0082 25.0337 24.8427 25.147 25.7908C25.2603 26.739 24.9582 27.6493 24.3919 28.3699L20.6538 32.9971C19.9742 33.8695 18.9547 34.3246 17.8975 34.3246H17.9352ZM21.6733 24.5013C21.6733 24.5013 21.56 24.5013 21.4845 24.5013C21.0691 24.5392 20.6538 24.7668 20.3895 25.1081L16.6514 29.7733C16.3871 30.1146 16.2361 30.5318 16.3116 30.987C16.3494 31.4042 16.5759 31.8214 16.9157 32.0869C17.6332 32.6558 18.6526 32.542 19.219 31.8593L22.957 27.2321C23.2214 26.8908 23.3724 26.4735 23.2969 26.0184C23.2214 25.5633 23.0326 25.184 22.6927 24.9185C22.3907 24.6909 22.0509 24.5392 21.6733 24.5392V24.5013Z" fill="white"/>
<path d="M21.7108 37.8141C20.9179 37.8141 20.1627 37.5486 19.4831 37.0176C17.9728 35.8039 17.7462 33.5662 18.9545 32.0491L22.0129 28.2563C23.2211 26.7392 25.4489 26.5116 26.9592 27.7253C28.4695 28.939 28.6961 31.1767 27.4878 32.6938L24.4294 36.4866C23.7497 37.359 22.7303 37.8141 21.673 37.8141H21.7108ZM20.6913 35.5384C21.371 36.1073 22.4282 35.9936 22.9946 35.3109L26.053 31.5181C26.6194 30.7974 26.5061 29.7734 25.8264 29.2045C25.1468 28.6355 24.0896 28.7493 23.5232 29.432L20.4648 33.2248C19.8984 33.9454 20.0117 34.9695 20.6913 35.5384Z" fill="white"/>
<path d="M25.7888 41C24.9959 41 24.2029 40.7345 23.5988 40.2035C22.0885 38.9898 21.8619 36.7521 23.0702 35.235L25.1846 32.618C25.7888 31.8973 26.6195 31.4422 27.5634 31.3284C28.5074 31.2146 29.4135 31.5181 30.131 32.087C30.8484 32.6938 31.3015 33.5282 31.4147 34.4764C31.528 35.4246 31.2259 36.3349 30.6596 37.0555L28.5451 39.6725C27.941 40.3932 27.1103 40.8483 26.1664 40.9621C26.0531 40.9621 25.902 40.9621 25.7888 40.9621V41ZM27.9032 33.1869C27.9032 33.1869 27.79 33.1869 27.7144 33.1869C27.2991 33.2248 26.8838 33.4524 26.6195 33.7937L24.505 36.4108C23.9386 37.0935 24.0519 38.1554 24.7315 38.7244C25.0714 38.9898 25.4867 39.1036 25.9398 39.0657C26.3551 39.0278 26.7705 38.8002 27.0348 38.4589L29.1492 35.8418C29.4135 35.5005 29.5646 35.0833 29.4891 34.6281C29.4136 34.173 29.2248 33.7937 28.8849 33.5282C28.5829 33.3007 28.243 33.149 27.8655 33.149L27.9032 33.1869Z" fill="white"/>
<path d="M34.9264 40.3172C32.5098 40.3172 30.0556 39.331 28.5075 38.4208C28.0544 38.1553 27.9033 37.5864 28.1677 37.1312C28.432 36.6761 28.9983 36.5244 29.4514 36.7899C29.7157 36.9416 36.2101 40.7344 38.8154 36.3347C39.0797 35.8796 39.6461 35.7279 40.0992 35.9934C40.5523 36.2589 40.7033 36.8278 40.439 37.2829C39.1175 39.5207 37.0408 40.2792 34.9264 40.2792V40.3172Z" fill="white"/>
<path d="M40.9677 37.9279C38.3246 37.9279 34.0202 35.3488 32.0567 34.0971C31.6036 33.8317 31.4904 33.2248 31.7547 32.7697C32.019 32.3145 32.6231 32.2008 33.0762 32.4663C36.6632 34.7798 40.5146 36.4107 41.3075 35.9556C42.78 35.0833 42.7801 34.704 42.7801 33.4903C42.7801 32.9593 43.1954 32.5421 43.724 32.5421C44.2526 32.5421 44.668 32.9593 44.668 33.4903C44.668 35.1212 44.5169 36.259 42.2514 37.5865C41.9116 37.7761 41.4585 37.8899 41.0054 37.8899L40.9677 37.9279Z" fill="white"/>
<path d="M12.649 25.9047C12.3847 25.9047 12.0826 25.7909 11.8938 25.5634L7.66494 20.2155C7.32511 19.7983 7.40063 19.1915 7.81597 18.8881C8.23131 18.5467 8.83544 18.6226 9.1375 19.0398L13.3664 24.3876C13.7062 24.8048 13.6307 25.3737 13.2154 25.7151C13.0266 25.8668 12.8378 25.9047 12.6112 25.9047H12.649Z" fill="white"/>
<path d="M44.4412 34.2487C40.6654 34.2487 35.4171 29.7353 34.7374 29.1664C34.3598 28.825 34.3221 28.2182 34.6619 27.8389C35.0017 27.4596 35.6058 27.4217 35.9834 27.7631C38.702 30.1525 43.3085 33.1109 45.1587 32.2385C46.0271 31.8593 46.2159 30.4559 46.2159 29.3181C46.2159 28.7871 46.6312 28.3699 47.1598 28.3699C47.6884 28.3699 48.1038 28.7871 48.1038 29.3181C48.1038 31.7455 47.3864 33.3005 45.9516 33.9453C45.4985 34.1729 44.9699 34.2487 44.4412 34.2487Z" fill="white"/>
<path d="M49.1988 30.6835C45.5363 30.6835 39.4195 26.0184 37.305 24.3496C36.8897 24.0082 36.8142 23.4393 37.154 23.0221C37.4938 22.6049 38.0602 22.5291 38.4755 22.8704C42.9687 26.4735 48.6702 29.7353 49.7652 28.6734L49.8407 28.5975C49.8407 28.5975 50.8224 27.7631 50.7469 26.6632C50.6714 25.6391 49.6519 24.5013 47.8018 23.4393C42.4024 20.2913 33.9446 14.678 32.0944 13.4643L30.0932 13.9953C29.4136 14.9435 27.1103 17.7122 23.2968 18.3191C22.3906 18.4708 21.4844 18.1294 20.8803 17.4088C20.2761 16.6882 20.1251 15.74 20.4272 14.8676C21.1068 12.9333 22.5794 9.89906 25.9021 6.59934C26.1286 6.4097 30.131 2.99619 40.4767 5.42357C41.3829 5.61321 42.2136 5.84078 42.931 6.03042C45.0454 6.59934 46.2159 6.94069 47.8395 6.03042C48.2926 5.76492 48.859 5.91663 49.1233 6.37177C49.3876 6.8269 49.2366 7.39582 48.7835 7.66131C46.4803 8.98879 44.7056 8.49573 42.4401 7.88888C41.7605 7.69924 40.9676 7.47168 40.0991 7.31996C30.8106 5.15808 27.2614 8.00267 27.2236 8.04059C24.2407 11.0369 22.8437 13.8056 22.2395 15.5503C22.1263 15.8917 22.2773 16.1572 22.3528 16.271C22.4283 16.3468 22.6549 16.5744 22.9947 16.4985C26.695 15.8917 28.6962 12.7437 28.7339 12.7057C28.8472 12.5161 29.0738 12.3644 29.3003 12.2885L32.0567 11.5679C32.321 11.492 32.5853 11.5679 32.8118 11.6817C32.9251 11.7575 42.7422 18.357 48.7457 21.8084C51.2 23.2118 52.4838 24.8047 52.5971 26.5494C52.7481 28.4837 51.3133 29.8112 51.049 30.0388C50.5581 30.4939 49.9162 30.6835 49.1611 30.6835H49.1988Z" fill="white"/>
<path d="M50.9356 25.7151C50.5958 25.7151 50.2937 25.5634 50.1049 25.2599C49.8406 24.8048 49.9916 24.2359 50.4447 23.9704C50.7468 23.7808 53.8052 21.3913 55.6554 19.95C56.0707 19.6466 56.6748 19.6846 56.9769 20.1018C57.279 20.519 57.2412 21.1258 56.8259 21.4292C54.5226 23.2498 51.6907 25.4496 51.3887 25.6013C51.2377 25.6771 51.0866 25.7151 50.9356 25.7151Z" fill="white"/>
<path d="M24.203 10.2026C20.2007 10.2026 15.8207 7.05457 15.6319 6.90286C15.2166 6.59944 15.1033 5.99259 15.4431 5.57539C15.7452 5.15818 16.3493 5.0444 16.7647 5.34782C16.8024 5.34782 21.2956 8.60961 24.7694 8.26826C25.298 8.23034 25.7511 8.60961 25.7889 9.10268C25.8266 9.63367 25.449 10.0888 24.9582 10.1267C24.7316 10.1267 24.4673 10.1267 24.2408 10.1267L24.203 10.2026Z" fill="white"/>
</g>
<defs>
<clipPath id="clip0_340_60">
<rect width="64" height="41" fill="white"/>
</clipPath>
</defs>
</svg>
