<svg width="42" height="36" viewBox="0 0 42 36" fill="none" xmlns="http://www.w3.org/2000/svg">
<g clip-path="url(#clip0_313_17004)">
<path d="M42 36H0V0H42V36ZM1.16343 34.5258H40.8366V1.4742H1.16343V34.5258Z" fill="white"/>
<path d="M3.53684 36C3.53684 36 3.37395 36 3.30415 35.941C3.00166 35.7641 2.88531 35.3513 3.02492 34.968L15.3573 0.442241C15.4969 0.0589486 15.8227 -0.0884716 16.1252 0.0884326C16.4277 0.265337 16.544 0.678113 16.4044 1.06141L4.04875 35.5872C3.95567 35.8526 3.74625 36.0295 3.51357 36.0295L3.53684 36Z" fill="white"/>
<path d="M21.8959 15.0367C21.5702 15.0367 21.3142 14.7124 21.3142 14.2996V1.06132C21.3142 0.648543 21.5702 0.324219 21.8959 0.324219C22.2217 0.324219 22.4776 0.648543 22.4776 1.06132V14.3291C22.4776 14.7419 22.2217 15.0662 21.8959 15.0662V15.0367Z" fill="white"/>
<path d="M21.2909 35.4398C20.9651 35.4398 20.7092 35.086 20.7324 34.6732L20.9651 24.3538C20.9651 23.941 21.2211 23.6167 21.5701 23.6461C21.8959 23.6461 22.1518 24 22.1285 24.4127L21.8959 34.7321C21.8959 35.1449 21.6399 35.4398 21.3141 35.4398H21.2909Z" fill="white"/>
<path d="M36.9275 35.9999C36.6716 35.9999 36.4389 35.7936 36.3691 35.4398L29.1558 0.913952C29.0627 0.53066 29.2489 0.117883 29.5746 -5.28729e-05C29.8771 -0.088505 30.2029 0.117883 30.296 0.53066L37.5093 35.0565C37.6023 35.4398 37.4162 35.8525 37.0904 35.9705C37.0439 35.9705 36.9973 35.9705 36.9508 35.9705L36.9275 35.9999Z" fill="white"/>
<path d="M21.4537 7.96077H0.581717C0.255956 7.96077 0 7.60697 0 7.22367C0 6.84038 0.255956 6.48657 0.581717 6.48657H21.4537C21.7795 6.48657 22.0355 6.8109 22.0355 7.22367C22.0355 7.63645 21.7795 7.96077 21.4537 7.96077Z" fill="white"/>
<path d="M23.2455 17.6905C23.0361 17.6905 22.8267 17.5431 22.7336 17.3072C22.594 16.9534 22.6871 16.5112 22.9896 16.3048L41.1392 4.30479C41.4184 4.12788 41.7674 4.24582 41.9303 4.62911C42.0699 4.98292 41.9768 5.42518 41.6744 5.63157L23.5015 17.6316C23.5015 17.6316 23.3153 17.72 23.2223 17.72L23.2455 17.6905Z" fill="white"/>
<path d="M15.1711 27.3613L21.9191 12.5603L28.667 27.3613L21.9191 25.032L15.1711 27.3613V27.3613ZM21.9191 23.4989L26.247 25.0026L21.9191 15.5087L17.5911 25.0026L21.9191 23.4989Z" fill="white"/>
<path d="M0.581972 32.7862C0.372553 32.7862 0.163135 32.6388 0.0700601 32.403C-0.0695521 32.0491 0.0235227 31.6069 0.326016 31.4005L19.1271 18.8993C19.4064 18.7224 19.7554 18.8403 19.9183 19.2236C20.0579 19.5774 19.9648 20.0197 19.6623 20.2261L0.861196 32.6978C0.861196 32.6978 0.675046 32.7862 0.581972 32.7862Z" fill="white"/>
</g>
<defs>
<clipPath id="clip0_313_17004">
<rect width="42" height="36" fill="white"/>
</clipPath>
</defs>
</svg>
