<svg width="45" height="43" viewBox="0 0 45 43" fill="none" xmlns="http://www.w3.org/2000/svg">
<g clip-path="url(#clip0_313_16986)">
<path d="M41.3947 41.3654H0.83457C0.367211 41.3654 0 40.9984 0 40.5314V0.83398C0 0.366951 0.367211 0 0.83457 0C1.30193 0 1.66914 0.366951 1.66914 0.83398V39.6974H41.3947C41.862 39.6974 42.2292 40.0644 42.2292 40.5314C42.2292 40.9984 41.862 41.3654 41.3947 41.3654Z" fill="white"/>
<path d="M40.6602 43.0001L44.9999 40.5315L40.6602 38.0295V43.0001Z" fill="white"/>
<path d="M5.04077 30.457C4.87385 30.457 4.67356 30.3902 4.54003 30.2902C4.17282 30.0233 4.10605 29.4895 4.4065 29.1226L14.4547 16.2126C14.7552 15.8123 15.4562 15.8123 15.7566 16.2126L23.7351 26.4539L36.0534 10.6416C36.3204 10.2747 36.8546 10.2079 37.2218 10.5082C37.589 10.775 37.6558 11.3088 37.3553 11.6757L24.3694 28.3553C24.2025 28.5555 23.9688 28.6889 23.7017 28.6889C23.4347 28.6889 23.201 28.5555 23.0341 28.3553L15.0556 18.0807L5.64166 30.1567C5.47475 30.3569 5.24107 30.4903 4.974 30.4903L5.04077 30.457Z" fill="white"/>
<path d="M38.2566 13.2436L38.9242 8.3064L34.3174 10.1745L38.2566 13.2436Z" fill="white"/>
<path d="M6.97705 35.5942C6.81013 35.5942 6.60984 35.5275 6.47631 35.4274C6.1091 35.1605 6.04233 34.6268 6.34278 34.2598L21.6989 14.5112C21.9993 14.1109 22.7003 14.1109 23.0008 14.5112L31.7137 25.7199L35.8198 20.4825C36.0868 20.1155 36.621 20.0488 36.9882 20.349C37.3554 20.6493 37.4222 21.1496 37.1217 21.5166L32.3814 27.6213C32.0809 28.0216 31.3799 28.0216 31.0794 27.6213L22.3665 16.4126L7.6447 35.2606C7.47779 35.4607 7.24411 35.5942 6.97705 35.5942Z" fill="white"/>
<path d="M37.9898 23.0844L38.6908 18.1472L34.084 20.0153L37.9898 23.0844Z" fill="white"/>
</g>
<defs>
<clipPath id="clip0_313_16986">
<rect width="45" height="43" fill="white"/>
</clipPath>
</defs>
</svg>
