<svg width="43" height="40" viewBox="0 0 43 40" fill="none" xmlns="http://www.w3.org/2000/svg">
<g clip-path="url(#clip0_313_16997)">
<path d="M16.0252 38.8191C15.8706 38.8191 15.7161 38.7677 15.613 38.6651C15.3554 38.434 15.3038 38.0232 15.5615 37.7665C15.6388 37.6894 23.1361 29.0117 23.3679 24.6214C23.471 22.6445 22.5435 21.0014 21.5645 19.2812C20.3793 17.176 19.0396 14.814 19.5291 11.6304C20.199 7.21447 22.2601 3.79984 23.1361 2.51614C23.3422 2.23373 23.7286 2.15671 24.0378 2.33642C24.3212 2.54182 24.3985 2.92692 24.2182 3.23501C23.3937 4.41601 21.4614 7.65093 20.8173 11.8101C20.4051 14.5572 21.5387 16.5341 22.7238 18.6394C23.7544 20.4622 24.8107 22.3364 24.7077 24.6728C24.45 29.4995 16.9012 38.2286 16.592 38.588C16.4632 38.7421 16.2829 38.8191 16.1025 38.8191H16.0252Z" fill="white"/>
<path d="M31.3805 40C31.2517 40 31.0971 39.9486 30.994 39.8716C30.7106 39.6662 30.6591 39.2554 30.891 38.973C30.9425 38.896 36.3014 31.9127 34.6525 25.6483C33.725 22.1309 31.6381 20.2311 29.8089 18.5366C28.2888 17.1245 26.846 15.8151 26.4338 13.8382C25.6866 10.2182 26.1246 5.00641 27.3613 3.10654C27.5417 2.79845 27.9539 2.72143 28.2373 2.90115C28.5464 3.08086 28.6237 3.49165 28.4434 3.77406C27.4901 5.23748 26.9748 10.0385 27.6962 13.5558C28.0054 15.1219 29.2421 16.2516 30.6849 17.561C32.5399 19.2811 34.8586 21.4121 35.8892 25.2888C37.7184 32.1694 32.1534 39.4352 31.8958 39.7432C31.7669 39.8973 31.5866 40 31.3805 40Z" fill="white"/>
<path d="M42.3558 9.31971C42.3558 9.31971 42.1497 9.31971 42.0724 9.24269C32.0502 4.15925 23.4708 2.41342 16.5919 4.05655C16.2569 4.13357 15.8963 3.92818 15.819 3.59442C15.7417 3.26066 15.9478 2.90122 16.2827 2.8242C23.4708 1.10405 32.3336 2.90122 42.6392 8.13871C42.9484 8.29275 43.0772 8.67786 42.9226 9.01162C42.8196 9.24269 42.5877 9.37106 42.3558 9.37106V9.31971Z" fill="white"/>
<path d="M7.67776 23.389C7.52318 23.389 7.3686 23.3376 7.23978 23.2092C6.95637 22.9268 0.0258789 16.3286 0.0258789 8.34403C0.000115024 4.31322 2.0097 0 7.67776 0C13.3458 0 15.3554 4.31322 15.3554 8.34403C15.3554 16.303 8.42492 22.9268 8.14152 23.2092C8.0127 23.3376 7.85811 23.389 7.70353 23.389H7.67776ZM7.67776 1.2837C1.90665 1.2837 1.28831 6.21309 1.28831 8.34403C1.28831 14.6341 6.15769 20.2311 7.67776 21.8229C9.19784 20.2311 14.0672 14.6341 14.0672 8.34403C14.0672 6.21309 13.4489 1.2837 7.67776 1.2837Z" fill="white"/>
<path d="M7.6777 13.0167C5.04978 13.0167 2.91138 10.8858 2.91138 8.26701C2.91138 5.64827 5.04978 3.51733 7.6777 3.51733C10.3056 3.51733 12.444 5.64827 12.444 8.26701C12.444 10.8858 10.3056 13.0167 7.6777 13.0167ZM7.6777 4.77536C5.74541 4.77536 4.17381 6.34147 4.17381 8.26701C4.17381 10.1926 5.74541 11.7587 7.6777 11.7587C9.61 11.7587 11.1816 10.1926 11.1816 8.26701C11.1816 6.34147 9.61 4.77536 7.6777 4.77536V4.77536Z" fill="white"/>
</g>
<defs>
<clipPath id="clip0_313_16997">
<rect width="43" height="40" fill="white"/>
</clipPath>
</defs>
</svg>
