<svg width="45" height="44" viewBox="0 0 45 44" fill="none" xmlns="http://www.w3.org/2000/svg">
<g clip-path="url(#clip0_340_93)">
<path d="M34.2403 18.2219C34.2403 18.2219 34.1859 18.2219 34.1586 18.2219L24.1072 16.858C23.8348 16.8307 23.5896 16.6125 23.5351 16.3397C23.4807 16.067 23.5896 15.7669 23.8075 15.6305L26.1774 13.9938L17.8148 1.06386C17.6786 0.845629 17.6786 0.600124 17.8148 0.354619C17.9238 0.136392 18.1689 0 18.4141 0H28.8741C29.092 0 29.31 0.109113 29.4462 0.300062L34.6489 8.3199L36.6919 6.76503C36.9371 6.60136 37.2367 6.57409 37.4819 6.76503C37.727 6.9287 37.836 7.22877 37.7543 7.50155L34.9213 17.7309C34.8396 18.031 34.5672 18.2219 34.2676 18.2219H34.2403ZM26.0139 15.7396L33.7228 16.7762L35.8747 9.05642L34.8396 9.84749C34.6762 9.9566 34.4855 10.0112 34.3221 9.98388C34.1314 9.9566 33.9679 9.84749 33.859 9.68382L28.4928 1.36392H19.6399L27.7028 13.8029C27.8935 14.1029 27.8118 14.5121 27.5121 14.7303L26.0412 15.7396H26.0139Z" fill="white"/>
<path d="M17.5696 17.1308C17.5696 17.1308 17.3244 17.1035 17.2155 17.0217L9.99696 12.4389C9.67008 12.248 9.58836 11.8388 9.77904 11.5114L15.5266 2.10041C15.6628 1.90946 15.8807 1.77307 16.0987 1.77307C16.3438 1.77307 16.5617 1.88218 16.6707 2.10041L22.0369 10.584C22.1731 10.8295 22.1731 11.1023 22.0369 11.3478L18.1689 16.8307C18.0327 17.0217 17.8148 17.1308 17.6241 17.1308H17.5696ZM11.3045 11.6478L17.4062 15.5214L20.6477 10.9386L16.1259 3.76439L11.3317 11.6478H11.3045Z" fill="white"/>
<path d="M28.5473 44C28.3566 44 28.166 43.9182 28.0298 43.7818L21.0292 35.8165C20.8112 35.571 20.8112 35.1891 21.0292 34.9163L27.6484 27.2238C27.8391 27.0056 28.1387 26.9237 28.3839 27.0329C28.6563 27.1147 28.8197 27.3875 28.847 27.6603L28.9287 30.5518H44.3191C44.5643 30.5518 44.8094 30.7154 44.9184 30.9337C45.0273 31.1519 45.0273 31.4247 44.8911 31.6429L39.1708 40.4265C39.0346 40.6175 38.8439 40.7266 38.5988 40.7266H29.0649L29.2283 43.2908C29.2283 43.5908 29.0921 43.8636 28.8197 43.9727C28.738 44 28.6563 44.0273 28.5473 44.0273V44ZM22.4456 35.3528L27.7301 41.3813L27.6484 40.0992C27.6484 39.9083 27.7029 39.7173 27.8391 39.5809C27.9753 39.4445 28.1387 39.3627 28.3294 39.3627H38.2174L43.0388 31.943H28.2477C27.8663 31.943 27.5667 31.6429 27.5667 31.261L27.5122 29.4606L22.4184 35.38L22.4456 35.3528Z" fill="white"/>
<path d="M34.0496 28.8878C33.7772 28.8878 33.5321 28.7241 33.4231 28.4514L30.9443 22.2046C30.8081 21.8773 30.9443 21.4954 31.2984 21.3317L39.0617 17.7855C39.3886 17.6219 39.7972 17.7855 39.9606 18.1129L44.6186 27.8785C44.7276 28.0967 44.7003 28.3422 44.5914 28.5332C44.4552 28.7241 44.2373 28.8605 44.0194 28.8605H34.0769L34.0496 28.8878ZM32.4425 22.341L34.5127 27.5512H42.9298L39.0072 19.3404L32.4425 22.341Z" fill="white"/>
<path d="M18.8499 41.4358H8.3626C8.17193 41.4358 7.98125 41.3539 7.84505 41.1903L0.163452 31.9156C1.35899e-05 31.7247 -0.0272261 31.4246 0.0817327 31.1791C0.190692 30.9336 0.435849 30.7972 0.708246 30.7972H18.8499C19.2312 30.7972 19.5309 31.0973 19.5309 31.4792V40.7538C19.5309 41.1357 19.2312 41.4358 18.8499 41.4358ZM8.68948 40.0718H18.1689V32.1611H2.12471L8.66224 40.0718H8.68948Z" fill="white"/>
<path d="M11.8493 28.8605H1.82506C1.5799 28.8333 1.36199 28.6969 1.25303 28.5059C1.11683 28.315 1.11683 28.0422 1.25303 27.8512L4.79419 20.9225L2.80569 19.9951C2.56053 19.8859 2.3971 19.6132 2.42434 19.3404C2.42434 19.0676 2.64225 18.8221 2.88741 18.7403L12.2306 15.8215C12.5847 15.7124 12.9389 15.9033 13.0751 16.2306L16.5617 25.4235C16.6707 25.6962 16.5617 26.0236 16.3438 26.1873C16.0987 26.3782 15.799 26.3782 15.5266 26.2145L14.3553 25.4235L12.4213 28.5605C12.2851 28.7514 12.0672 28.8878 11.8493 28.8878V28.8605ZM2.94189 27.4693H11.4679L13.5654 24.0868C13.6743 23.9231 13.8105 23.814 14.0012 23.7868C14.1646 23.7595 14.3553 23.7868 14.4915 23.8686L11.9855 17.2945L4.93039 19.5041L5.99274 19.9951C6.15618 20.0769 6.29237 20.2133 6.34685 20.4042C6.40133 20.5679 6.40133 20.7589 6.31961 20.9225L2.94189 27.4693Z" fill="white"/>
</g>
<defs>
<clipPath id="clip0_340_93">
<rect width="45" height="44" fill="white"/>
</clipPath>
</defs>
</svg>
