<svg width="174" height="73" viewBox="0 0 174 73" fill="none" xmlns="http://www.w3.org/2000/svg">
<path d="M167.535 31.9168C162.38 32.516 160.473 31.0371 157.723 29.2714C154.929 27.4802 151.452 25.5168 145.915 25.5168C134.757 25.5168 130.994 32.2929 126.547 42.2179C126.082 43.2186 125.871 43.6202 125.839 43.9326H137.341C139.555 38.5781 144.435 33.147 152.243 37.7876C159.203 41.9246 162.622 45.6218 172.472 43.2059L167.535 31.9104V31.9168Z" fill="#FEFEFE"/>
<path d="M0.580566 43.9326H13.1224L18.8574 35.7542H28.8921V43.9326H39.1693V1.44062H19.3997C9.48614 1.44062 0.880397 8.84134 0.880397 18.5687C0.880397 24.4205 3.86593 29.3734 8.58666 32.5351L0.580566 43.9326ZM19.4571 25.6698C14.6789 25.6698 11.1575 22.3296 11.1575 18.5687C11.1575 14.8078 14.9788 11.525 19.7569 11.525H28.8985V25.6698H19.4635H19.4571ZM53.6823 43.9326H65.2672L86.2361 1.44062H74.8298L64.9163 21.4946L55.3026 1.44062H43.7178L59.2451 32.9558L53.6887 43.939L53.6823 43.9326ZM87.4291 37.488C93.4639 43.0975 100.035 45.3668 105.827 45.3668C116.997 45.3668 124.225 37.7303 124.225 30.9797C124.225 27.7543 122.79 24.4141 119.268 22.0237C122.075 19.5185 123.332 16.9496 123.332 14.1449C123.332 7.99991 116.64 0 105.77 0C100.213 0 93.9998 2.09081 87.9713 7.40072L94.306 14.9799C98.6057 11.5186 102.848 10.2628 106.191 10.2628C110.312 10.2628 112.94 12.2325 112.94 14.0811C112.94 15.9297 110.969 17.6636 106.605 17.6636H97.4064V27.2125H106.727C112.041 27.2125 113.954 29.061 113.954 30.9096C113.954 32.8793 111.205 35.206 106.605 35.206C103.02 35.206 98.5993 33.7144 94.121 29.8961L87.4291 37.4753V37.488ZM145.781 22.8651L149.43 14.0301L153.519 24.1463C155.414 24.8348 157.238 25.8037 159.159 27.034C161.876 28.7742 163.433 29.5391 166.444 29.367L154.215 1.44062H144.658L133.411 26.8491C136.474 24.3567 140.378 22.8906 145.787 22.8651H145.781Z" fill="#FEFEFE"/>
<path d="M7.25971 65.3698C7.90402 65.5674 8.38247 65.8607 8.72696 66.3005C9.07144 66.734 9.23731 67.2567 9.23731 67.8877C9.23731 68.8184 8.89282 69.5323 8.19109 70.055C7.48937 70.5777 6.46867 70.8327 5.16728 70.8327H0V60.3531H4.88021C6.09229 60.3531 7.04918 60.5954 7.7254 61.0543C8.40161 61.5197 8.7461 62.189 8.7461 63.0623C8.7461 63.585 8.61213 64.0376 8.35695 64.4264C8.10178 64.828 7.72539 65.1467 7.26608 65.3698H7.25971ZM2.40502 64.6941H4.66969C5.1928 64.6941 5.60108 64.5921 5.86901 64.3627C6.13694 64.1523 6.2709 63.84 6.2709 63.4193C6.2709 62.9985 6.13694 62.6989 5.86901 62.4758C5.58194 62.2527 5.1928 62.1444 4.66969 62.1444H2.40502V64.6878V64.6941ZM5.07159 69.0351C6.20712 69.0351 6.78125 68.5889 6.78125 67.6901C6.78125 66.7913 6.2135 66.3897 5.07159 66.3897H2.40502V69.0415H5.07159V69.0351Z" fill="#FEFEFE"/>
<path d="M17.556 63.8016C18.8318 63.8016 19.8206 64.0884 20.5096 64.6557C21.1858 65.2231 21.5303 66.0645 21.5303 67.1864C21.5303 68.3657 21.1539 69.2836 20.4075 69.8955C19.642 70.5266 18.583 70.8389 17.2179 70.8389H12.4844V60.3594H14.8958V63.8016H17.5623H17.556ZM17.0775 69.0414C17.7091 69.0414 18.2003 68.8947 18.5575 68.576C18.902 68.2637 19.0806 67.8111 19.0806 67.231C19.0806 66.141 18.4044 65.5992 17.0711 65.5992H14.883V69.0414H17.0711H17.0775ZM22.8572 60.3594H25.2686V70.8389H22.8572V60.3594Z" fill="#FEFEFE"/>
<path d="M34.1678 71.0111C33.1025 71.0111 32.1328 70.7689 31.278 70.3099C30.4104 69.8446 29.7342 69.2008 29.243 68.3785C28.7518 67.5562 28.4966 66.6255 28.4966 65.5928C28.4966 64.5602 28.7518 63.6168 29.243 62.7945C29.7342 61.9722 30.4104 61.3283 31.278 60.863C32.1328 60.3977 33.1025 60.1746 34.187 60.1746C35.0992 60.1746 35.9221 60.3403 36.6558 60.6526C37.3894 60.965 38.0018 61.4303 38.4994 62.0295L36.9428 63.4638C36.2411 62.6415 35.3544 62.2335 34.3082 62.2335C33.6639 62.2335 33.077 62.3674 32.573 62.6542C32.069 62.9411 31.6735 63.3427 31.3864 63.8526C31.0994 64.3626 30.9526 64.9426 30.9526 65.5865C30.9526 66.2303 31.0994 66.8167 31.3864 67.3203C31.6735 67.8303 32.0626 68.2191 32.573 68.4996C33.0833 68.7864 33.6639 68.933 34.3082 68.933C35.3544 68.933 36.2411 68.5123 36.9428 67.69L38.4994 69.1243C38.0082 69.7362 37.3766 70.2015 36.643 70.5139C35.9094 70.8262 35.0864 70.992 34.1742 70.992L34.1678 71.0111Z" fill="#FEFEFE"/>
<path d="M49.3189 62.3292H45.9633V70.8327H43.5647V62.3292H40.2219V60.3531H49.3125V62.3292H49.3189Z" fill="#FEFEFE"/>
<path d="M58.7475 68.5889H53.88L52.9486 70.8327H50.4607L55.1368 60.3531H57.5354L62.2242 70.8327H59.6789L58.7475 68.5889V68.5889ZM57.9819 66.7467L56.3169 62.7372L54.6519 66.7467H57.9756H57.9819Z" fill="#FEFEFE"/>
<path d="M72.2079 65.3698C72.8523 65.5674 73.3307 65.8607 73.6752 66.3005C74.0197 66.7403 74.1855 67.2567 74.1855 67.8877C74.1855 68.8184 73.8411 69.5323 73.1393 70.055C72.4376 70.5777 71.4169 70.8327 70.1155 70.8327H64.9482V60.3531H69.8284C71.0405 60.3531 71.9974 60.5954 72.6736 61.0543C73.3498 61.5197 73.6943 62.189 73.6943 63.0623C73.6943 63.585 73.5604 64.0376 73.3052 64.4264C73.05 64.828 72.6736 65.1467 72.2143 65.3698H72.2079ZM67.3533 64.6941H69.6179C70.141 64.6941 70.5493 64.5921 70.8172 64.3627C71.0852 64.1523 71.2191 63.84 71.2191 63.4193C71.2191 62.9985 71.0852 62.6989 70.8172 62.4758C70.5302 62.2527 70.141 62.1444 69.6179 62.1444H67.3533V64.6878V64.6941ZM70.0198 69.0351C71.1553 69.0351 71.7295 68.5889 71.7295 67.6901C71.7295 66.7913 71.1617 66.3897 70.0198 66.3897H67.3533V69.0415H70.0198V69.0351Z" fill="#FEFEFE"/>
<path d="M81.49 66.6128H79.8123V70.8327H77.4009V60.3531H79.8123V64.5858H81.5475L84.3033 60.3531H86.8678L83.4357 65.4145L86.9699 70.8327H84.214L81.49 66.6128V66.6128Z" fill="#FEFEFE"/>
<path d="M96.3281 68.5889H91.4606L90.5292 70.8327H88.0413L92.7173 60.3531H95.116L99.8048 70.8327H97.2594L96.3281 68.5889V68.5889ZM95.5625 66.7467L93.8975 62.7372L92.2325 66.7467H95.5561H95.5625Z" fill="#FEFEFE"/>
<path d="M117.578 68.8565V72.9999H115.332V70.8326H107.932V72.9999H105.687L105.7 68.8565H106.121C106.752 68.8437 107.199 68.3784 107.454 67.4796C107.709 66.5808 107.875 65.2932 107.932 63.6358L108.054 60.3594H116.111V68.8629H117.578V68.8565ZM110.076 63.8589C110.031 65.102 109.929 66.1474 109.763 66.9888C109.597 67.843 109.361 68.4549 109.03 68.8629H113.718V62.3354H110.12L110.076 63.8653V63.8589Z" fill="#FEFEFE"/>
<path d="M125.539 71.0112C124.448 71.0112 123.472 70.769 122.605 70.31C121.718 69.8447 121.048 69.1881 120.551 68.3658C120.059 67.5435 119.804 66.632 119.804 65.5993C119.804 64.5666 120.059 63.636 120.551 62.8137C121.042 61.9914 121.718 61.3476 122.605 60.8822C123.472 60.4169 124.448 60.181 125.539 60.181C126.63 60.181 127.606 60.4233 128.474 60.8822C129.341 61.3476 130.03 61.9914 130.528 62.8137C131.019 63.636 131.274 64.5666 131.274 65.5993C131.274 66.632 131.019 67.5435 130.528 68.3658C130.037 69.1881 129.341 69.8447 128.474 70.31C127.606 70.7753 126.63 71.0112 125.539 71.0112ZM125.539 68.9459C126.152 68.9459 126.726 68.7993 127.217 68.5124C127.708 68.2256 128.117 67.8367 128.404 67.3331C128.691 66.8232 128.825 66.2431 128.825 65.5993C128.825 64.9555 128.691 64.369 128.404 63.8655C128.117 63.3555 127.715 62.9539 127.217 62.6671C126.726 62.3802 126.152 62.2463 125.539 62.2463C124.927 62.2463 124.353 62.3802 123.861 62.6671C123.37 62.9539 122.975 63.3555 122.694 63.8655C122.407 64.3754 122.26 64.9555 122.26 65.5993C122.26 66.2431 122.407 66.8296 122.694 67.3331C122.981 67.8431 123.37 68.2319 123.861 68.5124C124.353 68.7993 124.927 68.9459 125.539 68.9459Z" fill="#FEFEFE"/>
<path d="M144.02 70.8327L144.007 64.5603L140.92 69.7236H139.842L136.754 64.6814V70.8327H134.477V60.3531H136.486L140.409 66.8614L144.275 60.3531H146.285L146.298 70.8327H144.02V70.8327Z" fill="#FEFEFE"/>
<path d="M155.235 71.0112C154.144 71.0112 153.168 70.769 152.301 70.31C151.414 69.8447 150.744 69.1881 150.246 68.3658C149.755 67.5435 149.5 66.632 149.5 65.5993C149.5 64.5666 149.755 63.636 150.246 62.8137C150.738 61.9914 151.414 61.3476 152.301 60.8822C153.168 60.4169 154.144 60.181 155.235 60.181C156.326 60.181 157.302 60.4233 158.17 60.8822C159.037 61.3476 159.726 61.9914 160.224 62.8137C160.715 63.636 160.97 64.5666 160.97 65.5993C160.97 66.632 160.715 67.5435 160.224 68.3658C159.732 69.1881 159.037 69.8447 158.17 70.31C157.302 70.7753 156.326 71.0112 155.235 71.0112ZM155.235 68.9459C155.847 68.9459 156.422 68.7993 156.913 68.5124C157.404 68.2256 157.812 67.8367 158.099 67.3331C158.386 66.8232 158.52 66.2431 158.52 65.5993C158.52 64.9555 158.386 64.369 158.099 63.8655C157.812 63.3555 157.41 62.9539 156.913 62.6671C156.422 62.3802 155.847 62.2463 155.235 62.2463C154.623 62.2463 154.048 62.3802 153.557 62.6671C153.066 62.9539 152.671 63.3555 152.39 63.8655C152.103 64.3754 151.956 64.9555 151.956 65.5993C151.956 66.2431 152.103 66.8296 152.39 67.3331C152.677 67.8431 153.066 68.2319 153.557 68.5124C154.048 68.7993 154.623 68.9459 155.235 68.9459Z" fill="#FEFEFE"/>
<path d="M171.439 65.3698C172.083 65.5674 172.561 65.8607 172.906 66.3005C173.25 66.7403 173.416 67.2567 173.416 67.8877C173.416 68.8184 173.072 69.5323 172.37 70.055C171.668 70.5777 170.648 70.8327 169.346 70.8327H164.179V60.3531H169.059C170.271 60.3531 171.228 60.5954 171.904 61.0543C172.581 61.5197 172.925 62.189 172.925 63.0623C172.925 63.585 172.791 64.0376 172.536 64.4264C172.281 64.828 171.904 65.1467 171.445 65.3698H171.439ZM166.584 64.6941H168.849C169.372 64.6941 169.78 64.5921 170.048 64.3627C170.316 64.1523 170.45 63.84 170.45 63.4193C170.45 62.9985 170.316 62.6989 170.048 62.4758C169.761 62.2527 169.372 62.1444 168.849 62.1444H166.584V64.6878V64.6941ZM169.251 69.0351C170.386 69.0351 170.96 68.5889 170.96 67.6901C170.96 66.7913 170.392 66.3897 169.251 66.3897H166.584V69.0415H169.251V69.0351Z" fill="#FEFEFE"/>
</svg>
