<svg width="133" height="108" viewBox="0 0 133 108" fill="none" xmlns="http://www.w3.org/2000/svg">
<g clip-path="url(#clip0_263_16815)">
<path d="M69.3993 72.6431C48.7173 86.1583 24.1142 90.964 -0.0353985 86.2386V92.2235C25.2565 96.8808 50.9557 91.7165 72.6065 77.5684C90.6508 65.7764 111.679 60.6165 132.785 62.6287V56.7229C110.545 54.7244 88.4124 60.2194 69.3993 72.6431ZM76.6747 83.8163C59.0257 95.3496 38.9414 101.355 18.2207 101.355C16.0557 101.355 13.8806 101.289 11.703 101.158C7.79445 100.921 3.86218 100.466 -0.0353985 99.7986V105.759C3.74822 106.372 7.55871 106.799 11.3499 107.028C13.6491 107.167 15.9405 107.236 18.2276 107.236C40.0863 107.235 61.2727 100.902 79.8808 88.7416C95.6919 78.4092 114.219 74.0278 132.785 76.0998V70.1845C129.783 69.872 126.782 69.7165 123.791 69.7165C107.167 69.7165 90.8959 74.5222 76.6747 83.8163Z" fill="#00CCCC"/>
<path d="M62.1241 61.4707C60.8059 62.3315 59.4697 63.1494 58.1168 63.9284L5.83381 47.5012L-0.0366211 45.6571V49.6618V51.82L50.6308 67.7386C47.128 69.2981 43.5369 70.599 39.8816 71.6366L39.8844 71.624L-0.0366211 59.0834V65.2462L27.9919 74.0511C19.219 75.1453 10.2344 74.7816 1.33859 72.9068C0.878477 72.81 0.42117 72.7084 -0.0366211 72.6042V78.6253C0.0191982 78.6379 0.0729441 78.65 0.128397 78.6615C22.7717 83.434 45.9249 79.0779 65.3302 66.3959C85.574 53.1669 109.11 47.2501 132.786 49.2328V46.0834V43.0203H126.916C104.109 42.3956 81.6611 48.7037 62.1241 61.4707Z" fill="#00CCCC"/>
<path d="M38.4722 49.8921C94.6102 40.6078 96.8337 24.8448 98.0214 18.2308V18.2324C97.7275 41.7856 56.7005 54.6954 49.385 56.8099C47.774 56.195 46.2035 55.4546 44.6916 54.584C42.1785 53.1387 40.0495 51.5637 38.246 49.9058C38.3226 49.9047 38.3972 49.9003 38.4722 49.8921ZM20.7757 26.9691C21.3969 31.2505 23.343 60.7705 58.1173 63.928C59.4701 63.1503 60.8063 62.3312 62.1246 61.4704C63.3858 60.6469 64.6608 59.8498 65.946 59.0791H65.9417C65.946 59.0776 65.9499 59.0763 65.9543 59.0736C69.0189 57.2377 72.1473 55.5546 75.3325 54.0286C98.5397 39.6026 98.914 22.5731 98.9207 22.3744C99.3796 26.0527 99.1565 30.7478 97.5444 36.6395C96.3818 40.8869 94.0849 44.685 90.9993 47.9008C94.3233 46.8801 97.6886 46.0181 101.083 45.3123C106.565 35.3035 106.424 23.9229 103.236 18.1906C99.6515 11.7459 102.626 8.62895 105.659 9.17016C109.195 9.80339 109.9 14.4622 109.9 14.4622H113.149C112.936 8.22307 114.718 5.71413 117.804 3.13838C98.0712 -5.30431 93.514 11.0669 93.514 11.0669C93.514 11.0669 95.6926 12.6253 97.3353 16.4021C93.0703 39.5428 43.8862 41.9395 32.2113 42.1812C30.6381 39.2487 29.7049 36.2769 29.1631 33.4677C67.1503 37.7698 86.079 28.3577 86.079 28.3577C64.7524 33.3138 36.8311 26.5053 28.4744 24.2102C28.5144 22.2133 28.6296 20.583 28.6071 19.4904C22.0649 18.7295 16.7629 16.4339 16.7629 16.4339V19.704C20.0371 19.9001 20.1204 22.4452 20.7757 26.9691Z" fill="white"/>
</g>
<defs>
<clipPath id="clip0_263_16815">
<rect width="133" height="108" fill="white"/>
</clipPath>
</defs>
</svg>
