<svg width="958" height="934" viewBox="0 0 958 934" fill="none" xmlns="http://www.w3.org/2000/svg">
<g clip-path="url(#clip0_415_23)">
<g clip-path="url(#clip1_415_23)">
<path d="M418.018 3.95682C418.552 5.98782 424.87 36.3924 421.539 39.1687C418.207 41.9451 411.82 45.5118 407.264 46.7085L393.573 50.3048C393.573 50.3048 387.582 49.1676 391.239 56.8792C394.885 64.5939 394.194 65.0453 396.983 64.3128C399.772 63.5803 400.011 62.4378 401.952 65.7182C403.894 68.9986 403.856 76.0492 403.856 76.0492C403.856 76.0492 402.081 81.6674 406.092 82.503C410.105 83.3501 416.75 91.0865 416.949 91.8438C417.148 92.6011 415.132 94.2222 419.832 93.5273C424.532 92.8325 433.739 92.8551 436.089 92.5076C438.439 92.1602 440.975 91.4939 442.251 92.2384C443.526 92.9829 445.532 95.4366 445.532 95.4366L453.026 100.239C453.026 100.239 465.791 104.467 464.691 108.546C463.591 112.625 462.014 119.001 462.014 119.001C462.014 119.001 460.997 124.42 459.172 120.557C457.351 116.705 456.126 115.126 455.143 113.483C454.17 111.837 449.267 105.544 446.917 105.892C444.566 106.239 443.727 105.098 441.525 107.038C439.321 108.967 436.999 111.478 435.729 116.963C434.459 122.449 432.121 123.872 434.794 128.862C437.455 133.854 435.435 134.385 439.18 134.211C442.925 134.037 450.243 134.016 454.067 135.17C457.895 136.336 469.248 134.163 464.181 146.865C459.117 159.578 456.85 171.545 456.85 171.545C456.85 171.545 459.962 155.554 472.676 160.616C485.39 165.679 492.807 175.372 493.725 177.841C494.644 180.311 505.039 194.103 505.039 194.103L510.13 221.751C510.13 221.751 520.739 237.388 526.781 237.69C532.825 238.004 531.04 253.904 531.04 253.904L544.091 266.459C544.091 266.459 542.593 269.023 544.145 270.775C545.688 272.54 551.174 273.81 553.19 272.189C555.208 270.579 553.702 266.902 556.044 266.57C558.394 266.222 559.155 271.174 563.19 269.022C567.229 266.882 565.598 257.546 568.109 254.728C570.617 251.898 576.247 249.61 576.247 249.61C576.247 249.61 582.731 254.677 586.558 255.843C590.385 257.009 592.463 265.945 592.463 265.945C592.463 265.945 595.583 266.475 599.502 264.906C603.42 263.337 604.106 256.656 606.391 261.195C608.666 265.749 613.591 284.499 614.295 285.123C614.999 285.748 630.233 283.917 630.233 283.917L632.464 300.676L628.749 309.232L638.005 302.201C638.005 302.201 639.49 298.561 642.026 297.894C644.562 297.228 647.417 296.748 648.241 296.802C649.065 296.855 647.091 306.855 646.471 308.65C645.859 310.43 643.012 322.291 648.35 321.968C653.687 321.645 655.412 316.862 657.593 319C659.774 321.138 662.26 326.447 662.923 328.971L666.917 344.175C666.917 344.175 667.721 353.446 686.795 353.857C705.869 354.268 733.028 350.385 733.028 350.385L736.83 354.538C736.83 354.538 737.708 358.907 743.112 353.698C748.515 348.488 750.426 348.526 754.254 349.692C758.081 350.857 764.813 350.708 767.35 350.042C769.886 349.376 773.204 345.523 777.532 345.466C781.848 345.412 786.725 348.473 789.461 348.564C792.196 348.655 808.763 373.57 808.763 373.57C808.763 373.57 817.068 382.49 817.867 385.531C818.666 388.571 820.814 403.99 820.814 403.99L831.006 410.795C831.006 410.795 845.822 421.807 845.398 424.347C844.988 426.895 845.238 443.353 845.238 443.353L849.914 446.724C849.914 446.724 873.437 447.586 874.711 447.251C875.985 446.917 892.548 445.007 892.548 445.007C892.548 445.007 899.224 447.583 900.803 447.991C902.379 448.386 905.767 449.937 905.767 449.937C905.767 449.937 897.604 458.043 897.766 461.79C897.94 465.535 898.395 471.377 898.395 471.377L885.341 495.941L873.098 502.947C873.098 502.947 873.116 510.253 875.048 517.608C876.98 524.964 881.823 542.373 880.06 543.928C878.294 545.471 879.499 561.407 879.499 561.407C879.499 561.407 908.01 553.378 923.271 575.374C938.532 597.37 944.623 612.293 946.052 620.86C947.492 629.424 951.019 659.384 950.46 660.34C949.902 661.296 941.11 681.49 941.11 681.49L925.012 701.702C925.012 701.702 923.966 704.957 924.155 709.789C924.342 714.61 910.973 718.404 910.973 718.404L896.854 717.243C896.854 717.243 890.731 715.601 889.311 718.415C887.879 721.232 885.372 729.201 885.372 729.201L876.245 726.447C876.245 726.447 874.01 719.993 871.545 727.142C869.091 734.287 869.093 735.366 869.055 737.277C869.017 739.189 869.155 745.924 866.047 746.47C862.94 747.016 856.643 746.769 853.788 747.249C850.933 747.729 851.185 747.663 845.832 746.898C840.478 746.133 841.98 748.72 840.283 750.527C838.583 752.323 844.154 754.944 837.403 753.994C830.655 753.056 835.007 750.011 828.503 754.161C822.011 758.307 824.069 755.865 820.018 756.929C815.967 757.994 815.78 758.312 814.494 762.71C813.208 767.108 801.982 763.556 813.208 767.108C824.434 770.661 826.494 772.291 824.889 776.503C823.284 780.714 827.803 786.568 819.994 786.73C812.171 786.884 806.323 781.109 806.323 781.109L793.802 786.03L777.823 783.996C777.823 783.996 776.863 778.287 771.922 779.045C766.969 779.806 769.055 783.588 764.326 782.12C759.609 780.648 755.914 774.847 755.914 774.847L748.839 784.017C748.839 784.017 745.583 807.724 744.801 806.801C744.019 805.878 739.998 810.185 739.998 810.185C739.998 810.185 739.208 823.664 739.238 826.907C739.279 830.147 738.58 835.752 734.343 837.135C730.106 838.518 720.916 840.662 720.916 840.662C720.916 840.662 718.26 841.899 716.005 844.663C713.749 847.426 717.362 846.747 710.427 846.128C703.493 845.508 704.725 841.934 699.442 846.573C694.158 851.211 691.038 855.821 689.607 858.638C688.175 861.455 687.725 865.903 686.508 870.565C685.288 875.215 686.327 877.114 681.543 875.39C676.76 873.665 674.835 872.552 663.97 872.425C653.104 872.299 651.812 865.327 651.812 865.327C651.812 865.327 653.455 859.204 638.405 854.497C623.352 849.779 623.977 849.075 620.815 845.306C617.654 841.536 615.73 829.027 613.864 838.459C612.011 847.889 614.192 850.026 610.816 849.552C607.44 849.077 607.866 847.616 603.455 845.254C599.044 842.892 599.416 842.255 597.116 841.767C594.82 841.291 593.901 838.821 592.23 842.781C590.559 846.74 588.011 851.47 588.011 851.47C588.011 851.47 589.294 863.595 582.628 863.997C575.962 864.399 574.353 863.46 572.387 863.166C570.409 862.876 573.471 858 567.898 865.695C562.337 873.387 561.01 874.545 558.42 876.035C555.831 877.525 557.005 885.079 553.294 878.191C549.587 871.314 546.901 869.309 545.172 868.941C543.459 868.582 546.037 872.234 543.459 868.582C540.88 864.929 539.71 863.605 539.71 863.605C539.71 863.605 537.235 858.294 533.743 858.402C530.25 858.509 516.41 859.434 516.41 859.434L529.017 840.409C529.017 840.409 528.019 836.611 525.851 835.549C523.674 834.502 523.993 834.688 521.585 834.769C519.169 834.864 517.48 836.656 511.758 836.54C506.032 836.413 502.912 835.883 501.517 835.71C500.122 835.537 498.195 834.412 496.986 833.92C495.777 833.428 487.635 833.395 487.635 833.395C487.635 833.395 489.282 833.502 486.703 829.849C484.125 826.197 485.358 823.702 482.371 823.677C479.383 823.652 463.963 825.801 463.963 825.801L452.009 825.691C452.009 825.691 447.851 828.402 447.496 831.206C447.152 834.007 448.551 839.332 444.741 840.332C440.931 841.333 436.668 840.564 434.222 842.556C431.765 844.55 433.296 850.379 429.261 852.531C425.223 854.671 422.959 840.914 423.075 855.788C423.191 870.661 425.091 870.701 419.79 873.173C414.478 875.648 412.475 878.345 407.815 881.201C403.14 884.048 400.5 886.373 398.349 887.477C396.198 888.582 396.168 885.339 396.198 888.582C396.239 891.822 396.719 894.676 397.373 896.136C398.023 897.585 404.647 909.399 404.647 909.399C404.647 909.399 407.015 916.358 404.879 918.55C402.741 920.731 394.606 931 394.606 931C394.606 931 391.991 930.338 380.232 929.894C368.465 929.464 371.63 938.385 364.877 927.156C358.136 915.925 348.649 909.744 348.649 909.744L334.072 897.59L331.946 895.708C329.831 893.822 325.445 888.473 322.896 888.064C320.347 887.654 318.564 887.03 315.961 887.444C313.359 887.858 312.482 888.628 307.769 888.247C303.067 887.863 304.276 888.355 300.383 886.936C296.489 885.518 296.651 888.187 294.495 883.061C292.339 877.936 290.216 881.204 290.067 874.473C289.93 867.738 293.034 862.04 293.554 862.995C294.072 863.939 304.258 859.374 311.126 859.741C317.994 860.108 316.625 862.087 320.025 859.575C323.423 857.051 334.32 842.818 334.411 840.083C334.503 837.348 333.074 823.642 328.953 819.302C324.832 814.963 336.198 808.727 337.075 807.957C337.952 807.187 337.919 798.793 334.414 797.825C330.905 796.845 328.17 796.754 323.986 797.313C319.803 797.872 318.025 803.479 310.199 797.414C302.371 791.338 295.929 789.51 293.909 790.04C291.889 790.571 283.445 792.519 281.173 793.116C278.901 793.713 273.361 800.038 270.531 801.873C267.697 803.697 263.304 808.641 263.304 808.641C263.304 808.641 261.604 810.437 258.946 805.456C256.285 800.463 253.667 794.65 252.11 791.808C250.554 788.966 249.118 785.553 245.374 786.806C241.642 788.057 238.246 791.66 232.495 794.519C226.744 797.379 220.81 800.569 217.703 801.116C214.595 801.662 215.858 801.331 212.416 800.603C208.977 799.888 202.319 796.214 202.319 796.214C202.319 796.214 194.826 791.412 191.4 791.772C187.973 792.132 184.108 792.878 183.51 791.673C182.926 790.478 177.009 779.299 177.009 779.299C177.009 779.299 167.434 781.005 164.377 780.716C161.323 780.439 159.225 780.72 156.685 780.296C154.136 779.886 145.007 776.052 145.007 776.052C145.007 776.052 147.271 784.67 138.068 764.063C128.864 743.457 125.703 744.827 123.154 744.417C120.605 744.007 114.841 745.791 113.203 741.609C111.568 737.439 111.407 734.771 110.674 731.982C109.942 729.194 107.984 719.687 105.754 719.463C103.524 719.239 96.6965 716.972 96.6965 716.972L95.3716 701.607L106.972 687.999L96.608 682.589C96.608 682.589 90.9595 677.571 89.7106 674.918C88.4732 672.263 77.3047 652.442 77.3047 652.442L65.3513 652.332C65.3513 652.332 47.593 650.765 45.3743 650.538C43.1441 650.315 31.7983 647.333 31.7983 647.333C31.7983 647.333 26.8633 640.595 24.9985 640.362C23.1337 640.128 20.1039 642.371 17.562 642.315C15.0201 642.259 10.8026 644.09 9.72726 638.595C8.6519 633.101 6.88477 630.67 7.30809 629.479C7.73142 628.289 7.12457 628.08 5.9127 625.148C4.70082 622.216 4.02373 622.393 3.14596 620.453C2.27966 618.509 6.03121 613.549 6.03121 613.549L17.3971 607.313C17.3971 607.313 24.6671 606.127 25.4004 603.408C26.1336 600.688 24.9885 604.596 26.3448 597.382C27.698 590.158 34.6308 524.405 34.6308 524.405C34.6308 524.405 32.7119 519.855 33.7666 515.604C34.8213 511.352 40.6696 511.619 40.9711 508.658C41.2697 505.684 49.5908 510.368 49.5908 510.368L50.923 515.439L44.8546 522.087L43.9215 529.557C43.9215 529.557 45.6427 532 48.8503 530.434C52.0465 528.87 52.6248 526.915 55.6659 526.116C58.7071 525.318 62.9359 524.93 64.1351 525.339C65.3229 525.751 68.4181 529.268 68.4181 529.268C68.4181 529.268 72.4692 528.204 75.0672 525.718C77.6653 523.233 80.2946 523.621 81.8038 522.501C83.3129 521.381 84.6692 514.168 76.3721 514.9C68.075 515.632 70.2381 533.488 58.4856 514.9C46.7446 496.31 42.0831 489.586 42.0831 489.586C42.0831 489.586 40.8312 484.493 42.4781 483.337C44.1134 482.183 46.2342 475.125 46.2228 473.681C46.2 472.239 47.966 470.696 47.5229 469.009C47.0798 467.322 45.5364 465.557 43.2961 462.539C41.0558 459.521 41.2649 463.072 40.6097 457.823L39.9546 452.573C39.9546 452.573 34.3061 447.556 30.4776 446.758C26.6605 445.958 21.8212 438.557 21.7983 437.115C21.7755 435.674 24.2198 420.226 24.2198 420.226C24.2198 420.226 19.8485 409.096 37.7626 404.39C55.6767 399.685 59.1943 396.59 59.1943 396.59C59.1943 396.59 64.5433 397.711 60.6722 392.595C56.798 387.467 57.1963 393.14 54.823 385.459C52.4496 377.778 65.2144 368.648 64.4156 365.607L61.3081 353.777C59.3549 346.341 56.3919 339.171 56.3919 339.171L83.744 294.783L79.8055 270.168C79.8055 270.168 84.2997 270.791 82.048 266.329C79.7963 261.866 78.6845 261.79 78.154 259.771C77.6235 257.751 78.8644 255.61 79.9533 254.245C81.0423 252.879 82.2186 251.846 86.7127 252.469C91.2069 253.092 85.7133 247.31 85.7133 247.31C85.7133 247.31 94.2471 245.424 95.181 244.823C96.1005 244.213 98.6424 244.269 101.706 244.912C104.77 245.555 111.572 248.098 111.572 248.098C111.572 248.098 118.577 245.902 120.696 245.701C122.815 245.5 127.687 248.919 127.687 248.919C127.687 248.919 130.672 250.661 130.883 247.355C131.094 244.049 123.68 240.575 123.082 239.653C122.484 238.73 116.435 236.345 120.063 235.024C123.694 233.715 131.217 232.094 131.217 232.094C131.217 232.094 132.55 237.166 132.848 234.193C133.147 231.219 135.534 232.04 132.783 228.432C130.032 224.825 124.093 224.214 124.093 224.214C124.093 224.214 115.147 220.418 118.532 219.529C121.917 218.64 124.648 220.817 126.68 220.284C128.711 219.75 132.018 226.83 128.711 219.75C125.404 212.67 122.419 210.928 121.496 211.526C120.574 212.124 118.446 212.29 118.446 212.29C118.446 212.29 120.147 213.254 115.405 213.089C110.663 212.924 107.291 215.22 107.291 215.22C107.291 215.22 96.6845 219.208 96.8316 222.15C96.9673 225.096 95.3005 228.698 98.0414 229.511C100.782 230.325 105.36 236.077 103.34 236.608C101.321 237.138 102.174 240.435 99.1765 237.616C96.1787 234.797 92.6181 233.291 91.3158 230.015C90.0051 226.753 88.8976 226.32 90.5759 222.714C92.2426 219.112 94.6353 220.654 92.5302 216.423C90.4252 212.193 87.4428 208.732 84.8965 209.033C82.3532 209.345 77.089 210.274 77.089 210.274C77.089 210.274 72.8697 208.316 74.9036 206.064C76.9375 203.813 81.1479 201.627 81.1479 201.627C81.1479 201.627 86.3135 194.812 87.0883 193.652C87.8661 192.503 87.4729 188.951 88.2438 186.982C89.0148 185.013 85.1127 184.075 90.0996 180.876C95.0866 177.677 95.512 175.934 96.4428 174.34C97.3736 172.747 98.0389 170.609 98.7028 170.288C99.3697 169.977 95.9154 164.58 100.355 169.854C104.784 175.13 108.004 176.787 107.15 180.261C106.296 183.736 108.263 184.778 104.646 187.494C101.029 190.211 99.0076 192.091 96.4027 193.523C93.7979 194.956 90.6576 199.767 90.4296 200.44C90.2016 201.114 86.885 203.199 89.8063 202.971C92.7276 202.744 88.557 203.913 96.8656 201.73C105.174 199.548 131.718 195.421 131.718 195.421L140.89 195.968C140.89 195.968 148.106 186.308 148.272 185.541C148.427 184.776 153.832 179.198 150.776 175.131C147.721 171.064 139.589 164.16 139.589 164.16L165.852 141.732C165.852 141.732 189.549 131.533 190.76 133.386C191.97 135.239 202.778 139.257 210.948 131.874C219.128 124.487 233.537 103.726 233.537 103.726C233.537 103.726 221.127 73.6701 211.495 71.0484C201.863 68.4266 215.064 57.268 215.064 57.268" stroke="#B7B7B7" stroke-width="2" stroke-miterlimit="10"/>
<path d="M418.018 3.95682C418.552 5.98782 424.87 36.3924 421.539 39.1687C418.207 41.9451 411.82 45.5118 407.264 46.7085L393.573 50.3048C393.573 50.3048 387.582 49.1676 391.239 56.8792C394.885 64.5939 394.194 65.0453 396.983 64.3128C399.772 63.5803 400.011 62.4378 401.952 65.7182C403.894 68.9986 403.856 76.0492 403.856 76.0492C403.856 76.0492 402.081 81.6674 406.092 82.503C410.105 83.3501 416.75 91.0865 416.949 91.8438C417.148 92.6011 415.132 94.2222 419.832 93.5273C424.532 92.8325 433.739 92.8551 436.089 92.5076C438.439 92.1602 440.975 91.4939 442.251 92.2384C443.526 92.9829 445.532 95.4366 445.532 95.4366L453.026 100.239C453.026 100.239 465.791 104.467 464.691 108.546C463.591 112.625 462.014 119.001 462.014 119.001C462.014 119.001 460.997 124.42 459.172 120.557C457.351 116.705 456.126 115.126 455.143 113.483C454.17 111.837 449.267 105.544 446.917 105.892C444.566 106.239 443.727 105.098 441.525 107.038C439.321 108.967 436.999 111.478 435.729 116.963C434.459 122.449 432.121 123.872 434.794 128.862C437.455 133.854 435.435 134.385 439.18 134.211C442.925 134.037 450.243 134.016 454.067 135.17C457.895 136.336 469.248 134.163 464.181 146.865C459.117 159.578 456.85 171.545 456.85 171.545C456.85 171.545 459.962 155.554 472.676 160.616C485.39 165.679 492.807 175.372 493.725 177.841C494.644 180.311 505.039 194.103 505.039 194.103L510.13 221.751C510.13 221.751 520.739 237.388 526.781 237.69C532.825 238.004 531.04 253.904 531.04 253.904L544.091 266.459C544.091 266.459 542.593 269.023 544.145 270.775C545.688 272.54 551.174 273.81 553.19 272.189C555.208 270.579 553.702 266.902 556.044 266.57C558.394 266.222 559.155 271.174 563.19 269.022C567.229 266.882 565.598 257.546 568.109 254.728C570.617 251.898 576.247 249.61 576.247 249.61C576.247 249.61 582.731 254.677 586.558 255.843C590.385 257.009 592.463 265.945 592.463 265.945C592.463 265.945 595.583 266.475 599.502 264.906C603.42 263.337 604.106 256.656 606.391 261.195C608.666 265.749 613.591 284.499 614.295 285.123C614.999 285.748 630.233 283.917 630.233 283.917L632.464 300.676L628.749 309.232L638.005 302.201C638.005 302.201 639.49 298.561 642.026 297.894C644.562 297.228 647.417 296.748 648.241 296.802C649.065 296.855 647.091 306.855 646.471 308.65C645.859 310.43 643.012 322.291 648.35 321.968C653.687 321.645 655.412 316.862 657.593 319C659.774 321.138 662.26 326.447 662.923 328.971L666.917 344.175C666.917 344.175 667.721 353.446 686.795 353.857C705.869 354.268 733.028 350.385 733.028 350.385L736.83 354.538C736.83 354.538 737.708 358.907 743.112 353.698C748.515 348.488 750.426 348.526 754.254 349.692C758.081 350.857 764.813 350.708 767.35 350.042C769.886 349.376 773.204 345.523 777.532 345.466C781.848 345.412 786.725 348.473 789.461 348.564C792.196 348.655 808.763 373.57 808.763 373.57C808.763 373.57 817.068 382.49 817.867 385.531C818.666 388.571 820.814 403.99 820.814 403.99L831.006 410.795C831.006 410.795 845.822 421.807 845.398 424.347C844.988 426.895 845.238 443.353 845.238 443.353L849.914 446.724C849.914 446.724 873.437 447.586 874.711 447.251C875.985 446.917 892.548 445.007 892.548 445.007C892.548 445.007 899.224 447.583 900.803 447.991C902.379 448.386 905.767 449.937 905.767 449.937C905.767 449.937 897.604 458.043 897.766 461.79C897.94 465.535 898.395 471.377 898.395 471.377L885.341 495.941L873.098 502.947C873.098 502.947 873.116 510.253 875.048 517.608C876.98 524.964 881.823 542.373 880.06 543.928C878.294 545.471 879.499 561.407 879.499 561.407C879.499 561.407 908.01 553.378 923.271 575.374C938.532 597.37 944.623 612.293 946.052 620.86C947.492 629.424 951.019 659.384 950.46 660.34C949.902 661.296 941.11 681.49 941.11 681.49L925.012 701.702C925.012 701.702 923.966 704.957 924.155 709.789C924.342 714.61 910.973 718.404 910.973 718.404L896.854 717.243C896.854 717.243 890.731 715.601 889.311 718.415C887.879 721.232 885.372 729.201 885.372 729.201L876.245 726.447C876.245 726.447 874.01 719.993 871.545 727.142C869.091 734.287 869.093 735.366 869.055 737.277C869.017 739.189 869.155 745.924 866.047 746.47C862.94 747.016 856.643 746.769 853.788 747.249C850.933 747.729 851.185 747.663 845.832 746.898C840.478 746.133 841.98 748.72 840.283 750.527C838.583 752.323 844.154 754.944 837.403 753.994C830.655 753.056 835.007 750.011 828.503 754.161C822.011 758.307 824.069 755.865 820.018 756.929C815.967 757.994 815.78 758.312 814.494 762.71C813.208 767.108 801.982 763.556 813.208 767.108C824.434 770.661 826.494 772.291 824.889 776.503C823.284 780.714 827.803 786.568 819.994 786.73C812.171 786.884 806.323 781.109 806.323 781.109L793.802 786.03L777.823 783.996C777.823 783.996 776.863 778.287 771.922 779.045C766.969 779.806 769.055 783.588 764.326 782.12C759.609 780.648 755.914 774.847 755.914 774.847L748.839 784.017C748.839 784.017 745.583 807.724 744.801 806.801C744.019 805.878 739.998 810.185 739.998 810.185C739.998 810.185 739.208 823.664 739.238 826.907C739.279 830.147 738.58 835.752 734.343 837.135C730.106 838.518 720.916 840.662 720.916 840.662C720.916 840.662 718.26 841.899 716.005 844.663C713.749 847.426 717.362 846.747 710.427 846.128C703.493 845.508 704.725 841.934 699.442 846.573C694.158 851.211 691.038 855.821 689.607 858.638C688.175 861.455 687.725 865.903 686.508 870.565C685.288 875.215 686.327 877.114 681.543 875.39C676.76 873.665 674.835 872.552 663.97 872.425C653.104 872.299 651.812 865.327 651.812 865.327C651.812 865.327 653.455 859.204 638.405 854.497C623.352 849.779 623.977 849.075 620.815 845.306C617.654 841.536 615.73 829.027 613.864 838.459C612.011 847.889 614.192 850.026 610.816 849.552C607.44 849.077 607.866 847.616 603.455 845.254C599.044 842.892 599.416 842.255 597.116 841.767C594.82 841.291 593.901 838.821 592.23 842.781C590.559 846.74 588.011 851.47 588.011 851.47C588.011 851.47 589.294 863.595 582.628 863.997C575.962 864.399 574.353 863.46 572.387 863.166C570.409 862.876 573.471 858 567.898 865.695C562.337 873.387 561.01 874.545 558.42 876.035C555.831 877.525 557.005 885.079 553.294 878.191C549.587 871.314 546.901 869.309 545.172 868.941C543.459 868.582 546.037 872.234 543.459 868.582C540.88 864.929 539.71 863.605 539.71 863.605C539.71 863.605 537.235 858.294 533.743 858.402C530.25 858.509 516.41 859.434 516.41 859.434L529.017 840.409C529.017 840.409 528.019 836.611 525.851 835.549C523.674 834.502 523.993 834.688 521.585 834.769C519.169 834.864 517.48 836.656 511.758 836.54C506.032 836.413 502.912 835.883 501.517 835.71C500.122 835.537 498.195 834.412 496.986 833.92C495.777 833.428 487.635 833.395 487.635 833.395C487.635 833.395 489.282 833.502 486.703 829.849C484.125 826.197 485.358 823.702 482.371 823.677C479.383 823.652 463.963 825.801 463.963 825.801L452.009 825.691C452.009 825.691 447.851 828.402 447.496 831.206C447.152 834.007 448.551 839.332 444.741 840.332C440.931 841.333 436.668 840.564 434.222 842.556C431.765 844.55 433.296 850.379 429.261 852.531C425.223 854.671 422.959 840.914 423.075 855.788C423.191 870.661 425.091 870.701 419.79 873.173C414.478 875.648 412.475 878.345 407.815 881.201C403.14 884.048 400.5 886.373 398.349 887.477C396.198 888.582 396.168 885.339 396.198 888.582C396.239 891.822 396.719 894.676 397.373 896.136C398.023 897.585 404.647 909.399 404.647 909.399C404.647 909.399 407.015 916.358 404.879 918.55C402.741 920.731 394.606 931 394.606 931C394.606 931 391.991 930.338 380.232 929.894C368.465 929.464 371.63 938.385 364.877 927.156C358.136 915.925 348.649 909.744 348.649 909.744L334.072 897.59L331.946 895.708C329.831 893.822 325.445 888.473 322.896 888.064C320.347 887.654 318.564 887.03 315.961 887.444C313.359 887.858 312.482 888.628 307.769 888.247C303.067 887.863 304.276 888.355 300.383 886.936C296.489 885.518 296.651 888.187 294.495 883.061C292.339 877.936 290.216 881.204 290.067 874.473C289.93 867.738 293.034 862.04 293.554 862.995C294.072 863.939 304.258 859.374 311.126 859.741C317.994 860.108 316.625 862.087 320.025 859.575C323.423 857.051 334.32 842.818 334.411 840.083C334.503 837.348 333.074 823.642 328.953 819.302C324.832 814.963 336.198 808.727 337.075 807.957C337.952 807.187 337.919 798.793 334.414 797.825C330.905 796.845 328.17 796.754 323.986 797.313C319.803 797.872 318.025 803.479 310.199 797.414C302.371 791.338 295.929 789.51 293.909 790.04C291.889 790.571 283.445 792.519 281.173 793.116C278.901 793.713 273.361 800.038 270.531 801.873C267.697 803.697 263.304 808.641 263.304 808.641C263.304 808.641 261.604 810.437 258.946 805.456C256.285 800.463 253.667 794.65 252.11 791.808C250.554 788.966 249.118 785.553 245.374 786.806C241.642 788.057 238.246 791.66 232.495 794.519C226.744 797.379 220.81 800.569 217.703 801.116C214.595 801.662 215.858 801.331 212.416 800.603C208.977 799.888 202.319 796.214 202.319 796.214C202.319 796.214 194.826 791.412 191.4 791.772C187.973 792.132 184.108 792.878 183.51 791.673C182.926 790.478 177.009 779.299 177.009 779.299C177.009 779.299 167.434 781.005 164.377 780.716C161.323 780.439 159.225 780.72 156.685 780.296C154.136 779.886 145.007 776.052 145.007 776.052C145.007 776.052 147.271 784.67 138.068 764.063C128.864 743.457 125.703 744.827 123.154 744.417C120.605 744.007 114.841 745.791 113.203 741.609C111.568 737.439 111.407 734.771 110.674 731.982C109.942 729.194 107.984 719.687 105.754 719.463C103.524 719.239 96.6965 716.972 96.6965 716.972L95.3716 701.607L106.972 687.999L96.608 682.589C96.608 682.589 90.9595 677.571 89.7106 674.918C88.4732 672.263 77.3047 652.442 77.3047 652.442L65.3513 652.332C65.3513 652.332 47.593 650.765 45.3743 650.538C43.1441 650.315 31.7983 647.333 31.7983 647.333C31.7983 647.333 26.8633 640.595 24.9985 640.362C23.1337 640.128 20.1039 642.371 17.562 642.315C15.0201 642.259 10.8026 644.09 9.72726 638.595C8.6519 633.101 6.88477 630.67 7.30809 629.479C7.73142 628.289 7.12457 628.08 5.9127 625.148C4.70082 622.216 4.02373 622.393 3.14596 620.453C2.27966 618.509 6.03121 613.549 6.03121 613.549L17.3971 607.313C17.3971 607.313 24.6671 606.127 25.4004 603.408C26.1336 600.688 24.9885 604.596 26.3448 597.382C27.698 590.158 34.6308 524.405 34.6308 524.405C34.6308 524.405 32.7119 519.855 33.7666 515.604C34.8213 511.352 40.6696 511.619 40.9711 508.658C41.2697 505.684 49.5908 510.368 49.5908 510.368L50.923 515.439L44.8546 522.087L43.9215 529.557C43.9215 529.557 45.6427 532 48.8503 530.434C52.0465 528.87 52.6248 526.915 55.6659 526.116C58.7071 525.318 62.9359 524.93 64.1351 525.339C65.3229 525.751 68.4181 529.268 68.4181 529.268C68.4181 529.268 72.4692 528.204 75.0672 525.718C77.6653 523.233 80.2946 523.621 81.8038 522.501C83.3129 521.381 84.6692 514.168 76.3721 514.9C68.075 515.632 70.2381 533.488 58.4856 514.9C46.7446 496.31 42.0831 489.586 42.0831 489.586C42.0831 489.586 40.8312 484.493 42.4781 483.337C44.1134 482.183 46.2342 475.125 46.2228 473.681C46.2 472.239 47.966 470.696 47.5229 469.009C47.0798 467.322 45.5364 465.557 43.2961 462.539C41.0558 459.521 41.2649 463.072 40.6097 457.823L39.9546 452.573C39.9546 452.573 34.3061 447.556 30.4776 446.758C26.6605 445.958 21.8212 438.557 21.7983 437.115C21.7755 435.674 24.2198 420.226 24.2198 420.226C24.2198 420.226 19.8485 409.096 37.7626 404.39C55.6767 399.685 59.1943 396.59 59.1943 396.59C59.1943 396.59 64.5433 397.711 60.6722 392.595C56.798 387.467 57.1963 393.14 54.823 385.459C52.4496 377.778 65.2144 368.648 64.4156 365.607L61.3081 353.777C59.3549 346.341 56.3919 339.171 56.3919 339.171L83.744 294.783L79.8055 270.168C79.8055 270.168 84.2997 270.791 82.048 266.329C79.7963 261.866 78.6845 261.79 78.154 259.771C77.6235 257.751 78.8644 255.61 79.9533 254.245C81.0423 252.879 82.2186 251.846 86.7127 252.469C91.2069 253.092 85.7133 247.31 85.7133 247.31C85.7133 247.31 94.2471 245.424 95.181 244.823C96.1005 244.213 98.6424 244.269 101.706 244.912C104.77 245.555 111.572 248.098 111.572 248.098C111.572 248.098 118.577 245.902 120.696 245.701C122.815 245.5 127.687 248.919 127.687 248.919C127.687 248.919 130.672 250.661 130.883 247.355C131.094 244.049 123.68 240.575 123.082 239.653C122.484 238.73 116.435 236.345 120.063 235.024C123.694 233.715 131.217 232.094 131.217 232.094C131.217 232.094 132.55 237.166 132.848 234.193C133.147 231.219 135.534 232.04 132.783 228.432C130.032 224.825 124.093 224.214 124.093 224.214C124.093 224.214 115.147 220.418 118.532 219.529C121.917 218.64 124.648 220.817 126.68 220.284C128.711 219.75 132.018 226.83 128.711 219.75C125.404 212.67 122.419 210.928 121.496 211.526C120.574 212.124 118.446 212.29 118.446 212.29C118.446 212.29 120.147 213.254 115.405 213.089C110.663 212.924 107.291 215.22 107.291 215.22C107.291 215.22 96.6845 219.208 96.8316 222.15C96.9673 225.096 95.3005 228.698 98.0414 229.511C100.782 230.325 105.36 236.077 103.34 236.608C101.321 237.138 102.174 240.435 99.1765 237.616C96.1787 234.797 92.6181 233.291 91.3158 230.015C90.0051 226.753 88.8976 226.32 90.5759 222.714C92.2426 219.112 94.6353 220.654 92.5302 216.423C90.4252 212.193 87.4428 208.732 84.8965 209.033C82.3532 209.345 77.089 210.274 77.089 210.274C77.089 210.274 72.8697 208.316 74.9036 206.064C76.9375 203.813 81.1479 201.627 81.1479 201.627C81.1479 201.627 86.3135 194.812 87.0883 193.652C87.8661 192.503 87.4729 188.951 88.2438 186.982C89.0148 185.013 85.1127 184.075 90.0996 180.876C95.0866 177.677 95.512 175.934 96.4428 174.34C97.3736 172.747 98.0389 170.609 98.7028 170.288C99.3697 169.977 95.9154 164.58 100.355 169.854C104.784 175.13 108.004 176.787 107.15 180.261C106.296 183.736 108.263 184.778 104.646 187.494C101.029 190.211 99.0076 192.091 96.4027 193.523C93.7979 194.956 90.6576 199.767 90.4296 200.44C90.2016 201.114 86.885 203.199 89.8063 202.971C92.7276 202.744 88.557 203.913 96.8656 201.73C105.174 199.548 131.718 195.421 131.718 195.421L140.89 195.968C140.89 195.968 148.106 186.308 148.272 185.541C148.427 184.776 153.832 179.198 150.776 175.131C147.721 171.064 139.589 164.16 139.589 164.16L165.852 141.732C165.852 141.732 189.549 131.533 190.76 133.386C191.97 135.239 202.778 139.257 210.948 131.874C219.128 124.487 233.537 103.726 233.537 103.726C233.537 103.726 221.127 73.6701 211.495 71.0484C201.863 68.4266 215.064 57.268 215.064 57.268" stroke="#06CDCC" stroke-width="2" stroke-miterlimit="10"/>
<path d="M905.912 450.488C905.912 450.488 919.648 446.88 923.699 445.815" stroke="#B7B7B7" stroke-width="2" stroke-miterlimit="10"/>
<path d="M334.702 798.829C334.702 798.829 333.005 784.101 329.243 778.048C325.482 771.995 318.025 764.202 320.744 758.066C323.462 751.931 326.636 751.637 325.333 748.729C324.029 745.82 312.294 732.11 312.294 732.11C312.294 732.11 318.95 714.109 320.476 713.708C322.003 713.307 348.728 716.039 348.728 716.039L365.084 701.991L395.732 713.444C395.732 713.444 407.685 713.554 411.84 710.832C416.01 708.117 421.014 702.46 425.581 701.261C430.149 700.061 443.645 701.937 443.645 701.937C443.645 701.937 450.358 711.005 452.153 711.626C453.933 712.237 461.968 713.917 461.968 713.917L458.497 731.621C458.497 731.621 459.954 747.491 472.889 745.173C485.824 742.855 494.89 756.726 494.89 756.726L492.598 766.541C492.598 766.541 494.492 755.212 504.221 771.608C513.954 788.015 510.479 795.429 510.479 795.429C510.479 795.429 507.29 816.309 505.27 816.84C503.251 817.371 496.201 823.552 500.281 824.652C504.36 825.751 513.405 827.166 513.405 827.166L523.207 834.686" stroke="#B1B2B3" stroke-miterlimit="10"/>
<path d="M620.364 844.615L642.254 824.783L636.13 801.467C636.13 801.467 670.604 792.411 670.023 775.771C669.443 759.131 675.677 727.147 675.677 727.147C675.677 727.147 692.818 693.389 694.849 692.855C696.88 692.322 726.733 680.15 726.733 680.15C726.733 680.15 729.853 675.54 733.879 682.603C737.909 689.677 734.538 695.432 740.355 692.825C746.172 690.217 748.307 688.025 751.427 683.415C754.547 678.806 768.854 663.125 774.986 676.148C781.118 689.171 798.054 691.763 798.054 691.763L811.347 686.652C811.347 686.652 815.523 696.386 825.341 698.689C835.16 700.992 844.842 702.779 853.159 707.635C861.477 712.491 873.824 724.421 873.824 724.421" stroke="#B1B2B3" stroke-miterlimit="10"/>
<path d="M850.311 447.209L846.675 451.954L840.249 456.353C840.249 456.353 846.431 463.401 842.513 464.97C838.594 466.539 807.981 490.294 805.234 494.266C802.486 498.238 793.853 521.089 791.833 521.619C789.814 522.15 787.406 513.031 779.941 515.531C772.465 518.035 752.298 532.004 752.298 532.004C752.298 532.004 749.931 525.046 745.235 515.436C740.542 505.837 740.765 502.528 738.734 503.062C736.702 503.595 715.232 514.657 711.591 513.172C707.95 511.688 703.117 511.878 694.614 512.48C686.103 513.096 690.551 534.142 675.54 512.068C660.532 490.006 635.956 464.495 635.956 464.495C635.956 464.495 629.34 464.062 628.993 456.573C628.645 449.084 629.104 444.621 628.81 441.447C628.516 438.274 626.786 431.688 626.786 431.688C626.786 431.688 638.188 417.322 646.022 414.172C653.87 411.031 654.838 385.852 654.838 385.852C654.838 385.852 640.045 370.774 641.531 368.212C643.029 365.648 664.941 337.678 664.941 337.678" stroke="#B1B2B3" stroke-miterlimit="10"/>
<path d="M542.908 273.307C527.45 282.225 521.393 291.765 518.804 299.142C516.505 305.708 516.948 310.571 512.266 315.493C506.379 321.664 501.42 318.477 491.139 323.754C477.332 330.828 475.863 341.91 467.576 341.326C464.039 341.078 463.83 339.023 455.791 333.591C447.172 327.771 440.22 323.072 433.046 323.313C420.204 323.742 410.891 339.804 410.091 339.094C409.53 338.591 414.962 331.203 415.081 331.282C415.261 331.407 405.832 348.333 391.005 359.281C386.021 362.957 381.603 365.099 378.246 366.423C375.791 367.399 370.257 369.588 365.576 369.751C354.466 370.142 352.515 358.977 334.431 348.137C329.712 345.304 319.405 339.131 304.937 336.921C296.913 335.704 280.075 337.735 279.64 336.218C278.974 333.964 300.004 326.735 340.357 310.824C339.991 306.394 338.931 299.84 335.564 292.58C334.43 290.13 334.073 289.843 333.222 287.773C330.636 281.522 328.026 269.904 332.836 265.66C335.756 263.09 340.373 264.134 348.096 265.982C363.612 269.707 365.774 275.322 371.834 273.828C373.989 273.299 376.092 272.01 388.223 251.639C396.471 237.782 395.917 237.683 398.454 234.87C408.279 223.936 415.255 227.095 421.143 218.079C427.291 208.65 422.835 200.375 429.02 196.506C434.331 193.185 439.406 198.169 445.662 195.925C450.72 194.118 456.159 187.734 458.422 168.188" stroke="#B1B2B3" stroke-miterlimit="10"/>
<path d="M395.39 64.4614C394.806 66.8596 393.897 70.3121 392.582 74.4112C390.276 81.6529 389.127 85.2666 387.025 88.3333C383.58 93.3843 381.633 92.5097 376.724 98.6199C372.6 103.751 373.483 104.966 370.236 108.996C364.396 116.234 358.935 115.571 354.224 120.243C348.339 126.094 353.605 131.335 349.298 144.831C346.313 154.201 343.871 152.659 339.985 162.99C335.677 174.426 338.248 177.442 333.572 190.14C330.625 198.114 328.007 204.96 322.571 206.032C317.989 206.941 313.227 203.383 310.812 200.448C307.194 196.063 307.961 192.022 306.181 184.872C304.286 177.286 301.026 172.206 297.71 167.054C291.027 156.653 285.479 155.425 275.208 145.329C265.252 135.543 266.89 132.904 258.047 123.292C252.934 117.742 244.736 110.119 232.121 103.006" stroke="#B1B2B3" stroke-miterlimit="10"/>
<path d="M128.681 249.013C130.388 250 133.083 251.807 135.444 254.817C142.267 263.513 139.309 274.201 143.656 275.059C148.482 276.011 152.302 267.292 157.141 268.622C163.291 270.318 165.496 286.654 165.496 286.654C172.91 293.673 180.06 297.168 184.628 298.961C191.209 301.55 197.114 302.17 208.925 303.422C220.86 304.678 225.471 303.97 227.737 303.534C235.699 301.995 237.292 299.233 241.577 298.451C259.327 295.224 285.094 331.854 278.686 340.713C275.69 344.861 267.932 339.797 259.085 345.862C251.383 351.148 249.352 360.415 248.617 363.785C248.202 365.66 245.62 377.501 251.766 386.791C253.679 389.686 254.804 389.857 256.249 392.838C258.923 398.392 258.164 404.332 256.959 409.273C252.707 426.618 243.853 428.171 239.41 444.229C236.427 455.01 239.415 457.978 235.056 463.429C228.08 472.18 215.488 470.666 215.021 475.193C214.626 479.013 223.658 479.303 229.239 488.079C233.124 494.185 230.558 496.883 234.92 509.709C238.156 519.224 239.962 518.86 239.825 522.87C239.478 533.179 227.333 543.361 216.017 545.021C212.448 545.541 212.438 544.71 208.902 545.443C200.329 547.228 194.962 553.275 190.576 558.205C186.308 563.018 184.17 565.481 184.594 568.448C185.234 572.941 190.679 573.167 192.161 578.016C193.793 583.34 188.278 586.444 186.933 593.839C185.316 602.629 191.709 605.856 193.114 614.613C196.241 634.179 170.884 658.981 157.67 655.706C153.981 654.786 151.937 651.863 148.992 652.931C143.917 654.767 146.332 664.805 140.2 668.967C135.972 671.832 132.178 668.878 125.97 669.81C120.776 670.586 113.574 674.133 106.012 687.331" stroke="#B1B2B3" stroke-miterlimit="10"/>
<path d="M316.592 719.61C292.013 697.682 288.755 684.297 291.035 675.933C292.966 668.851 301.564 655.394 309.24 646.226C311.527 643.491 314.777 639.89 316.339 634.07C317.709 628.963 317.2 624.362 316.397 617.802C315.902 613.725 315.315 610.788 313.678 603.343C310.539 589.104 308.942 581.857 306.995 575.843C304.64 568.562 303.475 564.918 301.619 561.542C299.598 557.866 296.462 553.305 277.698 538.57C262.487 526.62 258.646 524.979 254.39 524.098C247.726 522.732 241.941 523.639 238.253 524.546" stroke="#B1B2B3" stroke-miterlimit="10"/>
<path d="M300.208 560.281C303.256 552.501 307.224 547.62 310.188 544.658C312.753 542.095 315.923 539.729 322.281 534.98C329.655 529.473 329.273 530.261 330.473 529.038C339.078 520.227 330.74 508.054 337.642 500.61C340.759 497.252 348.933 497.031 365.306 496.594C372.591 496.398 377.847 496.281 385.018 497.378C392.341 498.496 399.184 499.606 406.327 504.243C410.35 506.854 415.347 510.092 417.531 515.934C420.587 524.11 414.376 527.275 415.364 536.546C416.899 550.887 432.892 553.813 432.901 568.235C432.903 569.597 432.847 574.567 429.853 579.328C425.416 586.393 419.641 584.868 416.51 590.413C412.256 597.946 417.635 610.063 423.938 616.638C426.843 619.665 429.808 621.376 430.741 621.892C440.028 627.033 446.699 623.796 451.412 628.385C454.673 631.551 454.779 636.295 454.847 639.405C455.136 652.135 444.417 654.62 442.857 668.019C441.977 675.598 445.175 676.843 444.369 688.205C443.946 694.253 442.675 699.175 441.614 702.471" stroke="#B1B2B3" stroke-miterlimit="10"/>
<path d="M504.1 773.295C506.509 755.563 512.741 747.952 518.759 744.52C528.169 739.153 535.024 745.166 545.015 739.254C555.343 733.131 552.033 724.31 564.151 713.093C569.38 708.248 575.215 705.709 586.883 700.62C602.965 693.612 605.675 695.243 619.909 688.155C630.051 683.099 635.715 680.188 639.943 673.68C642.25 670.131 643.066 667.168 646.936 663.171C651.397 658.577 654.739 657.945 659.43 655.02C671.48 647.463 669.437 639.033 677.627 635.606C688.538 631.047 705.196 640.569 704.969 646.848C704.751 652.744 689.712 653.309 689.358 659.621C688.959 666.742 707.666 674.818 722.241 677.528C725.065 678.049 727.416 678.315 728.989 678.466" stroke="#B1B2B3" stroke-miterlimit="10"/>
<path d="M672.728 639.604C671.319 627.892 673.752 620.199 676.127 615.417C679.843 607.94 683.27 607.911 688.883 597.985C694.72 587.657 693.519 583.225 698.329 580.33C704.601 576.561 711.016 581.413 717.536 581.246C726.65 581.011 738.511 570.867 752.025 531.009" stroke="#B1B2B3" stroke-miterlimit="10"/>
<path d="M646.205 661.744C642.428 658.48 637.641 653.334 634.831 645.952C630.895 635.591 634.85 631.264 631.215 626.675C623.157 616.501 598.134 630.617 588.93 619.726C584.549 614.535 589.065 609.964 584.347 605.033C576.397 596.719 561.929 608.1 546.644 599.039C542.415 596.532 539.452 593.238 535.223 594.091C531.668 594.804 530.13 597.869 526.687 602.834C520.962 611.072 513.956 621.155 503.733 625.484C499.515 627.267 499.79 625.931 492.246 628.502C482.841 631.696 480.537 634.411 475.387 635.825C470.809 637.077 463.736 637.377 453.477 632.184" stroke="#B1B2B3" stroke-miterlimit="10"/>
<path d="M546.687 601.911C553.438 594.127 559.604 588.643 563.948 585.098C569.212 580.808 574.981 576.754 583.584 569.109C593.042 560.7 594.075 558.466 593.939 556.269C593.662 551.619 588.344 550.661 580.035 541.866C574.558 536.055 571.491 530.776 569.871 527.927C565.031 519.446 559.555 509.857 562.982 504.455C566.485 498.923 575.403 503.965 586.279 496.889C588.132 495.678 596.377 490.311 596.958 482.528C597.622 473.473 587.334 468.963 589.28 464.318C591.157 459.838 602.349 460.223 614.32 460.636C620.968 460.864 626.539 461.523 630.613 462.133" stroke="#B1B2B3" stroke-miterlimit="10"/>
<path d="M562.623 503.09C555.228 503.192 545.504 502.042 536.952 496.107C522.22 485.883 521.235 468.637 510.684 467.607C504.25 466.978 503.464 473.281 493.148 475.108C483.921 476.734 481.278 472.277 467.334 470.333C451.632 468.141 439.43 471.616 439.376 471.176C439.334 470.783 449.051 469.383 449.199 470.043C449.404 471.008 428.575 472.836 426.29 481.839C424.929 487.213 431.241 490.879 429.841 495.356C428.734 498.897 422.942 502.393 402.803 502.458" stroke="#B1B2B3" stroke-miterlimit="10"/>
<path d="M500.218 471.803C499.672 469.726 498.64 466.637 496.558 463.381C493.842 459.114 491.383 457.736 487.458 453.493C482.523 448.153 480.042 445.48 479.535 442.571C478.045 434.143 489.069 429.874 489.082 418.389C489.081 415.814 488.256 413.516 486.596 408.923C481.236 394.077 474.779 392.891 473.234 382.809C472.785 379.885 473.555 381.461 473.735 368.228C473.85 360.445 473.591 358.759 473.736 354.502C473.898 349.933 474.483 343.241 476.558 334.981" stroke="#B1B2B3" stroke-miterlimit="10"/>
<path fill-rule="evenodd" clip-rule="evenodd" d="M381.042 442.218L385.309 449.401C385.309 449.401 389.273 448.753 391.396 450.44C393.52 452.126 394.071 454.128 394.071 454.128C394.071 454.128 399.917 454.433 402.024 452.039C404.119 449.649 403.716 449.142 404.405 446.814C405.094 444.486 409.853 442.942 405.163 440.641C400.474 438.34 401.105 438.174 398.899 437.527C396.681 436.883 398.141 438.475 395.243 434.354C389.488 426.175 391.994 422.732 385.748 422.398C379.502 422.064 375.661 425.048 375.661 425.048C375.661 425.048 371.622 428.403 371.966 429.711C372.31 431.019 375.391 437.238 375.391 437.238L381.042 442.218Z" fill="#04CDCC"/>
</g>
</g>
<defs>
<clipPath id="clip0_415_23">
<rect width="958" height="934" fill="white"/>
</clipPath>
<clipPath id="clip1_415_23">
<rect width="913.516" height="936.177" fill="white" transform="translate(109.086 1028.39) rotate(-104.718)"/>
</clipPath>
</defs>
</svg>
