<svg width="1919" height="85" viewBox="0 0 1919 85" fill="none" xmlns="http://www.w3.org/2000/svg">
<g clip-path="url(#clip0_5_280)">
<path d="M3014 106.092C3014 106.092 3010.66 106.336 3007.27 107.098C3005.21 107.556 3000.96 104.172 2997.02 103.806C2993.08 103.44 2992.41 104.568 2990.47 104.934C2988.47 105.3 2987.19 105.3 2983.92 104.568C2980.64 103.806 2974.7 104.202 2971.42 104.202C2968.15 104.202 2963.3 100.696 2960.69 102.617C2958.08 104.507 2950.86 105.666 2948.86 104.903C2946.86 104.141 2940.25 99.3854 2938.25 100.513C2936.25 101.672 2931.7 102.404 2929.09 102.038C2926.48 101.672 2924.48 105.086 2921.87 105.086C2919.27 105.086 2916.6 105.849 2913.99 104.721C2911.32 103.593 2911.99 104.721 2908.05 105.849C2904.1 106.977 2900.83 107.373 2898.22 106.214C2895.61 105.086 2892.34 104.324 2889.06 105.086C2885.79 105.849 2877.9 105.452 2875.29 106.611C2872.63 107.739 2869.41 108.135 2868.08 109.659C2866.74 111.184 2861.53 111.946 2858.86 109.659C2856.25 107.373 2852.91 106.611 2849.64 107.373C2846.36 108.135 2843.09 109.659 2839.15 108.501C2835.21 107.373 2829.26 106.611 2825.99 108.867C2822.71 111.153 2818.77 110.757 2815.49 111.153C2812.22 111.519 2808.94 111.519 2805.67 112.281C2802.39 113.043 2795.18 114.171 2795.18 114.171C2795.18 114.171 2790.57 117.982 2788.63 118.744C2786.62 119.506 2781.41 119.506 2780.74 118.348C2780.07 117.22 2770.25 116.824 2770.25 116.824C2770.25 116.824 2760.42 118.714 2757.15 119.11C2753.87 119.476 2749.26 121.762 2746.66 122.159C2743.99 122.555 2740.11 122.921 2735.5 122.159C2730.89 121.397 2726.95 122.555 2721.73 122.555C2716.51 122.555 2712.51 122.159 2709.9 122.555C2707.3 122.921 2702.69 122.159 2705.29 121.031C2707.9 119.903 2702.02 118.744 2702.02 118.744C2702.02 118.744 2700.08 116.092 2698.08 117.616C2696.07 119.141 2694.13 120.269 2690.19 120.269C2686.25 120.269 2682.97 120.269 2680.37 121.031C2677.7 121.793 2681.03 118.744 2677.7 118.744C2674.36 118.744 2673.09 118.744 2671.15 121.031C2669.21 123.317 2664.6 123.683 2664.6 123.683C2664.6 123.683 2660.66 120.634 2659.32 121.762C2657.99 122.921 2652.77 124.049 2649.5 124.415C2646.22 124.811 2642.95 122.128 2641.61 123.287C2640.28 124.415 2637.67 125.177 2635.06 125.177C2632.45 125.177 2624.57 124.415 2624.57 124.415C2624.57 124.415 2619.29 123.287 2616.02 123.287C2612.74 123.287 2608.13 124.049 2606.19 124.811C2604.25 125.573 2596.37 125.939 2594.37 125.939C2592.36 125.939 2583.21 124.811 2581.26 124.811C2579.32 124.811 2572.05 122.921 2568.77 122.525C2565.5 122.128 2563.49 122.525 2558.95 121.397C2554.4 120.269 2552.4 120.634 2548.45 119.506C2544.51 118.348 2541.9 120.269 2539.9 119.141C2537.9 117.982 2535.29 117.982 2533.35 119.141C2531.35 120.269 2530.68 120.665 2527.47 119.903C2524.19 119.141 2519.58 118.378 2516.98 118.378H2506.48C2504.48 118.378 2501.21 116.854 2501.21 116.854C2501.21 116.854 2497.93 117.25 2495.93 117.982C2493.99 118.744 2491.99 119.506 2490.05 117.982C2488.11 116.458 2483.5 115.33 2482.83 116.458C2482.16 117.586 2480.22 119.11 2476.89 118.348C2473.61 117.586 2469 118.744 2469 118.744C2469 118.744 2462.45 119.11 2460.45 118.348C2458.51 117.586 2453.23 116.061 2451.23 116.824C2449.29 117.586 2442.07 120.634 2442.07 120.634C2442.07 120.634 2432.86 122.159 2431.58 121.031C2430.31 119.903 2428.97 119.506 2427.64 118.378C2426.3 117.25 2423.7 118.013 2420.42 116.854C2417.09 115.726 2413.81 114.964 2413.81 114.964C2413.81 114.964 2407.26 115.33 2405.32 115.726C2403.38 116.092 2400.77 117.25 2398.77 118.775C2396.83 120.299 2394.16 121.061 2390.22 121.061C2386.28 121.061 2380.39 122.189 2376.45 122.189C2372.51 122.189 2372.51 121.061 2369.9 119.141C2367.29 117.25 2358.07 116.488 2356.13 116.488C2354.19 116.488 2350.25 116.092 2346.91 116.092C2343.58 116.092 2339.7 119.141 2335.76 119.141C2331.81 119.141 2325.26 117.25 2325.26 117.25C2325.26 117.25 2320.05 117.647 2316.71 117.647C2313.38 117.647 2311.43 116.519 2308.16 116.519C2304.88 116.519 2302.88 115.757 2300.27 115.391C2297.67 115.025 2294.33 114.263 2291.06 114.629C2287.78 114.994 2283.84 115.757 2281.23 115.757C2278.62 115.757 2278.62 115.391 2274.01 115.757C2269.4 116.122 2267.46 118.043 2266.8 116.519C2266.13 114.994 2268.74 116.122 2266.13 114.994C2263.52 113.866 2258.91 113.866 2256.91 113.866C2254.91 113.866 2249.69 115.757 2247.75 116.519C2245.75 117.281 2242.48 118.409 2240.54 118.409C2238.59 118.409 2237.26 116.122 2234.65 116.519C2232.04 116.885 2228.1 119.567 2224.16 118.805C2220.22 118.043 2215 117.281 2213 117.281C2211 117.281 2207.12 118.409 2207.12 116.885C2207.12 115.36 2202.51 113.836 2202.51 113.836C2199.9 114.232 2197.96 113.836 2194.62 114.232C2191.35 114.598 2184.8 113.47 2182.8 113.47H2174.24C2172.24 113.47 2167.69 113.104 2165.69 113.47C2163.69 113.836 2161.08 115.757 2159.14 115.757H2153.2C2151.26 115.757 2147.98 114.994 2145.31 115.757C2142.65 116.519 2140.04 118.805 2136.76 118.409C2133.49 118.013 2135.49 117.281 2135.49 116.122C2135.49 114.964 2134.82 114.232 2132.21 114.232C2129.61 114.232 2126.94 114.994 2120.39 114.232C2113.84 113.47 2111.84 113.836 2108.56 114.598C2105.29 115.36 2098.07 115.36 2098.07 115.36C2098.07 115.36 2090.18 114.598 2088.24 114.598C2086.3 114.598 2081.69 116.488 2076.42 116.488C2071.14 116.488 2059.31 117.25 2056.04 118.013C2052.76 118.775 2050.76 120.299 2045.55 119.903C2040.27 119.537 2035.66 118.378 2033.72 119.537C2031.72 120.665 2025.84 121.427 2023.83 121.823C2021.89 122.189 2017.28 122.189 2017.28 122.189C2017.28 122.189 2015.34 121.427 2015.34 120.299C2015.34 119.171 2013.34 118.013 2011.4 118.775C2009.46 119.537 2004.18 121.061 2004.18 121.061C2004.18 121.061 1998.97 123.348 1998.97 121.823C1998.97 120.299 2002.91 119.171 2001.58 118.013C2000.3 116.885 1993.69 115.726 1989.75 116.885C1985.81 118.013 1977.25 118.013 1977.25 118.013C1977.25 118.013 1972.65 118.013 1968.1 118.409C1963.49 118.775 1956.27 118.775 1954.33 118.013C1952.33 117.25 1946.44 117.25 1946.44 117.25C1946.44 117.25 1938.56 116.092 1935.95 115.726C1933.34 115.36 1925.46 114.598 1921.52 114.598C1917.58 114.598 1909.69 115.36 1907.75 116.122C1905.75 116.885 1895.26 116.122 1891.31 116.122H1881.49C1879.49 116.122 1870.33 115.36 1867.72 116.519C1865.11 117.647 1859.17 119.567 1855.89 119.171C1852.62 118.805 1846.68 118.409 1844.07 118.409C1841.46 118.409 1832.91 118.013 1828.3 118.775C1823.69 119.537 1823.69 119.141 1816.47 119.537C1809.26 119.903 1807.92 121.061 1804.65 119.903C1801.37 118.775 1799.37 118.378 1797.43 117.616C1795.49 116.854 1792.82 117.616 1788.27 116.854C1783.66 116.092 1782.33 114.964 1778.45 114.568C1774.5 114.202 1772.56 113.805 1765.28 113.805C1758.01 113.805 1751.52 113.805 1748.24 112.677C1744.97 111.549 1739.69 111.153 1737.75 111.153C1735.81 111.153 1727.26 114.964 1727.26 114.964C1727.26 114.964 1718.71 114.598 1716.76 113.836C1714.82 113.074 1720.71 110.787 1715.49 110.025C1710.21 109.263 1705.67 109.629 1703.66 110.391C1701.66 111.153 1694.51 111.153 1694.51 111.153C1694.51 111.153 1686.62 109.629 1682.68 110.025C1678.74 110.391 1671.52 111.153 1668.91 111.153C1666.3 111.153 1657.08 111.153 1655.14 111.915C1653.14 112.677 1643.98 113.44 1643.98 113.44C1643.98 113.44 1634.77 113.074 1631.49 111.915C1628.22 110.787 1620.33 110.787 1615.72 111.549C1611.11 112.312 1607.17 116.122 1603.23 114.964C1599.29 113.836 1593.4 111.915 1590.13 111.915C1586.85 111.915 1578.3 112.677 1577.63 111.153C1577.03 109.629 1576.36 108.501 1576.36 106.977C1576.36 105.452 1569.14 103.562 1569.14 103.562C1569.14 103.562 1561.26 104.324 1558.65 105.849C1555.98 107.373 1550.77 109.659 1545.49 110.787C1540.27 111.915 1536.33 111.153 1533.06 110.421C1529.78 109.659 1521.23 111.184 1518.62 112.708C1515.95 114.232 1513.35 113.47 1512.07 111.946C1510.74 110.421 1502.85 110.056 1500.91 110.056C1498.97 110.056 1490.42 109.659 1486.48 111.184C1482.54 112.708 1477.26 114.994 1475.32 113.47C1473.38 111.946 1464.16 111.184 1460.88 110.056C1457.61 108.928 1456.27 107.007 1452.33 106.245C1448.39 105.483 1444.45 105.117 1441.17 104.355C1437.9 103.593 1433.29 101.702 1430.01 101.702C1426.74 101.702 1422.8 101.306 1420.79 100.544C1418.79 99.7818 1411.64 99.7818 1409.63 99.0196C1407.63 98.2574 1401.08 97.1294 1397.81 97.1294C1394.53 97.1294 1387.98 97.8916 1384.71 96.0014C1381.43 94.1113 1378.76 92.9528 1376.16 92.1907C1373.55 91.4285 1368.94 92.1907 1366.33 90.3005C1363.66 88.4104 1366.33 86.1239 1361.72 86.1239C1357.11 86.1239 1354.5 86.4897 1351.9 85.758C1349.29 84.9959 1346.68 84.5996 1343.34 84.5996C1340.01 84.5996 1339.4 84.5996 1335.46 83.8374C1331.52 83.0752 1326.91 82.3131 1323.63 83.0752C1320.3 83.8374 1313.75 80.7888 1310.47 82.3131C1307.2 83.8374 1296.7 88.014 1294.1 86.1239C1291.49 84.2337 1290.82 82.3131 1287.55 81.1851C1284.27 80.0266 1281 79.2645 1277.05 79.2645C1273.11 79.2645 1271.78 81.9168 1267.9 81.9168C1264.01 81.9168 1256.74 80.0266 1254.74 81.1546C1252.79 82.2826 1248.18 84.5691 1246.18 83.0448C1244.24 81.5204 1239.63 80.7583 1238.3 81.9168C1236.96 83.0448 1231.08 84.5996 1231.08 82.6789C1231.08 80.7583 1229.75 78.8681 1227.81 78.4718C1225.81 78.106 1223.86 78.106 1219.92 78.106C1215.98 78.106 1209.43 78.8681 1208.1 79.9961C1206.76 81.1546 1200.21 83.0448 1198.94 81.5204C1197.6 79.9961 1191.05 78.8681 1189.11 78.8681C1187.17 78.8681 1177.29 79.234 1177.29 79.234C1177.29 79.234 1171.34 76.9475 1168.73 78.4718C1166.13 79.9961 1159.52 81.1241 1156.91 80.7583C1154.24 80.3924 1148.36 81.5204 1143.81 81.5204C1139.26 81.5204 1133.98 79.234 1131.31 80.3925C1128.71 81.5204 1123.43 84.9654 1121.49 83.4411C1119.49 81.9168 1114.94 81.1546 1112.27 81.9168C1109.66 82.6789 1100.44 84.5691 1097.83 84.2032C1095.23 83.8374 1088.62 84.2032 1086.01 84.9654C1083.4 85.7276 1076.85 86.0934 1074.85 84.9654C1072.85 83.8374 1070.91 83.8374 1066.96 84.5691C1063.02 85.3312 1056.47 87.2214 1054.47 86.0934C1052.53 84.9654 1049.86 84.2032 1046.59 84.5691C1043.31 84.9654 1034.76 85.3312 1029.54 85.7276C1024.27 86.0934 1022.33 88.014 1018.38 88.014C1014.44 88.014 1009.83 87.6177 1007.22 88.014C1004.62 88.3799 1002.01 89.142 998.066 88.3799C994.123 87.6177 988.847 86.8556 986.239 86.4897C983.631 86.1239 978.354 88.014 974.412 87.6177C970.47 87.2214 968.529 85.3312 963.253 86.4897C957.976 87.6177 954.701 86.1239 950.152 86.4897C945.543 86.8556 943.542 90.3005 938.326 88.7762C933.049 87.2519 927.833 86.4897 926.499 85.3617C925.165 84.2337 916.007 82.7094 914.005 83.0752C912.064 83.4411 904.786 84.9654 902.846 85.7276C900.905 86.4897 889.745 85.3617 885.136 84.9654C880.527 84.5691 875.978 84.5691 873.309 84.5691C870.641 84.5691 866.759 84.9654 864.758 83.0448C862.817 81.1546 856.206 81.5204 854.265 81.9168C852.264 82.2826 848.322 78.5023 848.322 78.5023H838.496C836.495 78.5023 832.613 74.6915 831.279 76.6121C829.945 78.5023 825.396 79.6608 823.395 79.6608C821.393 79.6608 814.236 79.2645 812.235 78.8986C810.294 78.5328 805.685 80.7888 803.077 81.1851C800.469 81.5509 797.8 82.3131 795.193 83.4716C792.585 84.5996 781.425 87.2824 779.424 88.0445C777.483 88.8067 775.481 90.331 769.538 91.8553C763.655 93.3796 760.38 94.1418 754.436 95.3003C748.553 96.4283 742.609 97.1904 742.609 94.5381C742.609 91.8858 732.784 94.5381 735.392 92.2516C738 89.9652 736.059 89.5688 736.059 88.4408C736.059 87.3128 732.784 86.1544 728.175 87.6787C723.565 89.203 719.017 87.6787 719.017 87.6787C719.017 87.6787 715.074 83.8679 711.799 83.8679C708.524 83.8679 704.582 83.8679 701.974 85.758C699.366 87.6482 695.424 88.4104 693.422 86.886C691.421 85.3617 679.655 86.5202 676.986 86.886C674.378 87.2824 669.102 87.2824 665.827 86.886C662.552 86.5202 657.275 86.1239 654 86.5202C650.725 86.886 642.173 87.2824 642.173 87.2824C642.173 87.2824 637.564 85.3922 633.015 84.63C628.406 83.8679 623.19 83.8679 618.581 82.7399C613.971 81.6119 607.421 80.8497 606.087 82.7399C604.753 84.63 603.479 84.63 598.87 84.63C594.26 84.63 585.708 84.63 583.768 85.0264C581.827 85.3922 575.883 85.3922 573.275 85.3922C570.667 85.3922 566.058 88.4408 563.45 86.9165C560.842 85.3922 559.508 85.3922 555.566 87.3128C551.623 89.203 548.348 89.9652 546.407 88.4713C544.406 86.947 543.8 84.2947 541.798 84.2947C539.797 84.2947 531.306 85.819 528.031 85.819C524.755 85.819 520.813 86.5812 516.204 85.819C511.595 85.0569 505.044 83.9289 503.043 85.0569C501.102 86.1848 498.434 89.6298 494.491 89.6298C490.549 89.6298 481.998 89.264 479.39 88.5018C476.782 87.7397 472.172 88.136 468.897 89.264C465.622 90.392 468.23 92.3126 463.014 91.9163C457.738 91.5504 455.13 90.7883 453.189 92.3126C451.187 93.8369 448.579 96.8856 444.637 96.1234C440.695 95.3612 440.695 94.5991 438.754 93.4711C436.753 92.3431 431.537 90.8188 426.928 92.3431C422.318 93.8674 417.709 94.9954 413.16 94.2332C408.551 93.4711 403.335 92.7089 399.393 93.4711C395.45 94.2332 391.508 95.3612 389.567 96.5197C387.566 97.6477 384.291 96.8856 381.683 95.7576C379.075 94.6296 372.464 93.4711 371.191 95.3917C369.856 97.2819 366.581 98.8367 362.639 98.8367C358.697 98.8367 356.089 101.123 350.812 100.727C345.536 100.361 340.987 100.727 338.318 101.093C335.71 101.489 333.709 102.617 331.101 104.141C328.493 105.666 324.551 106.428 323.217 105.269C321.882 104.141 315.999 102.617 314.665 104.141C313.331 105.666 310.723 107.556 304.84 106.794C298.957 106.031 299.563 106.428 296.955 108.318C294.347 110.239 290.405 110.604 288.404 110.604C286.402 110.604 287.737 113.653 281.186 113.653C274.636 113.653 273.969 114.415 270.027 112.891C266.085 111.367 264.75 111.367 259.534 111.367C254.319 111.367 250.376 109.476 248.375 108.318C246.434 107.19 245.1 107.952 238.55 107.952C231.999 107.952 226.723 111.001 222.114 109.842C217.504 108.714 212.288 108.318 203.07 107.952C193.851 107.556 195.852 107.952 189.302 106.794C182.752 105.666 180.083 103.745 176.202 104.903C172.26 106.062 166.377 107.19 164.375 106.428C162.434 105.666 152.548 106.428 149.273 105.666C145.998 104.903 140.055 104.507 132.837 104.141C125.62 103.775 113.793 103.379 111.852 101.855C109.912 100.331 104.635 102.617 99.3587 100.331C94.0821 98.044 89.5334 98.4404 87.532 96.916C85.5305 95.3917 82.2554 95.3917 80.3147 93.8674C78.3132 92.3431 75.0381 92.7394 71.0959 93.1053C67.1536 93.4711 58.6021 90.0566 53.3862 91.2151C48.1097 92.3431 45.5018 95.0259 39.6188 95.0259C33.7358 95.0259 29.7935 93.8979 26.5184 95.0259C23.2433 96.1539 13.4181 96.1539 9.47587 96.1539C5.53364 96.1539 -1.01655 93.1052 -4.29163 95.0259C-7.56671 96.916 -10.8418 98.8367 -14.1168 98.4404C-17.3919 98.044 -26.6107 97.3124 -28.5515 97.6782C-30.5529 98.044 -36.4359 98.4404 -39.711 98.4404C-42.9861 98.4404 -45.594 99.2025 -50.8705 99.2025C-56.1471 99.2025 -58.755 98.4404 -64.638 99.9647C-70.5211 101.489 -73.7962 101.855 -77.7384 100.727C-81.6806 99.5988 -93.5073 100.727 -94.7809 97.6782C-96.1152 94.6296 -92.8401 92.7394 -99.3903 93.5016C-105.94 94.2637 -109.216 94.2637 -110.55 93.1357C-111.884 92.0077 -116.433 88.9591 -123.044 88.9591C-129.655 88.9591 -138.146 87.4348 -138.146 85.1483C-138.146 82.8618 -146.03 83.624 -147.364 81.3375C-148.698 79.0511 -149.972 77.9231 -155.249 77.1609C-160.465 76.3987 -165.074 76.0024 -169.016 76.0024C-172.958 76.0024 -175.566 76.3683 -179.509 75.2403C-183.451 74.1123 -185.028 74.8439 -190.304 75.2403C-195.52 75.6366 -201.464 77.1304 -205.406 76.3987C-209.348 75.6366 -209.106 81.2156 -211.774 80.4534C-214.382 79.6913 -220.993 81.9777 -224.268 81.5814C-227.543 81.2156 -233.487 82.7094 -237.368 82.7094C-241.25 82.7094 -243.919 82.7094 -249.195 81.5814C-254.472 80.4534 -258.414 78.5328 -261.689 77.7706C-264.964 77.0085 -270.908 75.4842 -277.458 76.2463C-284.008 77.0085 -287.283 76.2463 -290.558 75.8805C-293.833 75.5146 -302.385 75.8805 -307.661 75.5146C-312.938 75.1183 -323.43 69.8137 -324.704 71.338C-326.038 72.8623 -326.038 75.911 -331.921 73.9903C-337.804 72.1002 -337.198 72.8623 -339.806 74.3562C-342.414 75.8805 -347.69 75.1183 -347.69 75.1183C-347.69 75.1183 -353.634 77.4048 -354.907 75.5146C-356.242 73.6245 -360.79 72.8623 -363.459 74.3866C-366.067 75.911 -368.736 75.5146 -371.344 74.7525C-373.951 73.9903 -375.953 72.1002 -381.169 73.2282C-386.445 74.3562 -386.445 75.5146 -389.053 73.6245C-391.661 71.7343 -394.936 73.2282 -402.154 72.8623C-409.371 72.4965 -410.705 70.21 -415.921 73.2282C-421.198 76.2768 -423.806 77.8011 -427.081 74.7525C-430.356 71.7038 -436.906 72.8623 -444.123 72.8623C-451.34 72.8623 -455.95 72.8623 -461.166 74.7525C-466.442 76.6426 -471.658 77.4048 -477.602 77.039C-483.485 76.6426 -487.427 75.5146 -492.704 76.6426C-497.98 77.8011 -505.864 78.5328 -509.807 78.5328C-513.749 78.5328 -524.241 77.4048 -526.849 78.5328C-529.457 79.6608 -538.676 84.63 -539.95 81.5814C-541.284 78.5328 -536.674 76.2463 -541.89 75.4842C-547.167 74.722 -554.384 75.4842 -558.326 75.4842C-562.269 75.4842 -567.545 74.722 -568.819 76.6121C-570.153 78.5023 -579.311 80.4229 -583.921 78.5023C-588.53 76.6121 -593.746 75.4537 -598.355 74.6915C-602.965 73.9293 -617.399 73.5635 -621.341 74.3257C-625.284 75.0878 -632.501 77.3743 -636.443 78.8986C-640.385 80.4229 -642.993 79.6608 -649.604 80.7888C-656.154 81.9168 -665.373 83.8374 -667.981 81.9168C-670.589 80.0266 -674.531 78.5023 -680.475 79.2645C-686.358 80.0266 -688.359 81.5509 -694.91 80.3925C-701.46 79.2645 -704.735 77.7401 -707.403 77.7401C-710.072 77.7401 -717.229 78.5023 -725.113 77.7401C-732.997 76.978 -734.999 77.3438 -740.215 76.5817C-745.491 75.8195 -749.434 76.978 -755.317 76.5817C-761.2 76.2158 -768.417 75.0573 -771.086 75.8195C-773.693 76.5817 -780.911 79.9961 -786.187 79.9961C-791.464 79.9961 -792.07 80.3925 -794.739 81.1546C-797.347 81.9168 -803.29 82.2826 -805.231 82.2826C-807.172 82.2826 -807.172 84.5691 -813.783 86.0934C-820.333 87.6177 -819.666 86.8555 -826.277 87.6177C-832.827 88.3799 -842.046 92.5565 -843.986 92.5565C-845.927 92.5565 -849.869 92.5565 -855.146 91.7943C-860.422 91.0322 -864.971 93.6845 -867.64 94.843C-870.248 96.0015 -883.409 98.6538 -886.684 98.6538C-889.959 98.6538 -901.118 98.2574 -905.061 97.1294C-909.003 96.0015 -918.161 97.8916 -920.83 98.6538C-923.438 99.4159 -933.991 99.4159 -937.266 99.4159C-940.541 99.4159 -949.759 99.0501 -951.7 99.4159C-953.641 99.7818 -957.583 99.4159 -962.193 101.306C-966.802 103.196 -970.744 103.196 -974.687 102.465C-978.629 101.702 -983.238 105.117 -987.787 102.465C-992.396 99.7818 -1000.28 98.2574 -1006.16 97.8916C-1012.05 97.4953 -1019.26 99.0501 -1025.21 97.4953C-1031.09 95.971 -1031.76 95.2088 -1037.7 95.971C-1043.58 96.7331 -1046.92 98.6233 -1053.47 97.4953C-1060.02 96.3673 -1066.57 96.7331 -1070.51 97.1294C-1074.46 97.4953 -1081.01 98.2879 -1084.95 97.4953C-1088.89 96.7331 -1089.56 92.6784 -1093.5 93.4406C-1097.44 94.2028 -1111.75 90.0261 -1114.42 91.5504C-1117.03 93.0748 -1120.31 95.7271 -1124.92 95.3612C-1129.53 94.9954 -1133.47 94.5991 -1135.41 95.7271C-1137.35 96.8551 -1140.68 98.7757 -1145.9 98.7757C-1151.12 98.7757 -1154.45 100.3 -1156.39 101.062C-1158.33 101.824 -1166.22 102.952 -1169.55 104.111C-1172.83 105.239 -1174.83 106.001 -1183.32 106.001C-1191.81 106.001 -1192.54 106.001 -1196.42 104.111C-1200.36 102.221 -1202.97 102.19 -1206.91 103.714C-1210.86 105.239 -1215.47 107.129 -1222.02 107.129C-1228.57 107.129 -1233.84 107.891 -1237.78 108.257C-1241.73 108.623 -1250.22 106.885 -1254.16 106.55C-1271.2 105.117 -1283.21 106.245 -1283.21 106.245V45.7295C-1283.21 45.7295 -1272.6 48.1989 -1268.29 45.7295C-1264.05 43.2601 -1255.49 46.888 -1255.49 46.888H-1242.7C-1238.45 46.888 -1235.24 46.2478 -1232.08 45.0283C-1228.87 43.7784 -1224.62 45.0283 -1219.29 46.2478C-1213.95 47.4977 -1208.67 44.3881 -1205.46 41.9187C-1202.24 39.4493 -1191.63 40.6992 -1187.38 40.6992C-1183.14 40.6992 -1174.59 39.4798 -1170.34 39.4798C-1166.1 39.4798 -1157.55 38.2299 -1154.39 38.2299C-1151.24 38.2299 -1142.69 36.3702 -1138.44 35.7605C-1134.2 35.1507 -1122.07 37.0104 -1122.07 34.541C-1122.07 32.0716 -1117.82 30.2119 -1113.57 30.8522C-1109.33 31.4619 -1105.08 30.8522 -1101.87 30.8522C-1098.65 30.8522 -1090.04 34.3886 -1084.71 34.9983C-1079.37 35.608 -1073 33.1386 -1068.75 31.3095C-1064.51 29.4498 -1059.17 31.3095 -1052.8 30.6997C-1046.44 30.09 -1041.1 27.6206 -1037.88 27.6206C-1034.67 27.6206 -1019.81 27.0109 -1017.63 25.1512C-1015.5 23.2916 -1014.41 22.6818 -1006.95 23.2916C-999.492 23.9013 -997.369 23.9013 -992.032 23.2916C-986.695 22.6818 -982.45 22.6818 -976.081 22.0721C-969.713 21.4624 -960.131 19.6027 -951.579 19.6027C-943.027 19.6027 -920.708 18.993 -916.463 18.993C-912.217 18.993 -900.512 18.3833 -895.175 17.1333C-889.838 15.9139 -883.469 15.2736 -879.224 14.0542C-874.978 12.8347 -867.519 12.8347 -864.304 11.5848C-861.09 10.3653 -854.721 7.86547 -851.568 10.3349C-848.353 12.8043 -839.862 13.414 -835.617 14.6639C-831.371 15.8834 -826.034 15.8834 -823.911 10.9751C-821.789 6.03629 -815.42 10.9751 -808.992 11.5848C-802.623 12.1945 -799.409 14.0542 -795.163 14.6639C-790.918 15.2736 -788.795 15.2736 -784.55 14.6639C-780.304 14.0542 -775.998 10.3349 -775.998 10.3349C-775.998 10.3349 -767.507 8.4752 -763.201 7.25574C-758.956 6.03629 -748.281 8.4752 -744.036 9.72514C-739.79 10.9751 -735.545 10.3349 -732.33 8.4752C-729.116 6.61553 -726.993 9.11541 -721.717 10.3349C-716.379 11.5848 -712.134 10.9446 -708.92 10.9446C-705.705 10.9446 -701.46 11.5543 -697.214 9.69465C-692.969 7.83498 -699.337 4.75586 -699.337 1.06702C-699.337 -2.62183 -690.846 4.14614 -686.54 7.25574C-682.294 10.3349 -683.325 10.9446 -676.957 10.9446C-670.589 10.9446 -671.62 9.69465 -667.375 9.69465C-663.129 9.69465 -657.792 11.5543 -653.546 12.7738C-649.301 13.9932 -637.596 13.3835 -631.167 13.3835C-624.738 13.3835 -618.37 10.9141 -610.91 12.1336C-603.45 13.3835 -613.032 6.58504 -608.787 6.58504C-604.541 6.58504 -598.113 5.36559 -592.836 4.75586C-587.499 4.14614 -586.468 6.58504 -584.345 9.08492C-582.222 11.5543 -580.1 13.414 -576.885 13.414C-573.671 13.414 -571.548 7.86547 -565.18 7.86547C-558.812 7.86547 -557.72 11.5848 -554.566 12.8043C-551.352 14.0237 -540.738 9.72514 -536.493 8.4752C-532.247 7.25574 -525.818 10.3349 -520.542 10.9446C-515.205 11.5543 -505.622 10.3349 -502.468 8.4752C-499.314 6.61553 -490.763 10.9446 -490.763 10.9446C-490.763 10.9446 -477.966 13.414 -472.689 14.0237C-467.352 14.6639 -454.616 10.9446 -454.616 10.9446C-454.616 10.9446 -438.665 8.4752 -435.45 7.86547C-432.236 7.25574 -429.082 5.39608 -422.714 6.0058C-416.346 6.61553 -412.039 7.22526 -402.457 7.86547C-392.874 8.4752 -397.12 3.53641 -393.966 5.39608C-390.751 7.25574 -387.598 6.61553 -383.352 5.39608C-379.107 4.17662 -373.769 5.39608 -373.769 5.39608C-373.769 5.39608 -363.095 3.53641 -359.941 6.61553C-356.727 9.69465 -352.481 8.4752 -348.236 9.69465C-343.991 10.9141 -338.653 10.9446 -335.5 10.3044C-332.285 9.69465 -322.702 10.9141 -317.365 10.9141C-312.028 10.9141 -305.66 12.1336 -305.66 9.05444C-305.66 5.97532 -298.2 7.8045 -292.863 9.66416C-287.526 11.5238 -285.403 11.5238 -281.157 13.3835C-276.912 15.2432 -270.544 15.2432 -266.238 15.8529C-261.992 16.4626 -254.532 15.8529 -251.318 13.3835C-248.103 10.9141 -242.827 13.9932 -239.612 17.0723C-236.398 20.1515 -230.394 12.6823 -227.179 13.3225C-224.025 13.9322 -216.565 14.542 -211.228 14.542C-205.891 14.542 -203.89 11.0665 -198.613 11.0665C-193.337 11.0665 -189.031 11.6763 -185.816 11.6763C-182.602 11.6763 -177.325 12.286 -168.774 13.5359C-160.283 14.7859 -158.16 13.5359 -153.854 14.7859C-149.608 16.0053 -143.24 17.865 -137.903 18.4747C-132.566 19.0844 -126.197 20.3344 -118.738 20.9441C-111.278 21.5538 -104.909 24.0232 -104.909 24.0232C-104.909 24.0232 -98.5413 25.8829 -89.9897 24.633C-81.4987 23.383 -81.4986 25.2427 -81.4986 25.2427L-71.916 25.8524C-71.916 25.8524 -61.2417 25.8524 -56.9962 27.7121C-52.7507 29.5717 -46.3218 28.3218 -46.3218 25.8524C-46.3218 23.383 -42.0764 22.7733 -36.7392 22.1636C-31.4021 21.5538 -30.371 23.4135 -27.1566 25.2427C-23.9422 27.1023 -18.6656 28.9315 -17.5739 31.4009C-16.4822 33.8703 -10.114 35.0898 -6.89952 35.0898C-3.68509 35.0898 0.560352 32.0106 1.5914 29.5412C2.68309 27.0719 9.05131 30.1815 14.3885 30.1815C19.7257 30.1815 27.1856 28.9315 27.1856 28.9315C27.1856 28.9315 35.6765 27.0719 38.8909 27.0719C42.1053 27.0719 54.8418 22.7428 56.9646 20.9136C59.0873 19.054 68.67 19.6637 69.7617 21.5233C70.7927 23.383 78.2526 25.2122 78.2526 25.2122C78.2526 25.2122 86.7435 27.6816 89.9579 30.151C93.1724 32.6204 96.3262 29.5108 101.663 27.6816C107.001 25.8219 111.246 25.8219 111.246 25.8219C111.246 25.8219 118.706 24.6025 124.043 25.2122C129.38 25.8219 131.503 25.8219 138.963 27.0719C146.423 28.2913 145.331 30.151 150.668 32.0106C156.005 33.8703 157.037 32.0106 160.251 29.5412C163.465 27.0719 168.742 26.4621 168.742 26.4621C168.742 26.4621 175.11 22.7733 181.539 22.7733C187.968 22.7733 185.784 24.633 187.907 26.4621C190.03 28.3218 195.367 28.3218 194.275 26.4621C193.244 24.6025 196.398 22.7733 197.49 20.9136C198.521 19.054 203.858 20.3039 208.164 22.1636C212.41 24.0232 217.747 25.8524 219.87 28.3218C221.992 30.7912 233.698 25.8524 240.127 22.7733C246.495 19.6942 249.709 21.5538 257.169 21.5538C264.629 21.5538 262.506 21.5538 276.334 18.4747C290.163 15.3956 282.703 16.615 289.071 17.2553C295.439 17.865 297.622 17.865 302.899 15.3956C308.236 12.9262 305.022 12.3165 309.267 14.1761C313.513 16.0358 314.604 17.2553 318.85 18.4747C323.095 19.7247 327.341 19.0844 330.555 19.0844C333.77 19.0844 344.383 17.8345 347.598 17.8345C350.812 17.8345 359.303 20.9136 364.64 20.9136C369.977 20.9136 374.223 21.5538 379.56 23.383C384.897 25.2427 388.112 23.383 394.48 20.9136C400.848 18.4442 398.726 18.4442 405.154 18.4442C411.583 18.4442 414.737 15.9748 417.951 17.2248C421.166 18.4442 430.749 20.3039 436.025 19.6942C441.362 19.0844 444.577 17.8345 447.73 19.0844C450.945 20.3344 457.313 19.0844 460.528 17.8345C463.742 16.615 469.019 18.4442 474.356 19.6942C479.693 20.9441 482.847 22.1636 488.184 21.5538C493.521 20.9441 502.012 23.4135 505.226 23.4135C508.441 23.4135 518.024 23.4135 521.177 22.194C524.392 20.9441 529.668 21.5843 532.883 21.5843C536.097 21.5843 544.588 20.9746 547.802 20.3344C551.017 19.7247 556.293 20.3344 559.508 20.9441C562.722 21.5538 571.213 20.3344 571.213 20.3344C571.213 20.3344 578.673 18.4747 588.256 18.4747H606.329C609.544 18.4747 618.035 18.4747 621.249 19.0844C624.464 19.6942 626.586 19.6942 629.801 21.5538C633.015 23.4135 638.292 22.1636 641.506 22.1636C644.721 22.1636 652.181 22.1636 655.334 24.633C658.488 27.1023 664.917 25.2427 668.071 24.0232C671.285 22.7733 677.653 23.4135 680.868 25.2427C684.022 27.1023 689.359 25.8524 693.604 25.2427C697.85 24.6329 706.401 24.0232 706.401 24.0232C706.401 24.0232 714.892 24.0232 723.444 24.633C731.935 25.2427 733.027 17.865 733.027 17.865L745.824 19.0844C745.824 19.0844 754.315 18.4747 758.56 17.2248C762.806 16.0053 766.02 14.7554 768.143 12.8957C770.265 11.036 776.634 14.7554 777.725 17.2248C778.817 19.6942 785.185 19.6942 789.431 18.4442C793.676 17.2248 797.922 17.8345 802.167 17.8345C806.413 17.8345 815.995 16.5846 815.995 16.5846C815.995 16.5846 825.578 15.9748 828.732 16.5846C831.946 17.1943 838.314 16.5846 842.56 14.1152C846.805 11.6458 854.265 13.5054 860.633 14.1152C867.002 14.7249 869.185 13.5054 876.584 12.8652C884.044 12.2555 889.381 10.3958 889.381 10.3958C889.381 10.3958 903.21 8.53617 909.638 8.53617C916.067 8.53617 919.221 8.53617 922.435 10.3958C925.65 12.2555 930.987 10.3958 939.478 10.3958C947.969 10.3958 952.275 10.3958 956.521 11.6153C960.766 12.8652 966.103 11.6153 969.318 10.3958C972.532 9.17638 981.023 8.53617 981.023 8.53617C981.023 8.53617 990.606 8.53617 998.066 9.1459C1005.53 9.75562 1012.99 8.53617 1021.54 9.1459C1030.03 9.75562 1029 5.42656 1032.15 5.42656C1035.3 5.42656 1038.52 4.81684 1045.98 4.81684C1053.44 4.81684 1054.47 2.95717 1058.78 2.34744C1063.02 1.73772 1066.24 1.73772 1066.24 1.73772C1066.24 1.73772 1078 2.95717 1084.37 2.34744C1090.74 1.73772 1094.98 -0.121948 1098.2 -0.121948C1101.41 -0.121948 1106.69 1.73772 1111 1.73772C1115.3 1.73772 1119.49 2.95717 1122.7 2.95717C1125.92 2.95717 1135.5 2.95717 1136.53 4.81684C1137.62 6.6765 1150.36 6.03629 1154.66 7.28623C1158.91 8.53617 1166.37 8.53617 1169.52 8.53617C1172.68 8.53617 1180.2 6.6765 1188.69 7.28623C1197.18 7.89596 1201.48 8.53617 1207.85 10.3653C1214.28 12.225 1220.65 10.9751 1223.86 12.8347C1227.08 14.6944 1232.36 15.3041 1235.57 15.3041C1238.78 15.3041 1249.4 12.8347 1249.4 12.8347C1249.4 12.8347 1256.86 9.75562 1262.13 11.5848C1267.47 13.4445 1272.81 11.5848 1275.96 13.4445C1279.12 15.3041 1281.3 15.3041 1286.64 15.3041C1291.97 15.3041 1295.19 16.5541 1298.34 17.1638C1301.56 17.7735 1310.05 19.6332 1314.29 19.6332C1318.54 19.6332 1323.88 20.2429 1327.09 22.7123C1330.3 25.1817 1335.58 23.322 1339.89 21.4624C1344.13 19.6027 1344.13 20.2124 1348.38 20.2124H1361.18L1373.97 18.9625C1373.97 18.9625 1376.1 23.2916 1380.4 23.9013C1384.65 24.511 1388.89 22.6818 1391.01 20.2124C1393.14 17.743 1395.26 17.743 1399.51 18.3528C1403.75 18.9625 1402.72 20.8222 1406.97 22.6818C1411.21 24.511 1417.64 25.1512 1419.76 28.8401C1421.89 32.5289 1430.38 26.9804 1430.38 26.9804C1430.38 26.9804 1436.74 26.3707 1442.08 26.9804C1447.42 27.5901 1445.3 29.4498 1447.42 32.5289C1449.54 35.608 1458.09 30.6692 1462.34 29.4498C1466.65 28.2303 1467.68 31.3095 1473.01 33.1386C1478.35 34.9678 1488.96 34.3581 1488.96 34.3581C1488.96 34.3581 1500.67 35.5775 1504.92 35.5775C1509.16 35.5775 1521.96 34.3581 1525.17 33.7179C1528.33 33.1082 1535.79 33.1082 1540.03 33.7179C1544.28 34.3276 1548.52 36.1873 1550.71 39.2664C1552.83 42.3455 1561.38 36.797 1561.38 36.797C1561.38 36.797 1568.84 33.7179 1569.87 36.797C1570.96 39.8761 1576.3 37.4067 1579.45 36.797C1582.67 36.1873 1589.04 36.1873 1592.25 36.1873C1595.46 36.1873 1602.92 37.4372 1607.17 37.4372C1611.42 37.4372 1623.12 36.8275 1627.37 36.8275H1642.29C1648.65 36.8275 1657.21 36.8275 1661.45 35.608C1665.7 34.3886 1676.37 35.608 1682.74 35.608C1689.11 35.608 1698.69 34.3886 1701.91 34.3886C1705.12 34.3886 1711.49 34.3886 1716.83 32.5289C1722.16 30.6692 1726.41 34.3886 1726.41 34.3886C1726.41 34.3886 1731.74 36.2482 1737.02 36.2482C1742.3 36.2482 1751.94 37.4677 1755.09 38.1079C1758.31 38.7176 1772.14 38.1079 1775.35 39.3274C1778.57 40.5468 1789.18 43.0162 1804.1 44.8759C1819.02 46.7051 1822.17 47.3453 1825.39 48.5647C1828.6 49.8147 1836 48.5647 1838.18 46.7051C1840.31 44.8759 1847.77 44.8759 1847.77 46.7051C1847.77 48.5342 1849.89 49.1744 1854.14 50.3939C1858.38 51.6134 1878.64 52.2536 1883.98 52.8633C1889.25 53.473 1904.17 52.8633 1908.48 54.1132C1912.72 55.3327 1924.43 54.1132 1927.64 52.8633C1930.86 51.6438 1939.35 52.2536 1939.35 52.2536C1939.35 52.2536 1951.05 52.2536 1954.21 53.473C1957.42 54.6925 1962.76 54.723 1969.13 55.9424C1975.56 57.1619 1981.92 54.6925 1981.92 54.6925C1981.92 54.6925 1993.63 53.4425 1997.88 52.8328C2002.12 52.2231 2006.37 52.8328 2013.83 52.8328C2021.29 52.8328 2030.87 52.2231 2034.08 52.2231C2037.3 52.2231 2042.57 51.6134 2045.79 50.3634C2049 49.1135 2053.25 50.3634 2054.28 52.8328C2055.37 55.3022 2060.65 54.0827 2063.86 54.0827C2067.08 54.0827 2077.69 52.8328 2077.69 52.8328C2077.69 52.8328 2084.06 52.8328 2090.43 55.3022C2096.8 57.7716 2103.22 52.8328 2108.5 53.4425C2113.84 54.0523 2118.08 53.4425 2126.57 52.2231C2135.07 51.0036 2141.49 52.2231 2144.71 52.8328C2147.86 53.4425 2153.2 53.4425 2156.41 51.6134C2159.63 49.7537 2169.21 51.0036 2173.46 51.6134C2177.7 52.2231 2184.13 51.6134 2189.41 51.0036C2194.74 50.3939 2202.2 51.0036 2207.54 51.6134C2212.88 52.2231 2219.25 51.6134 2223.49 49.7537C2227.74 47.894 2233.08 48.5037 2239.44 47.894C2245.81 47.2843 2246.9 46.0344 2246.9 43.565C2246.9 41.0956 2254.36 41.7053 2254.36 44.8149C2254.36 47.9245 2257.58 48.5037 2257.58 48.5037C2257.58 48.5037 2266.07 51.5829 2270.31 51.5829C2274.56 51.5829 2278.81 53.4425 2283.05 54.662C2287.36 55.9119 2291.6 54.0523 2294.76 52.8023C2297.97 51.5829 2307.55 51.5829 2307.55 51.5829L2316.04 54.662C2316.04 54.662 2323.5 54.662 2327.75 52.8023C2331.99 50.9427 2336.24 52.8023 2339.45 52.1926C2342.67 51.5829 2350.13 50.9427 2353.28 52.8023C2356.5 54.662 2360.74 53.412 2364.99 52.8023C2369.23 52.1926 2375.66 54.0523 2380.94 54.0523C2386.22 54.0523 2387.31 50.9731 2388.4 48.5037C2389.43 46.0344 2395.86 47.2538 2397.98 49.7537C2400.1 52.2231 2403.32 52.8328 2407.56 53.4425C2411.81 54.0523 2416.06 50.9731 2420.3 53.4425C2424.61 55.9119 2430.97 52.2231 2434.13 51.5829C2437.34 50.9731 2443.71 53.4425 2443.71 53.4425H2459.66C2466.09 53.4425 2468.21 56.5217 2468.21 58.3813C2468.21 60.241 2473.55 59.6313 2477.8 58.3813C2482.04 57.1619 2484.16 60.241 2492.72 57.7716C2501.27 55.3022 2501.27 57.7716 2504.42 59.6313C2507.64 61.4909 2509.76 60.8507 2515.04 59.6313C2520.37 58.4118 2521.4 58.3813 2527.83 59.0215C2534.2 59.6313 2533.17 60.8812 2537.42 59.0215C2541.66 57.1619 2548.09 60.8812 2554.46 60.8812C2560.83 60.8812 2560.83 60.8812 2565.07 61.4909C2569.38 62.1007 2574.65 62.7104 2579.99 62.7104C2585.33 62.7104 2588.48 62.7104 2590.6 60.241C2592.73 57.7716 2601.28 60.8507 2605.52 57.1619C2609.77 53.473 2612.98 55.9119 2619.35 56.5521C2625.72 57.1619 2631.06 57.1619 2634.27 55.9424C2637.49 54.6925 2648.1 52.8633 2648.1 52.8633L2658.71 55.9424C2658.71 55.9424 2669.39 55.3327 2673.63 53.473C2677.88 51.6134 2689.59 51.6134 2693.83 49.7842C2698.08 47.9245 2705.54 44.8454 2705.54 44.8454C2705.54 44.8454 2717.24 46.0648 2723.61 47.3148C2729.98 48.5342 2734.28 47.3148 2738.53 45.4551C2742.77 43.5954 2750.23 44.8454 2755.57 45.4551C2760.91 46.0648 2768.37 46.7051 2771.52 46.7051C2774.68 46.7051 2785.35 44.8454 2785.35 44.8454C2785.35 44.8454 2798.15 45.4551 2801.3 46.0648C2804.46 46.6746 2810.88 46.0648 2813.01 44.2052C2815.13 42.3455 2819.38 45.4246 2823.68 47.2843C2827.93 49.144 2832.17 48.5037 2838.6 49.7537C2844.97 51.0036 2848.18 51.0036 2853.52 49.1135C2858.86 47.2843 2862.01 44.1747 2862.01 44.1747H2880.15C2883.3 44.1747 2889.73 44.7844 2892.88 46.0344C2896.1 47.2538 2901.43 47.2843 2906.71 47.2843C2911.99 47.2843 2917.32 46.6746 2920.54 44.8149C2923.75 42.9552 2926.91 42.3455 2930.12 42.3455C2933.34 42.3455 2939.7 42.3455 2943.95 42.9552C2948.2 43.565 2953.53 42.3455 2956.69 41.7358C2959.9 41.1261 2965.72 43.1382 2972.09 43.1382C2978.46 43.1382 2982.89 46.766 2991.98 45.3027C3005.87 43.0467 3014.42 45.5161 3014.42 45.5161V105.879L3014 106.092Z" fill="white"/>
</g>
<defs>
<clipPath id="clip0_5_280">
<rect width="1919" height="87" fill="white"/>
</clipPath>
</defs>
</svg>
