<svg width="1920" height="126" viewBox="0 0 1920 126" fill="none" xmlns="http://www.w3.org/2000/svg">
<g clip-path="url(#clip0_76_16821)">
<path d="M3109 106.092C3109 106.092 3105.66 106.336 3102.27 107.098C3100.21 107.556 3095.96 104.172 3092.02 103.806C3088.08 103.44 3087.41 104.568 3085.47 104.934C3083.47 105.3 3082.19 105.3 3078.92 104.568C3075.64 103.806 3069.7 104.202 3066.42 104.202C3063.15 104.202 3058.3 100.696 3055.69 102.617C3053.08 104.507 3045.86 105.666 3043.86 104.903C3041.86 104.141 3035.25 99.3854 3033.25 100.513C3031.25 101.672 3026.7 102.404 3024.09 102.038C3021.48 101.672 3019.48 105.086 3016.87 105.086C3014.27 105.086 3011.6 105.849 3008.99 104.721C3006.32 103.593 3006.99 104.721 3003.05 105.849C2999.1 106.977 2995.83 107.373 2993.22 106.214C2990.61 105.086 2987.34 104.324 2984.06 105.086C2980.79 105.849 2972.9 105.452 2970.29 106.611C2967.63 107.739 2964.41 108.135 2963.08 109.659C2961.74 111.184 2956.53 111.946 2953.86 109.659C2951.25 107.373 2947.92 106.611 2944.64 107.373C2941.36 108.135 2938.09 109.659 2934.15 108.501C2930.21 107.373 2924.26 106.611 2920.99 108.867C2917.71 111.153 2913.77 110.757 2910.49 111.153C2907.22 111.519 2903.94 111.519 2900.67 112.281C2897.39 113.043 2890.18 114.171 2890.18 114.171C2890.18 114.171 2885.57 117.982 2883.63 118.744C2881.62 119.506 2876.41 119.506 2875.74 118.348C2875.07 117.22 2865.25 116.824 2865.25 116.824C2865.25 116.824 2855.42 118.714 2852.15 119.11C2848.87 119.476 2844.26 121.762 2841.66 122.159C2838.99 122.555 2835.11 122.921 2830.5 122.159C2825.89 121.397 2821.95 122.555 2816.73 122.555C2811.51 122.555 2807.51 122.159 2804.9 122.555C2802.3 122.921 2797.69 122.159 2800.29 121.031C2802.9 119.903 2797.02 118.744 2797.02 118.744C2797.02 118.744 2795.08 116.092 2793.08 117.616C2791.07 119.141 2789.13 120.269 2785.19 120.269C2781.25 120.269 2777.97 120.269 2775.37 121.031C2772.7 121.793 2776.03 118.744 2772.7 118.744C2769.36 118.744 2768.09 118.744 2766.15 121.031C2764.21 123.317 2759.6 123.683 2759.6 123.683C2759.6 123.683 2755.66 120.634 2754.32 121.762C2752.99 122.921 2747.77 124.049 2744.5 124.415C2741.22 124.811 2737.95 122.128 2736.61 123.287C2735.28 124.415 2732.67 125.177 2730.06 125.177C2727.45 125.177 2719.57 124.415 2719.57 124.415C2719.57 124.415 2714.29 123.287 2711.02 123.287C2707.74 123.287 2703.13 124.049 2701.19 124.811C2699.25 125.573 2691.37 125.939 2689.36 125.939C2687.36 125.939 2678.21 124.811 2676.26 124.811C2674.32 124.811 2667.05 122.921 2663.77 122.525C2660.5 122.128 2658.49 122.525 2653.95 121.397C2649.4 120.269 2647.4 120.634 2643.45 119.506C2639.51 118.348 2636.9 120.269 2634.9 119.141C2632.9 117.982 2630.29 117.982 2628.35 119.141C2626.35 120.269 2625.68 120.665 2622.47 119.903C2619.19 119.141 2614.58 118.378 2611.98 118.378H2601.48C2599.48 118.378 2596.21 116.854 2596.21 116.854C2596.21 116.854 2592.93 117.25 2590.93 117.982C2588.99 118.744 2586.99 119.506 2585.05 117.982C2583.11 116.458 2578.5 115.33 2577.83 116.458C2577.16 117.586 2575.22 119.11 2571.89 118.348C2568.61 117.586 2564 118.744 2564 118.744C2564 118.744 2557.45 119.11 2555.45 118.348C2553.51 117.586 2548.23 116.061 2546.23 116.824C2544.29 117.586 2537.07 120.634 2537.07 120.634C2537.07 120.634 2527.86 122.159 2526.58 121.031C2525.31 119.903 2523.97 119.506 2522.64 118.378C2521.3 117.25 2518.7 118.013 2515.42 116.854C2512.09 115.726 2508.81 114.964 2508.81 114.964C2508.81 114.964 2502.26 115.33 2500.32 115.726C2498.38 116.092 2495.77 117.25 2493.77 118.775C2491.83 120.299 2489.16 121.061 2485.22 121.061C2481.28 121.061 2475.39 122.189 2471.45 122.189C2467.51 122.189 2467.51 121.061 2464.9 119.141C2462.29 117.25 2453.07 116.488 2451.13 116.488C2449.19 116.488 2445.25 116.092 2441.91 116.092C2438.58 116.092 2434.7 119.141 2430.76 119.141C2426.81 119.141 2420.26 117.25 2420.26 117.25C2420.26 117.25 2415.05 117.647 2411.71 117.647C2408.38 117.647 2406.43 116.519 2403.16 116.519C2399.88 116.519 2397.88 115.757 2395.27 115.391C2392.67 115.025 2389.33 114.263 2386.06 114.629C2382.78 114.994 2378.84 115.757 2376.23 115.757C2373.62 115.757 2373.62 115.391 2369.01 115.757C2364.4 116.122 2362.46 118.043 2361.8 116.519C2361.13 114.994 2363.74 116.122 2361.13 114.994C2358.52 113.866 2353.91 113.866 2351.91 113.866C2349.91 113.866 2344.69 115.757 2342.75 116.519C2340.75 117.281 2337.48 118.409 2335.54 118.409C2333.59 118.409 2332.26 116.122 2329.65 116.519C2327.04 116.885 2323.1 119.567 2319.16 118.805C2315.22 118.043 2310 117.281 2308 117.281C2306 117.281 2302.12 118.409 2302.12 116.885C2302.12 115.36 2297.51 113.836 2297.51 113.836C2294.9 114.232 2292.96 113.836 2289.62 114.232C2286.35 114.598 2279.8 113.47 2277.8 113.47H2269.24C2267.24 113.47 2262.69 113.104 2260.69 113.47C2258.69 113.836 2256.08 115.757 2254.14 115.757H2248.2C2246.26 115.757 2242.98 114.994 2240.31 115.757C2237.65 116.519 2235.04 118.805 2231.76 118.409C2228.49 118.013 2230.49 117.281 2230.49 116.122C2230.49 114.964 2229.82 114.232 2227.21 114.232C2224.61 114.232 2221.94 114.994 2215.39 114.232C2208.84 113.47 2206.84 113.836 2203.56 114.598C2200.29 115.36 2193.07 115.36 2193.07 115.36C2193.07 115.36 2185.18 114.598 2183.24 114.598C2181.3 114.598 2176.69 116.488 2171.42 116.488C2166.14 116.488 2154.31 117.25 2151.04 118.013C2147.76 118.775 2145.76 120.299 2140.55 119.903C2135.27 119.537 2130.66 118.378 2128.72 119.537C2126.72 120.665 2120.84 121.427 2118.83 121.823C2116.89 122.189 2112.28 122.189 2112.28 122.189C2112.28 122.189 2110.34 121.427 2110.34 120.299C2110.34 119.171 2108.34 118.013 2106.4 118.775C2104.46 119.537 2099.18 121.061 2099.18 121.061C2099.18 121.061 2093.97 123.348 2093.97 121.823C2093.97 120.299 2097.91 119.171 2096.58 118.013C2095.3 116.885 2088.69 115.726 2084.75 116.885C2080.81 118.013 2072.25 118.013 2072.25 118.013C2072.25 118.013 2067.65 118.013 2063.1 118.409C2058.49 118.775 2051.27 118.775 2049.33 118.013C2047.33 117.25 2041.44 117.25 2041.44 117.25C2041.44 117.25 2033.56 116.092 2030.95 115.726C2028.34 115.36 2020.46 114.598 2016.52 114.598C2012.58 114.598 2004.69 115.36 2002.75 116.122C2000.75 116.885 1990.26 116.122 1986.31 116.122H1976.49C1974.49 116.122 1965.33 115.36 1962.72 116.519C1960.11 117.647 1954.17 119.567 1950.89 119.171C1947.62 118.805 1941.68 118.409 1939.07 118.409C1936.46 118.409 1927.91 118.013 1923.3 118.775C1918.69 119.537 1918.69 119.141 1911.47 119.537C1904.26 119.903 1902.92 121.061 1899.65 119.903C1896.37 118.775 1894.37 118.378 1892.43 117.616C1890.49 116.854 1887.82 117.616 1883.27 116.854C1878.66 116.092 1877.33 114.964 1873.45 114.568C1869.5 114.202 1867.56 113.805 1860.28 113.805C1853.01 113.805 1846.52 113.805 1843.24 112.677C1839.97 111.549 1834.69 111.153 1832.75 111.153C1830.81 111.153 1822.26 114.964 1822.26 114.964C1822.26 114.964 1813.71 114.598 1811.76 113.836C1809.82 113.074 1815.71 110.787 1810.49 110.025C1805.21 109.263 1800.67 109.629 1798.66 110.391C1796.66 111.153 1789.51 111.153 1789.51 111.153C1789.51 111.153 1781.62 109.629 1777.68 110.025C1773.74 110.391 1766.52 111.153 1763.91 111.153C1761.3 111.153 1752.08 111.153 1750.14 111.915C1748.14 112.677 1738.98 113.44 1738.98 113.44C1738.98 113.44 1729.77 113.074 1726.49 111.915C1723.22 110.787 1715.33 110.787 1710.72 111.549C1706.11 112.312 1702.17 116.122 1698.23 114.964C1694.29 113.836 1688.4 111.915 1685.13 111.915C1681.85 111.915 1673.3 112.677 1672.63 111.153C1672.03 109.629 1671.36 108.501 1671.36 106.977C1671.36 105.452 1664.14 103.562 1664.14 103.562C1664.14 103.562 1656.26 104.324 1653.65 105.849C1650.98 107.373 1645.77 109.659 1640.49 110.787C1635.27 111.915 1631.33 111.153 1628.06 110.421C1624.78 109.659 1616.23 111.184 1613.62 112.708C1610.95 114.232 1608.35 113.47 1607.07 111.946C1605.74 110.421 1597.85 110.056 1595.91 110.056C1593.97 110.056 1585.42 109.659 1581.48 111.184C1577.54 112.708 1572.26 114.994 1570.32 113.47C1568.38 111.946 1559.16 111.184 1555.88 110.056C1552.61 108.928 1551.27 107.007 1547.33 106.245C1543.39 105.483 1539.45 105.117 1536.17 104.355C1532.9 103.593 1528.29 101.702 1525.01 101.702C1521.74 101.702 1517.8 101.306 1515.79 100.544C1513.79 99.7818 1506.64 99.7818 1504.63 99.0196C1502.63 98.2574 1496.08 97.1294 1492.81 97.1294C1489.53 97.1294 1482.98 97.8916 1479.71 96.0014C1476.43 94.1113 1473.76 92.9528 1471.16 92.1907C1468.55 91.4285 1463.94 92.1907 1461.33 90.3005C1458.66 88.4104 1461.33 86.1239 1456.72 86.1239C1452.11 86.1239 1449.5 86.4897 1446.9 85.758C1444.29 84.9959 1441.68 84.5996 1438.34 84.5996C1435.01 84.5996 1434.4 84.5996 1430.46 83.8374C1426.52 83.0752 1421.91 82.3131 1418.63 83.0752C1415.3 83.8374 1408.75 80.7888 1405.47 82.3131C1402.2 83.8374 1391.7 88.014 1389.1 86.1239C1386.49 84.2337 1385.82 82.3131 1382.55 81.1851C1379.27 80.0266 1376 79.2645 1372.05 79.2645C1368.11 79.2645 1366.78 81.9168 1362.9 81.9168C1359.01 81.9168 1351.74 80.0266 1349.74 81.1546C1347.79 82.2826 1343.18 84.5691 1341.18 83.0448C1339.24 81.5204 1334.63 80.7583 1333.3 81.9168C1331.96 83.0448 1326.08 84.5996 1326.08 82.6789C1326.08 80.7583 1324.75 78.8681 1322.81 78.4718C1320.81 78.106 1318.86 78.106 1314.92 78.106C1310.98 78.106 1304.43 78.8681 1303.1 79.9961C1301.76 81.1546 1295.21 83.0448 1293.94 81.5204C1292.6 79.9961 1286.05 78.8681 1284.11 78.8681C1282.17 78.8681 1272.29 79.234 1272.29 79.234C1272.29 79.234 1266.34 76.9475 1263.73 78.4718C1261.13 79.9961 1254.52 81.1241 1251.91 80.7583C1249.24 80.3924 1243.36 81.5204 1238.81 81.5204C1234.26 81.5204 1228.98 79.234 1226.31 80.3924C1223.71 81.5204 1218.43 84.9654 1216.49 83.4411C1214.49 81.9168 1209.94 81.1546 1207.27 81.9168C1204.66 82.6789 1195.44 84.5691 1192.83 84.2032C1190.23 83.8374 1183.62 84.2032 1181.01 84.9654C1178.4 85.7276 1171.85 86.0934 1169.85 84.9654C1167.85 83.8374 1165.91 83.8374 1161.96 84.5691C1158.02 85.3312 1151.47 87.2214 1149.47 86.0934C1147.53 84.9654 1144.86 84.2032 1141.59 84.5691C1138.31 84.9654 1129.76 85.3312 1124.54 85.7276C1119.27 86.0934 1117.33 88.014 1113.38 88.014C1109.44 88.014 1104.83 87.6177 1102.22 88.014C1099.62 88.3799 1097.01 89.142 1093.07 88.3799C1089.12 87.6177 1083.85 86.8556 1081.24 86.4897C1078.63 86.1239 1073.35 88.014 1069.41 87.6177C1065.47 87.2214 1063.53 85.3312 1058.25 86.4897C1052.98 87.6177 1049.7 86.1239 1045.15 86.4897C1040.54 86.8556 1038.54 90.3005 1033.33 88.7762C1028.05 87.2519 1022.83 86.4897 1021.5 85.3617C1020.16 84.2337 1011.01 82.7094 1009.01 83.0752C1007.06 83.4411 999.786 84.9654 997.846 85.7276C995.905 86.4897 984.745 85.3617 980.136 84.9654C975.527 84.5691 970.978 84.5691 968.309 84.5691C965.641 84.5691 961.759 84.9654 959.758 83.0448C957.817 81.1546 951.206 81.5204 949.265 81.9168C947.264 82.2826 943.322 78.5023 943.322 78.5023H933.496C931.495 78.5023 927.613 74.6915 926.279 76.6121C924.945 78.5023 920.396 79.6608 918.395 79.6608C916.393 79.6608 909.237 79.2645 907.235 78.8986C905.294 78.5328 900.685 80.7888 898.077 81.1851C895.469 81.5509 892.801 82.3131 890.193 83.4716C887.584 84.5996 876.425 87.2824 874.424 88.0445C872.483 88.8067 870.481 90.331 864.538 91.8553C858.655 93.3796 855.38 94.1418 849.436 95.3003C843.553 96.4283 837.609 97.1904 837.609 94.5381C837.609 91.8858 827.784 94.5381 830.392 92.2516C833 89.9652 831.059 89.5688 831.059 88.4408C831.059 87.3128 827.784 86.1544 823.175 87.6787C818.565 89.203 814.016 87.6787 814.016 87.6787C814.016 87.6787 810.074 83.8679 806.799 83.8679C803.524 83.8679 799.582 83.8679 796.974 85.758C794.366 87.6482 790.424 88.4104 788.422 86.886C786.421 85.3617 774.655 86.5202 771.986 86.886C769.378 87.2824 764.102 87.2824 760.827 86.886C757.552 86.5202 752.275 86.1239 749 86.5202C745.725 86.886 737.173 87.2824 737.173 87.2824C737.173 87.2824 732.564 85.3922 728.015 84.6301C723.406 83.8679 718.19 83.8679 713.581 82.7399C708.971 81.6119 702.421 80.8497 701.087 82.7399C699.753 84.63 698.479 84.6301 693.87 84.6301C689.26 84.6301 680.708 84.63 678.768 85.0264C676.827 85.3922 670.883 85.3922 668.275 85.3922C665.667 85.3922 661.058 88.4408 658.45 86.9165C655.842 85.3922 654.508 85.3922 650.566 87.3128C646.623 89.203 643.348 89.9652 641.407 88.4713C639.406 86.947 638.8 84.2947 636.798 84.2947C634.797 84.2947 626.306 85.819 623.031 85.819C619.755 85.819 615.813 86.5812 611.204 85.819C606.595 85.0569 600.044 83.9289 598.043 85.0569C596.102 86.1849 593.433 89.6298 589.491 89.6298C585.549 89.6298 576.998 89.264 574.39 88.5018C571.782 87.7397 567.172 88.136 563.897 89.264C560.622 90.392 563.23 92.3126 558.014 91.9163C552.738 91.5504 550.13 90.7883 548.189 92.3126C546.187 93.8369 543.579 96.8856 539.637 96.1234C535.695 95.3612 535.695 94.5991 533.754 93.4711C531.753 92.3431 526.537 90.8188 521.928 92.3431C517.318 93.8674 512.709 94.9954 508.16 94.2332C503.551 93.4711 498.335 92.7089 494.393 93.4711C490.45 94.2332 486.508 95.3612 484.567 96.5197C482.566 97.6477 479.291 96.8856 476.683 95.7576C474.075 94.6296 467.464 93.4711 466.191 95.3917C464.856 97.2819 461.581 98.8367 457.639 98.8367C453.697 98.8367 451.089 101.123 445.812 100.727C440.536 100.361 435.987 100.727 433.318 101.093C430.71 101.489 428.709 102.617 426.101 104.141C423.493 105.666 419.551 106.428 418.217 105.269C416.882 104.141 410.999 102.617 409.665 104.141C408.331 105.666 405.723 107.556 399.84 106.794C393.957 106.031 394.563 106.428 391.955 108.318C389.348 110.239 385.405 110.604 383.404 110.604C381.402 110.604 382.737 113.653 376.187 113.653C369.636 113.653 368.969 114.415 365.027 112.891C361.085 111.367 359.75 111.367 354.534 111.367C349.319 111.367 345.376 109.476 343.375 108.318C341.434 107.19 340.1 107.952 333.55 107.952C327 107.952 321.723 111.001 317.114 109.842C312.504 108.714 307.288 108.318 298.07 107.952C288.851 107.556 290.852 107.952 284.302 106.794C277.752 105.666 275.083 103.745 271.202 104.903C267.26 106.062 261.377 107.19 259.375 106.428C257.434 105.666 247.548 106.428 244.273 105.666C240.998 104.903 235.055 104.507 227.837 104.141C220.62 103.775 208.793 103.379 206.852 101.855C204.912 100.331 199.635 102.617 194.359 100.331C189.082 98.044 184.533 98.4404 182.532 96.916C180.531 95.3917 177.255 95.3917 175.315 93.8674C173.313 92.3431 170.038 92.7394 166.096 93.1052C162.154 93.4711 153.602 90.0566 148.386 91.2151C143.11 92.3431 140.502 95.0259 134.619 95.0259C128.736 95.0259 124.793 93.8979 121.518 95.0259C118.243 96.1539 108.418 96.1539 104.476 96.1539C100.534 96.1539 93.9834 93.1052 90.7084 95.0259C87.4332 96.916 84.1582 98.8367 80.8832 98.4404C77.608 98.044 68.3893 97.3124 66.4485 97.6782C64.447 98.044 58.5641 98.4404 55.2889 98.4404C52.0139 98.4404 49.406 99.2025 44.1295 99.2025C38.8529 99.2025 36.245 98.4404 30.3619 99.9647C24.4789 101.489 21.2039 101.855 17.2616 100.727C13.3193 99.5988 1.49268 100.727 0.219116 97.6782C-1.11523 94.6296 2.15991 92.7394 -4.39026 93.5016C-10.9404 94.2637 -14.2156 94.2637 -15.5499 93.1357C-16.8842 92.0077 -21.4329 88.9591 -28.0437 88.9591C-34.6545 88.9591 -43.1455 87.4348 -43.1455 85.1483C-43.1455 82.8618 -51.0299 83.624 -52.3643 81.3375C-53.6985 79.051 -54.9722 77.9231 -60.2487 77.1609C-65.4646 76.3987 -70.074 76.0024 -74.0162 76.0024C-77.9584 76.0024 -80.5663 76.3683 -84.5085 75.2403C-88.4508 74.1123 -90.0277 74.8439 -95.3042 75.2403C-100.52 75.6366 -106.464 77.1304 -110.406 76.3987C-114.348 75.6366 -114.106 81.2156 -116.774 80.4534C-119.382 79.6913 -125.993 81.9777 -129.268 81.5814C-132.543 81.2156 -138.487 82.7094 -142.368 82.7094C-146.25 82.7094 -148.919 82.7094 -154.195 81.5814C-159.472 80.4534 -163.414 78.5328 -166.689 77.7706C-169.964 77.0085 -175.908 75.4842 -182.458 76.2463C-189.008 77.0085 -192.283 76.2463 -195.558 75.8805C-198.833 75.5146 -207.385 75.8805 -212.661 75.5146C-217.938 75.1183 -228.43 69.8137 -229.704 71.338C-231.038 72.8623 -231.038 75.911 -236.921 73.9903C-242.804 72.1002 -242.198 72.8623 -244.806 74.3562C-247.414 75.8805 -252.69 75.1183 -252.69 75.1183C-252.69 75.1183 -258.634 77.4048 -259.907 75.5146C-261.242 73.6245 -265.79 72.8623 -268.459 74.3866C-271.067 75.911 -273.736 75.5146 -276.344 74.7525C-278.951 73.9903 -280.953 72.1002 -286.169 73.2282C-291.445 74.3562 -291.445 75.5146 -294.053 73.6245C-296.661 71.7343 -299.936 73.2282 -307.154 72.8623C-314.371 72.4965 -315.705 70.21 -320.921 73.2282C-326.198 76.2768 -328.806 77.8011 -332.081 74.7525C-335.356 71.7038 -341.906 72.8623 -349.123 72.8623C-356.34 72.8623 -360.95 72.8623 -366.166 74.7525C-371.442 76.6426 -376.658 77.4048 -382.602 77.039C-388.485 76.6426 -392.427 75.5146 -397.703 76.6426C-402.98 77.8011 -410.864 78.5328 -414.807 78.5328C-418.749 78.5328 -429.241 77.4048 -431.849 78.5328C-434.457 79.6608 -443.676 84.6301 -444.95 81.5814C-446.284 78.5328 -441.674 76.2463 -446.89 75.4842C-452.167 74.722 -459.384 75.4842 -463.326 75.4842C-467.269 75.4842 -472.545 74.722 -473.819 76.6121C-475.153 78.5023 -484.311 80.4229 -488.921 78.5023C-493.53 76.6121 -498.746 75.4537 -503.355 74.6915C-507.965 73.9293 -522.399 73.5635 -526.341 74.3257C-530.284 75.0878 -537.501 77.3743 -541.443 78.8986C-545.385 80.4229 -547.993 79.6608 -554.604 80.7888C-561.154 81.9168 -570.373 83.8374 -572.981 81.9168C-575.589 80.0266 -579.531 78.5023 -585.475 79.2645C-591.358 80.0266 -593.359 81.5509 -599.91 80.3924C-606.46 79.2645 -609.735 77.7401 -612.403 77.7401C-615.072 77.7401 -622.229 78.5023 -630.113 77.7401C-637.997 76.978 -639.999 77.3438 -645.215 76.5817C-650.491 75.8195 -654.434 76.978 -660.317 76.5817C-666.2 76.2158 -673.417 75.0573 -676.086 75.8195C-678.693 76.5817 -685.911 79.9961 -691.187 79.9961C-696.464 79.9961 -697.07 80.3924 -699.739 81.1546C-702.347 81.9168 -708.29 82.2826 -710.231 82.2826C-712.172 82.2826 -712.172 84.5691 -718.783 86.0934C-725.333 87.6177 -724.666 86.8556 -731.277 87.6177C-737.827 88.3799 -747.046 92.5565 -748.986 92.5565C-750.927 92.5565 -754.869 92.5565 -760.146 91.7943C-765.422 91.0322 -769.971 93.6845 -772.64 94.843C-775.248 96.0014 -788.409 98.6538 -791.684 98.6538C-794.959 98.6538 -806.118 98.2574 -810.061 97.1294C-814.003 96.0014 -823.161 97.8916 -825.83 98.6538C-828.438 99.4159 -838.991 99.4159 -842.266 99.4159C-845.541 99.4159 -854.759 99.0501 -856.7 99.4159C-858.641 99.7818 -862.583 99.4159 -867.193 101.306C-871.802 103.196 -875.744 103.196 -879.686 102.465C-883.629 101.702 -888.238 105.117 -892.787 102.465C-897.396 99.7818 -905.281 98.2574 -911.164 97.8916C-917.047 97.4953 -924.264 99.0501 -930.208 97.4953C-936.091 95.971 -936.758 95.2088 -942.702 95.971C-948.585 96.7331 -951.92 98.6233 -958.47 97.4953C-965.021 96.3673 -971.571 96.7331 -975.513 97.1294C-979.455 97.4953 -986.005 98.2879 -989.948 97.4953C-993.89 96.7331 -994.557 92.6784 -998.499 93.4406C-1002.44 94.2028 -1016.75 90.0261 -1019.42 91.5504C-1022.03 93.0748 -1025.31 95.7271 -1029.92 95.3612C-1034.53 94.9954 -1038.47 94.5991 -1040.41 95.7271C-1042.35 96.8551 -1045.68 98.7757 -1050.9 98.7757C-1056.12 98.7757 -1059.45 100.3 -1061.39 101.062C-1063.33 101.824 -1071.22 102.952 -1074.55 104.111C-1077.83 105.239 -1079.83 106.001 -1088.32 106.001C-1096.81 106.001 -1097.54 106.001 -1101.42 104.111C-1105.36 102.221 -1107.97 102.19 -1111.91 103.714C-1115.86 105.239 -1120.47 107.129 -1127.02 107.129C-1133.57 107.129 -1138.84 107.891 -1142.78 108.257C-1146.73 108.623 -1155.22 106.885 -1159.16 106.55C-1176.2 105.117 -1188.21 106.245 -1188.21 106.245V45.7295C-1188.21 45.7295 -1177.6 48.1989 -1173.29 45.7295C-1169.05 43.2601 -1160.49 46.888 -1160.49 46.888H-1147.7C-1143.45 46.888 -1140.24 46.2478 -1137.08 45.0283C-1133.87 43.7784 -1129.62 45.0283 -1124.29 46.2478C-1118.95 47.4977 -1113.67 44.3881 -1110.46 41.9187C-1107.24 39.4493 -1096.63 40.6992 -1092.38 40.6992C-1088.14 40.6992 -1079.59 39.4798 -1075.34 39.4798C-1071.1 39.4798 -1062.55 38.2299 -1059.39 38.2299C-1056.24 38.2299 -1047.69 36.3702 -1043.44 35.7605C-1039.2 35.1507 -1027.07 37.0104 -1027.07 34.541C-1027.07 32.0716 -1022.82 30.2119 -1018.57 30.8522C-1014.33 31.4619 -1010.08 30.8522 -1006.87 30.8522C-1003.65 30.8522 -995.042 34.3886 -989.705 34.9983C-984.368 35.608 -978 33.1386 -973.754 31.3095C-969.509 29.4498 -964.172 31.3095 -957.803 30.6997C-951.435 30.09 -946.098 27.6206 -942.883 27.6206C-939.669 27.6206 -924.81 27.0109 -922.626 25.1512C-920.504 23.2916 -919.412 22.6818 -911.952 23.2916C-904.492 23.9013 -902.369 23.9013 -897.032 23.2916C-891.695 22.6818 -887.45 22.6818 -881.081 22.0721C-874.713 21.4624 -865.131 19.6027 -856.579 19.6027C-848.027 19.6027 -825.708 18.993 -821.463 18.993C-817.217 18.993 -805.512 18.3833 -800.175 17.1333C-794.838 15.9139 -788.469 15.2736 -784.224 14.0542C-779.978 12.8347 -772.519 12.8347 -769.304 11.5848C-766.09 10.3653 -759.721 7.86547 -756.568 10.3349C-753.353 12.8043 -744.862 13.414 -740.617 14.6639C-736.371 15.8834 -731.034 15.8834 -728.911 10.9751C-726.789 6.03629 -720.42 10.9751 -713.992 11.5848C-707.623 12.1945 -704.409 14.0542 -700.163 14.6639C-695.918 15.2736 -693.795 15.2736 -689.55 14.6639C-685.304 14.0542 -680.998 10.3349 -680.998 10.3349C-680.998 10.3349 -672.507 8.4752 -668.201 7.25574C-663.956 6.03629 -653.281 8.4752 -649.036 9.72514C-644.79 10.9751 -640.545 10.3349 -637.33 8.4752C-634.116 6.61553 -631.993 9.11541 -626.717 10.3349C-621.38 11.5848 -617.134 10.9446 -613.92 10.9446C-610.705 10.9446 -606.46 11.5543 -602.214 9.69465C-597.969 7.83498 -604.337 4.75586 -604.337 1.06702C-604.337 -2.62183 -595.846 4.14614 -591.54 7.25574C-587.294 10.3349 -588.325 10.9446 -581.957 10.9446C-575.589 10.9446 -576.62 9.69465 -572.375 9.69465C-568.129 9.69465 -562.792 11.5543 -558.546 12.7738C-554.301 13.9932 -542.596 13.3835 -536.167 13.3835C-529.738 13.3835 -523.37 10.9141 -515.91 12.1336C-508.45 13.3835 -518.032 6.58504 -513.787 6.58504C-509.541 6.58504 -503.113 5.36559 -497.836 4.75586C-492.499 4.14614 -491.468 6.58504 -489.345 9.08492C-487.222 11.5543 -485.1 13.414 -481.885 13.414C-478.671 13.414 -476.548 7.86547 -470.18 7.86547C-463.812 7.86547 -462.72 11.5848 -459.566 12.8043C-456.352 14.0237 -445.738 9.72514 -441.493 8.4752C-437.247 7.25574 -430.818 10.3349 -425.542 10.9446C-420.205 11.5543 -410.622 10.3349 -407.468 8.4752C-404.314 6.61553 -395.763 10.9446 -395.763 10.9446C-395.763 10.9446 -382.966 13.414 -377.689 14.0237C-372.352 14.6639 -359.616 10.9446 -359.616 10.9446C-359.616 10.9446 -343.665 8.4752 -340.45 7.86547C-337.236 7.25574 -334.082 5.39608 -327.714 6.0058C-321.346 6.61553 -317.039 7.22526 -307.457 7.86547C-297.874 8.4752 -302.12 3.53641 -298.966 5.39608C-295.751 7.25574 -292.598 6.61553 -288.352 5.39608C-284.107 4.17662 -278.769 5.39608 -278.769 5.39608C-278.769 5.39608 -268.095 3.53641 -264.941 6.61553C-261.727 9.69465 -257.482 8.4752 -253.236 9.69465C-248.991 10.9141 -243.653 10.9446 -240.5 10.3044C-237.285 9.69465 -227.702 10.9141 -222.365 10.9141C-217.028 10.9141 -210.66 12.1336 -210.66 9.05444C-210.66 5.97532 -203.2 7.8045 -197.863 9.66416C-192.526 11.5238 -190.403 11.5238 -186.157 13.3835C-181.912 15.2432 -175.544 15.2432 -171.238 15.8529C-166.992 16.4626 -159.532 15.8529 -156.318 13.3835C-153.103 10.9141 -147.827 13.9932 -144.612 17.0723C-141.398 20.1515 -135.394 12.6823 -132.179 13.3225C-129.025 13.9322 -121.565 14.542 -116.228 14.542C-110.891 14.542 -108.89 11.0665 -103.613 11.0665C-98.3367 11.0665 -94.0305 11.6763 -90.816 11.6763C-87.6017 11.6763 -82.3252 12.286 -73.7736 13.5359C-65.2826 14.7859 -63.1599 13.5359 -58.8538 14.7859C-54.6083 16.0053 -48.24 17.865 -42.9028 18.4747C-37.5657 19.0844 -31.1975 20.3344 -23.7375 20.9441C-16.2776 21.5538 -9.90942 24.0232 -9.90942 24.0232C-9.90942 24.0232 -3.54126 25.8829 5.01038 24.6329C13.5013 23.383 13.5013 25.2427 13.5013 25.2427L23.084 25.8524C23.084 25.8524 33.7583 25.8524 38.0038 27.7121C42.2493 29.5717 48.6782 28.3218 48.6782 25.8524C48.6782 23.383 52.9236 22.7733 58.2607 22.1636C63.5979 21.5538 64.629 23.4135 67.8434 25.2427C71.0579 27.1023 76.3344 28.9315 77.426 31.4009C78.5178 33.8703 84.886 35.0898 88.1005 35.0898C91.3149 35.0898 95.5603 32.0106 96.5914 29.5412C97.6831 27.0719 104.051 30.1815 109.388 30.1815C114.726 30.1815 122.186 28.9315 122.186 28.9315C122.186 28.9315 130.677 27.0719 133.891 27.0719C137.105 27.0719 149.842 22.7428 151.965 20.9136C154.087 19.054 163.67 19.6637 164.762 21.5233C165.793 23.383 173.253 25.2122 173.253 25.2122C173.253 25.2122 181.744 27.6816 184.958 30.151C188.172 32.6204 191.326 29.5108 196.663 27.6816C202 25.8219 206.246 25.8219 206.246 25.8219C206.246 25.8219 213.706 24.6025 219.043 25.2122C224.38 25.8219 226.503 25.8219 233.963 27.0719C241.423 28.2913 240.331 30.151 245.668 32.0106C251.005 33.8703 252.036 32.0106 255.251 29.5412C258.465 27.0719 263.742 26.4621 263.742 26.4621C263.742 26.4621 270.11 22.7733 276.539 22.7733C282.968 22.7733 280.785 24.633 282.907 26.4621C285.03 28.3218 290.367 28.3218 289.276 26.4621C288.244 24.6025 291.398 22.7733 292.49 20.9136C293.521 19.054 298.858 20.3039 303.164 22.1636C307.41 24.0232 312.747 25.8524 314.87 28.3218C316.992 30.7912 328.698 25.8524 335.127 22.7733C341.495 19.6942 344.709 21.5538 352.169 21.5538C359.629 21.5538 357.506 21.5538 371.334 18.4747C385.162 15.3956 377.703 16.615 384.071 17.2553C390.439 17.865 392.622 17.865 397.899 15.3956C403.236 12.9262 400.022 12.3165 404.267 14.1761C408.513 16.0358 409.604 17.2553 413.85 18.4747C418.095 19.7247 422.341 19.0844 425.555 19.0844C428.77 19.0844 439.383 17.8345 442.598 17.8345C445.812 17.8345 454.303 20.9136 459.64 20.9136C464.977 20.9136 469.223 21.5538 474.56 23.383C479.897 25.2427 483.112 23.383 489.48 20.9136C495.848 18.4442 493.726 18.4442 500.154 18.4442C506.583 18.4442 509.737 15.9748 512.951 17.2248C516.166 18.4442 525.749 20.3039 531.025 19.6942C536.362 19.0844 539.577 17.8345 542.73 19.0844C545.945 20.3344 552.313 19.0844 555.528 17.8345C558.742 16.615 564.019 18.4442 569.356 19.6942C574.693 20.9441 577.847 22.1636 583.184 21.5538C588.521 20.9441 597.012 23.4135 600.226 23.4135C603.441 23.4135 613.024 23.4135 616.177 22.194C619.392 20.9441 624.668 21.5843 627.883 21.5843C631.097 21.5843 639.588 20.9746 642.802 20.3344C646.017 19.7247 651.293 20.3344 654.508 20.9441C657.722 21.5538 666.213 20.3344 666.213 20.3344C666.213 20.3344 673.673 18.4747 683.256 18.4747H701.329C704.544 18.4747 713.035 18.4747 716.249 19.0844C719.464 19.6942 721.586 19.6942 724.801 21.5538C728.015 23.4135 733.292 22.1636 736.506 22.1636C739.721 22.1636 747.181 22.1636 750.334 24.6329C753.488 27.1023 759.917 25.2427 763.071 24.0232C766.285 22.7733 772.653 23.4135 775.868 25.2427C779.022 27.1023 784.359 25.8524 788.604 25.2427C792.85 24.6329 801.401 24.0232 801.401 24.0232C801.401 24.0232 809.892 24.0232 818.444 24.6329C826.935 25.2427 828.027 17.865 828.027 17.865L840.824 19.0844C840.824 19.0844 849.315 18.4747 853.56 17.2248C857.806 16.0053 861.02 14.7554 863.143 12.8957C865.265 11.036 871.634 14.7554 872.725 17.2248C873.817 19.6942 880.185 19.6942 884.431 18.4442C888.676 17.2248 892.922 17.8345 897.167 17.8345C901.413 17.8345 910.995 16.5846 910.995 16.5846C910.995 16.5846 920.578 15.9748 923.732 16.5846C926.946 17.1943 933.314 16.5846 937.56 14.1152C941.805 11.6458 949.265 13.5054 955.633 14.1152C962.002 14.7249 964.185 13.5054 971.584 12.8652C979.044 12.2555 984.381 10.3958 984.381 10.3958C984.381 10.3958 998.209 8.53617 1004.64 8.53617C1011.07 8.53617 1014.22 8.53617 1017.44 10.3958C1020.65 12.2555 1025.99 10.3958 1034.48 10.3958C1042.97 10.3958 1047.28 10.3958 1051.52 11.6153C1055.77 12.8652 1061.1 11.6153 1064.32 10.3958C1067.53 9.17638 1076.02 8.53617 1076.02 8.53617C1076.02 8.53617 1085.61 8.53617 1093.07 9.1459C1100.53 9.75562 1107.99 8.53617 1116.54 9.1459C1125.03 9.75562 1124 5.42656 1127.15 5.42656C1130.3 5.42656 1133.52 4.81684 1140.98 4.81684C1148.44 4.81684 1149.47 2.95717 1153.78 2.34744C1158.02 1.73772 1161.24 1.73772 1161.24 1.73772C1161.24 1.73772 1173 2.95717 1179.37 2.34744C1185.74 1.73772 1189.98 -0.121948 1193.2 -0.121948C1196.41 -0.121948 1201.69 1.73772 1206 1.73772C1210.3 1.73772 1214.49 2.95717 1217.7 2.95717C1220.92 2.95717 1230.5 2.95717 1231.53 4.81684C1232.62 6.6765 1245.36 6.03629 1249.66 7.28623C1253.91 8.53617 1261.37 8.53617 1264.52 8.53617C1267.68 8.53617 1275.2 6.6765 1283.69 7.28623C1292.18 7.89596 1296.48 8.53617 1302.85 10.3653C1309.28 12.225 1315.65 10.9751 1318.86 12.8347C1322.08 14.6944 1327.36 15.3041 1330.57 15.3041C1333.78 15.3041 1344.4 12.8347 1344.4 12.8347C1344.4 12.8347 1351.86 9.75562 1357.13 11.5848C1362.47 13.4445 1367.81 11.5848 1370.96 13.4445C1374.12 15.3041 1376.3 15.3041 1381.64 15.3041C1386.97 15.3041 1390.19 16.5541 1393.34 17.1638C1396.56 17.7735 1405.05 19.6332 1409.29 19.6332C1413.54 19.6332 1418.88 20.2429 1422.09 22.7123C1425.3 25.1817 1430.58 23.322 1434.89 21.4624C1439.13 19.6027 1439.13 20.2124 1443.38 20.2124H1456.18L1468.97 18.9625C1468.97 18.9625 1471.1 23.2916 1475.4 23.9013C1479.65 24.511 1483.89 22.6818 1486.01 20.2124C1488.14 17.743 1490.26 17.743 1494.51 18.3528C1498.75 18.9625 1497.72 20.8222 1501.97 22.6818C1506.21 24.511 1512.64 25.1512 1514.76 28.8401C1516.89 32.5289 1525.38 26.9804 1525.38 26.9804C1525.38 26.9804 1531.74 26.3707 1537.08 26.9804C1542.42 27.5901 1540.3 29.4498 1542.42 32.5289C1544.54 35.608 1553.09 30.6692 1557.34 29.4498C1561.65 28.2303 1562.68 31.3095 1568.01 33.1386C1573.35 34.9678 1583.96 34.3581 1583.96 34.3581C1583.96 34.3581 1595.67 35.5775 1599.92 35.5775C1604.16 35.5775 1616.96 34.3581 1620.17 33.7179C1623.33 33.1082 1630.79 33.1082 1635.03 33.7179C1639.28 34.3276 1643.52 36.1873 1645.71 39.2664C1647.83 42.3455 1656.38 36.797 1656.38 36.797C1656.38 36.797 1663.84 33.7179 1664.87 36.797C1665.96 39.8761 1671.3 37.4067 1674.45 36.797C1677.67 36.1873 1684.04 36.1873 1687.25 36.1873C1690.46 36.1873 1697.93 37.4372 1702.17 37.4372C1706.42 37.4372 1718.12 36.8275 1722.37 36.8275H1737.29C1743.65 36.8275 1752.21 36.8275 1756.45 35.608C1760.7 34.3886 1771.37 35.608 1777.74 35.608C1784.11 35.608 1793.69 34.3886 1796.91 34.3886C1800.12 34.3886 1806.49 34.3886 1811.82 32.5289C1817.16 30.6692 1821.41 34.3886 1821.41 34.3886C1821.41 34.3886 1826.74 36.2482 1832.02 36.2482C1837.3 36.2482 1846.94 37.4677 1850.09 38.1079C1853.31 38.7176 1867.14 38.1079 1870.35 39.3274C1873.57 40.5468 1884.18 43.0162 1899.1 44.8759C1914.02 46.7051 1917.17 47.3453 1920.39 48.5647C1923.6 49.8147 1931 48.5647 1933.18 46.7051C1935.31 44.8759 1942.77 44.8759 1942.77 46.7051C1942.77 48.5342 1944.89 49.1744 1949.14 50.3939C1953.38 51.6134 1973.64 52.2536 1978.98 52.8633C1984.25 53.473 1999.17 52.8633 2003.48 54.1132C2007.72 55.3327 2019.43 54.1132 2022.64 52.8633C2025.86 51.6438 2034.35 52.2536 2034.35 52.2536C2034.35 52.2536 2046.05 52.2536 2049.21 53.473C2052.42 54.6925 2057.76 54.723 2064.13 55.9424C2070.56 57.1619 2076.92 54.6925 2076.92 54.6925C2076.92 54.6925 2088.63 53.4425 2092.88 52.8328C2097.12 52.2231 2101.37 52.8328 2108.83 52.8328C2116.29 52.8328 2125.87 52.2231 2129.08 52.2231C2132.3 52.2231 2137.57 51.6134 2140.79 50.3634C2144 49.1135 2148.25 50.3634 2149.28 52.8328C2150.37 55.3022 2155.65 54.0827 2158.86 54.0827C2162.08 54.0827 2172.69 52.8328 2172.69 52.8328C2172.69 52.8328 2179.06 52.8328 2185.43 55.3022C2191.8 57.7716 2198.22 52.8328 2203.5 53.4425C2208.84 54.0523 2213.08 53.4425 2221.57 52.2231C2230.07 51.0036 2236.49 52.2231 2239.71 52.8328C2242.86 53.4425 2248.2 53.4425 2251.41 51.6134C2254.63 49.7537 2264.21 51.0036 2268.46 51.6134C2272.7 52.2231 2279.13 51.6134 2284.41 51.0036C2289.74 50.3939 2297.2 51.0036 2302.54 51.6134C2307.88 52.2231 2314.25 51.6134 2318.49 49.7537C2322.74 47.894 2328.08 48.5037 2334.44 47.894C2340.81 47.2843 2341.9 46.0344 2341.9 43.565C2341.9 41.0956 2349.36 41.7053 2349.36 44.8149C2349.36 47.9245 2352.58 48.5037 2352.58 48.5037C2352.58 48.5037 2361.07 51.5829 2365.31 51.5829C2369.56 51.5829 2373.8 53.4425 2378.05 54.662C2382.36 55.9119 2386.6 54.0523 2389.76 52.8023C2392.97 51.5829 2402.55 51.5829 2402.55 51.5829L2411.04 54.662C2411.04 54.662 2418.5 54.662 2422.75 52.8023C2426.99 50.9427 2431.24 52.8023 2434.45 52.1926C2437.67 51.5829 2445.13 50.9427 2448.28 52.8023C2451.5 54.662 2455.74 53.412 2459.99 52.8023C2464.23 52.1926 2470.66 54.0523 2475.94 54.0523C2481.22 54.0523 2482.31 50.9731 2483.4 48.5037C2484.43 46.0344 2490.86 47.2538 2492.98 49.7537C2495.1 52.2231 2498.32 52.8328 2502.56 53.4425C2506.81 54.0523 2511.06 50.9731 2515.3 53.4425C2519.61 55.9119 2525.97 52.2231 2529.13 51.5829C2532.34 50.9731 2538.71 53.4425 2538.71 53.4425H2554.66C2561.09 53.4425 2563.21 56.5217 2563.21 58.3813C2563.21 60.241 2568.55 59.6313 2572.8 58.3813C2577.04 57.1619 2579.17 60.241 2587.72 57.7716C2596.27 55.3022 2596.27 57.7716 2599.42 59.6313C2602.64 61.4909 2604.76 60.8507 2610.04 59.6313C2615.37 58.4118 2616.4 58.3813 2622.83 59.0215C2629.2 59.6313 2628.17 60.8812 2632.42 59.0215C2636.66 57.1619 2643.09 60.8812 2649.46 60.8812C2655.83 60.8812 2655.83 60.8812 2660.07 61.4909C2664.38 62.1007 2669.65 62.7104 2674.99 62.7104C2680.33 62.7104 2683.48 62.7104 2685.6 60.241C2687.73 57.7716 2696.28 60.8507 2700.52 57.1619C2704.77 53.473 2707.98 55.9119 2714.35 56.5521C2720.72 57.1619 2726.06 57.1619 2729.27 55.9424C2732.49 54.6925 2743.1 52.8633 2743.1 52.8633L2753.71 55.9424C2753.71 55.9424 2764.39 55.3327 2768.63 53.473C2772.88 51.6134 2784.59 51.6134 2788.83 49.7842C2793.08 47.9245 2800.54 44.8454 2800.54 44.8454C2800.54 44.8454 2812.24 46.0648 2818.61 47.3148C2824.98 48.5342 2829.28 47.3148 2833.53 45.4551C2837.77 43.5954 2845.23 44.8454 2850.57 45.4551C2855.91 46.0648 2863.37 46.7051 2866.52 46.7051C2869.68 46.7051 2880.35 44.8454 2880.35 44.8454C2880.35 44.8454 2893.15 45.4551 2896.3 46.0648C2899.46 46.6746 2905.88 46.0648 2908.01 44.2052C2910.13 42.3455 2914.38 45.4246 2918.68 47.2843C2922.93 49.144 2927.17 48.5037 2933.6 49.7537C2939.97 51.0036 2943.18 51.0036 2948.52 49.1135C2953.86 47.2843 2957.01 44.1747 2957.01 44.1747H2975.15C2978.3 44.1747 2984.73 44.7844 2987.88 46.0344C2991.1 47.2538 2996.43 47.2843 3001.71 47.2843C3006.99 47.2843 3012.32 46.6746 3015.54 44.8149C3018.75 42.9552 3021.91 42.3455 3025.12 42.3455C3028.34 42.3455 3034.7 42.3455 3038.95 42.9552C3043.2 43.565 3048.53 42.3455 3051.69 41.7358C3054.9 41.1261 3060.72 43.1381 3067.09 43.1381C3073.46 43.1381 3077.89 46.766 3086.98 45.3027C3100.87 43.0467 3109.42 45.5161 3109.42 45.5161V105.879L3109 106.092Z" fill="white"/>
</g>
<defs>
<clipPath id="clip0_76_16821">
<rect width="1920" height="126" fill="white"/>
</clipPath>
</defs>
</svg>
