<svg width="1023" height="687" viewBox="0 0 1023 687" fill="none" xmlns="http://www.w3.org/2000/svg">
<g style="mix-blend-mode:multiply" opacity="0.3">
<path d="M436.005 343.791C437.912 342.654 442.299 343.096 445.061 344.44L452.568 348.075C455.339 349.419 456.025 351.429 454.118 352.576L435.169 363.906C433.262 365.052 429.485 364.883 426.714 363.53L419.217 359.894C416.455 358.551 415.149 356.258 417.056 355.112L436.005 343.782V343.791Z" fill="#1A1A1A"/>
</g>
<path d="M437.339 353.393L428.452 345.68L439.838 339.319L452.746 345.06L437.339 353.393Z" fill="#CECFD1"/>
<path d="M452.774 345.041L438.354 352.81L438.363 353.562L452.784 345.802L452.774 345.041Z" fill="#2474A8"/>
<path d="M417.112 355.573C417.488 353.28 418.982 351.373 420.447 351.307C420.522 351.307 420.598 351.307 420.673 351.307C420.41 351.251 420.137 351.232 419.855 351.251C417.723 351.345 415.684 353.318 415.308 355.648C414.923 357.978 416.342 359.781 418.474 359.678C418.709 359.669 418.935 359.641 419.151 359.584C419.132 359.584 419.113 359.584 419.104 359.584C417.638 359.659 416.755 357.865 417.131 355.573H417.112Z" fill="#625F5C"/>
<path d="M422.411 355.319C422.693 353.553 422.232 352.096 421.34 351.533C421.124 351.429 420.898 351.364 420.654 351.307C420.579 351.307 420.504 351.307 420.428 351.307C418.963 351.373 417.479 353.28 417.093 355.573C416.718 357.856 417.601 359.659 419.066 359.584C419.085 359.584 419.104 359.584 419.113 359.584C419.498 359.49 419.865 359.349 420.222 359.152C421.246 358.447 422.11 356.982 422.392 355.319H422.411ZM419.442 358.25C418.418 358.297 417.789 357.123 418.042 355.61C418.286 354.107 419.31 352.848 420.344 352.792C421.368 352.745 421.997 353.928 421.744 355.432C421.499 356.935 420.466 358.203 419.442 358.25Z" fill="#282322"/>
<path d="M420.344 352.792C419.32 352.839 418.287 354.107 418.042 355.61C417.789 357.123 418.418 358.307 419.442 358.25C420.466 358.203 421.499 356.935 421.744 355.432C421.988 353.928 421.368 352.754 420.344 352.792Z" fill="#89827F"/>
<path d="M419.264 356.813C419.094 356.578 419.019 356.174 419.085 355.695C419.217 354.868 419.715 354.144 420.231 354.06C420.353 354.051 420.466 354.06 420.56 354.126C420.438 353.947 420.259 353.863 420.043 353.891C419.536 353.975 419.029 354.699 418.897 355.526C418.803 356.146 418.963 356.634 419.264 356.813Z" fill="#333333"/>
<path d="M430.697 355.394L429.974 354.539L429.795 350.762L429.156 348.461L430.434 349.137L430.697 355.394Z" fill="#22A5F0"/>
<path d="M430.424 357.546L423.595 361.228L423.238 354.201L430.049 350.603L430.424 357.546Z" fill="#2473B2"/>
<path d="M437.414 353.628C437.414 353.628 431.533 356.785 431.383 356.869C430.903 355.488 430.678 355.093 430.678 355.093L430.443 349.137L431.514 342.467L436.831 339.498L437.414 353.618V353.628Z" fill="#2976AD"/>
<path d="M430.434 349.137L421.415 344.515L422.448 338.042L431.505 342.467L430.434 349.137Z" fill="#22A5F0"/>
<path d="M429.156 348.461L422.289 352.256L415.666 349.146L422.852 345.247L429.156 348.461Z" fill="#1396E1"/>
<path d="M430.049 350.603L423.219 354.285L422.289 352.256L429.156 348.461L430.049 350.603Z" fill="#2BAEF9"/>
<path d="M423.303 354.332L423.501 359.537L415.064 355.46L415.045 349.569L415.665 349.146L422.289 352.256L423.303 354.332Z" fill="#22A5F0"/>
<path d="M423.679 361.341L414.895 357.292L414.848 355.31L423.576 359.547L423.679 361.341Z" fill="#B2B2B2"/>
<path d="M421.443 346.018L421.415 344.515L422.852 345.247L421.443 346.018Z" fill="#22A5F0"/>
<path d="M431.542 342.514L422.448 338.041L428.076 335.176L436.822 339.507L431.542 342.514Z" fill="#1396E1"/>
<path d="M431.608 358.213L430.162 357.884C430.162 357.884 427.625 355.009 429.175 354.286C430.162 354.455 431.345 356.766 431.345 356.766L431.608 358.213V358.213Z" fill="#91908A"/>
<path d="M431.448 357.987C431.552 360.42 429.898 362.797 427.747 363.286C425.596 363.784 424.111 362.403 423.999 359.96C423.895 357.527 425.643 354.83 427.794 354.342C429.945 353.853 431.336 355.554 431.448 357.987V357.987Z" fill="#282629"/>
<path d="M431.026 359.425C430.697 361.294 429.325 362.826 427.944 362.826C426.573 362.826 425.718 361.313 426.037 359.434C426.357 357.564 427.738 356.042 429.109 356.033C430.481 356.033 431.336 357.555 431.016 359.434L431.026 359.425Z" fill="#4D4D4D"/>
<path d="M430.218 359.434C430.002 360.702 429.062 361.726 428.142 361.726C427.221 361.726 426.629 360.702 426.845 359.434C427.071 358.166 428.001 357.132 428.931 357.132C429.861 357.132 430.434 358.166 430.218 359.434V359.434Z" fill="#2474A8"/>
<path d="M429.569 359.218C429.4 360.186 428.733 360.965 428.066 360.975C427.418 360.975 427.014 360.185 427.174 359.227C427.343 358.26 428.019 357.48 428.668 357.48C429.325 357.48 429.729 358.26 429.56 359.227L429.569 359.218Z" fill="white"/>
<path d="M436.897 353.534C436.897 353.534 432.369 356.014 431.749 356.352C431.542 354.877 430.951 354.013 430.951 354.013L430.8 349.391L436.54 346.356L436.907 353.543L436.897 353.534Z" fill="#2375A9"/>
<path d="M425.737 361.867C425.276 361.67 424.393 361.501 423.707 361.078C423.529 353.318 430.96 350.612 431.608 358.213C431.214 353.543 425.398 354.567 425.737 361.867Z" fill="#1396E1"/>
<path d="M449.561 347.737C449.28 347.615 448.772 347.427 448.772 347.427L448.143 345.276C448.143 345.276 449.336 345.745 449.561 347.737Z" fill="#314190"/>
<path d="M442.75 350.443L431.373 356.662L431.627 358.259L444.46 351.26L442.75 350.443Z" fill="#2474A8"/>
<path d="M430.086 348.686L421.688 344.543L422.646 338.849L431.139 342.983L430.086 348.686Z" fill="#E5E5E5"/>
<path d="M436.691 345.238L430.951 348.113L431.777 343.134L436.512 340.663L436.691 345.238Z" fill="#E5E5E5"/>
<path d="M421.81 353.788C421.424 353.684 421.105 354.351 421.096 355.084C421.096 355.808 421.396 356.456 421.781 356.522C422.063 356.569 422.345 356.324 422.467 355.92C422.449 355.92 422.956 354.088 421.81 353.788V353.788Z" fill="white"/>
<path d="M422.026 353.496C421.518 353.402 421.096 354.088 421.077 355.018C421.058 355.948 421.453 356.775 421.969 356.869C422.467 356.954 422.89 356.268 422.909 355.338C422.928 354.408 422.533 353.581 422.026 353.487V353.496ZM422.514 355.263C422.505 355.986 422.185 356.512 421.791 356.446C421.406 356.381 421.096 355.742 421.105 355.009C421.114 354.286 421.443 353.759 421.828 353.825C422.223 353.891 422.524 354.539 422.514 355.263Z" fill="#1A1A1A"/>
<path d="M415.853 351.345C415.487 351.251 415.186 351.89 415.177 352.585C415.177 353.28 415.468 353.891 415.835 353.957C416.098 354.004 416.37 353.769 416.492 353.384C416.473 353.384 416.953 351.627 415.853 351.345V351.345Z" fill="white"/>
<path d="M416.06 351.072C415.581 350.988 415.177 351.636 415.158 352.529C415.149 353.421 415.525 354.201 416.013 354.285C416.502 354.37 416.896 353.712 416.906 352.829C416.915 351.946 416.539 351.148 416.06 351.072V351.072ZM416.539 352.754C416.53 353.449 416.22 353.947 415.844 353.891C415.478 353.825 415.177 353.214 415.186 352.519C415.186 351.824 415.506 351.317 415.882 351.382C416.248 351.448 416.549 352.059 416.539 352.754Z" fill="#1A1A1A"/>
<path d="M449.693 348.103C449.646 350.396 447.955 352.538 445.935 352.876C443.906 353.224 442.619 351.833 442.675 349.541C442.731 347.239 444.526 344.806 446.555 344.468C448.584 344.129 449.759 345.802 449.702 348.094L449.693 348.103Z" fill="#282629"/>
<path d="M449.223 349.428C448.8 351.176 447.429 352.529 446.151 352.453C444.883 352.378 444.178 350.903 444.601 349.156C445.024 347.408 446.395 346.055 447.664 346.131C448.932 346.206 449.636 347.681 449.223 349.428V349.428Z" fill="#4D4D4D"/>
<path d="M448.472 349.391C448.19 350.565 447.26 351.486 446.395 351.429C445.54 351.382 445.061 350.377 445.343 349.203C445.625 348.019 446.555 347.108 447.419 347.155C448.284 347.202 448.753 348.207 448.472 349.391Z" fill="#2474A8"/>
<path d="M447.88 349.146C447.664 350.048 446.997 350.743 446.377 350.706C445.775 350.659 445.446 349.907 445.663 349.015C445.879 348.122 446.546 347.427 447.156 347.455C447.767 347.483 448.086 348.244 447.87 349.146H447.88Z" fill="white"/>
<path d="M444.46 351.26C444.056 351.082 443.389 351.082 442.797 350.706C441.332 345.736 449.195 340.916 449.777 347.624C449.42 343.5 443.182 346.394 444.46 351.27V351.26Z" fill="#2873A7"/>
</svg>
