<svg width="1023" height="687" viewBox="0 0 1023 687" fill="none" xmlns="http://www.w3.org/2000/svg">
<g style="mix-blend-mode:multiply" opacity="0.3">
<path d="M436.005 343.791C437.912 342.654 442.299 343.096 445.061 344.44L452.568 348.075C455.339 349.419 456.025 351.429 454.118 352.576L435.169 363.906C433.262 365.052 429.485 364.883 426.714 363.53L419.217 359.894C416.455 358.551 415.149 356.258 417.056 355.112L436.005 343.782V343.791Z" fill="#1A1A1A"/>
</g>
<path d="M437.339 353.393L428.452 345.68L439.838 339.319L452.746 345.06L437.339 353.393Z" fill="#CECFD1"/>
<path d="M452.774 345.041L438.354 352.81L438.363 353.562L452.784 345.802L452.774 345.041Z" fill="#2474A8"/>
<path d="M417.112 355.573C417.488 353.28 418.982 351.373 420.447 351.307C420.522 351.307 420.598 351.307 420.673 351.307C420.41 351.251 420.137 351.232 419.855 351.251C417.723 351.345 415.684 353.318 415.308 355.648C414.923 357.978 416.342 359.781 418.474 359.678C418.709 359.669 418.935 359.641 419.151 359.584C419.132 359.584 419.113 359.584 419.104 359.584C417.638 359.659 416.755 357.865 417.131 355.573H417.112Z" fill="#625F5C"/>
<path d="M422.411 355.319C422.693 353.553 422.232 352.096 421.34 351.533C421.124 351.429 420.898 351.364 420.654 351.307C420.579 351.307 420.504 351.307 420.428 351.307C418.963 351.373 417.479 353.28 417.093 355.573C416.718 357.856 417.601 359.659 419.066 359.584C419.085 359.584 419.104 359.584 419.113 359.584C419.498 359.49 419.865 359.349 420.222 359.152C421.246 358.447 422.11 356.982 422.392 355.319H422.411ZM419.442 358.25C418.418 358.297 417.789 357.123 418.042 355.61C418.286 354.107 419.31 352.848 420.344 352.792C421.368 352.745 421.997 353.928 421.744 355.432C421.499 356.935 420.466 358.203 419.442 358.25Z" fill="#282322"/>
<path d="M420.344 352.792C419.32 352.839 418.287 354.107 418.042 355.61C417.789 357.123 418.418 358.307 419.442 358.25C420.466 358.203 421.499 356.935 421.744 355.432C421.988 353.928 421.368 352.754 420.344 352.792Z" fill="#89827F"/>
<path d="M419.264 356.813C419.094 356.578 419.019 356.174 419.085 355.695C419.217 354.868 419.715 354.144 420.231 354.06C420.353 354.051 420.466 354.06 420.56 354.126C420.438 353.947 420.259 353.863 420.043 353.891C419.536 353.975 419.029 354.699 418.897 355.526C418.803 356.146 418.963 356.634 419.264 356.813Z" fill="#333333"/>
<path d="M430.697 355.394L429.974 354.539L429.795 350.762L429.156 348.461L430.434 349.137L430.697 355.394Z" fill="#22A5F0"/>
<path d="M430.424 357.546L423.595 361.228L423.238 354.201L430.049 350.603L430.424 357.546Z" fill="#2473B2"/>
<path d="M437.414 353.628C437.414 353.628 431.533 356.785 431.383 356.869C430.903 355.488 430.678 355.093 430.678 355.093L430.443 349.137L431.514 342.467L436.831 339.498L437.414 353.618V353.628Z" fill="#2976AD"/>
<path d="M430.434 349.137L421.415 344.515L422.448 338.042L431.505 342.467L430.434 349.137Z" fill="#22A5F0"/>
<path d="M429.156 348.461L422.289 352.256L415.666 349.146L422.852 345.247L429.156 348.461Z" fill="#1396E1"/>
<path d="M430.049 350.603L423.219 354.285L422.289 352.256L429.156 348.461L430.049 350.603Z" fill="#2BAEF9"/>
<path d="M423.303 354.332L423.501 359.537L415.064 355.46L415.045 349.569L415.665 349.146L422.289 352.256L423.303 354.332Z" fill="#22A5F0"/>
<path d="M423.679 361.341L414.895 357.292L414.848 355.31L423.576 359.547L423.679 361.341Z" fill="#B2B2B2"/>
<path d="M421.443 346.018L421.415 344.515L422.852 345.247L421.443 346.018Z" fill="#22A5F0"/>
<path d="M431.542 342.514L422.448 338.041L428.076 335.176L436.822 339.507L431.542 342.514Z" fill="#1396E1"/>
<path d="M431.608 358.213L430.162 357.884C430.162 357.884 427.625 355.009 429.175 354.286C430.162 354.455 431.345 356.766 431.345 356.766L431.608 358.213V358.213Z" fill="#91908A"/>
<path d="M431.448 357.987C431.552 360.42 429.898 362.797 427.747 363.286C425.596 363.784 424.111 362.403 423.999 359.96C423.895 357.527 425.643 354.83 427.794 354.342C429.945 353.853 431.336 355.554 431.448 357.987V357.987Z" fill="#282629"/>
<path d="M431.026 359.425C430.697 361.294 429.325 362.826 427.944 362.826C426.573 362.826 425.718 361.313 426.037 359.434C426.357 357.564 427.738 356.042 429.109 356.033C430.481 356.033 431.336 357.555 431.016 359.434L431.026 359.425Z" fill="#4D4D4D"/>
<path d="M430.218 359.434C430.002 360.702 429.062 361.726 428.142 361.726C427.221 361.726 426.629 360.702 426.845 359.434C427.071 358.166 428.001 357.132 428.931 357.132C429.861 357.132 430.434 358.166 430.218 359.434V359.434Z" fill="#2474A8"/>
<path d="M429.569 359.218C429.4 360.186 428.733 360.965 428.066 360.975C427.418 360.975 427.014 360.185 427.174 359.227C427.343 358.26 428.019 357.48 428.668 357.48C429.325 357.48 429.729 358.26 429.56 359.227L429.569 359.218Z" fill="white"/>
<path d="M436.897 353.534C436.897 353.534 432.369 356.014 431.749 356.352C431.542 354.877 430.951 354.013 430.951 354.013L430.8 349.391L436.54 346.356L436.907 353.543L436.897 353.534Z" fill="#2375A9"/>
<path d="M425.737 361.867C425.276 361.67 424.393 361.501 423.707 361.078C423.529 353.318 430.96 350.612 431.608 358.213C431.214 353.543 425.398 354.567 425.737 361.867Z" fill="#1396E1"/>
<path d="M449.561 347.737C449.28 347.615 448.772 347.427 448.772 347.427L448.143 345.276C448.143 345.276 449.336 345.745 449.561 347.737Z" fill="#314190"/>
<path d="M442.75 350.443L431.373 356.662L431.627 358.259L444.46 351.26L442.75 350.443Z" fill="#2474A8"/>
<path d="M430.086 348.686L421.688 344.543L422.646 338.849L431.139 342.983L430.086 348.686Z" fill="#E5E5E5"/>
<path d="M436.691 345.238L430.951 348.113L431.777 343.134L436.512 340.663L436.691 345.238Z" fill="#E5E5E5"/>
<path d="M421.81 353.788C421.424 353.684 421.105 354.351 421.096 355.084C421.096 355.808 421.396 356.456 421.781 356.522C422.063 356.569 422.345 356.324 422.467 355.92C422.449 355.92 422.956 354.088 421.81 353.788V353.788Z" fill="white"/>
<path d="M422.026 353.496C421.518 353.402 421.096 354.088 421.077 355.018C421.058 355.948 421.453 356.775 421.969 356.869C422.467 356.954 422.89 356.268 422.909 355.338C422.928 354.408 422.533 353.581 422.026 353.487V353.496ZM422.514 355.263C422.505 355.986 422.185 356.512 421.791 356.446C421.406 356.381 421.096 355.742 421.105 355.009C421.114 354.286 421.443 353.759 421.828 353.825C422.223 353.891 422.524 354.539 422.514 355.263Z" fill="#1A1A1A"/>
<path d="M415.853 351.345C415.487 351.251 415.186 351.89 415.177 352.585C415.177 353.28 415.468 353.891 415.835 353.957C416.098 354.004 416.37 353.769 416.492 353.384C416.473 353.384 416.953 351.627 415.853 351.345V351.345Z" fill="white"/>
<path d="M416.06 351.072C415.581 350.988 415.177 351.636 415.158 352.529C415.149 353.421 415.525 354.201 416.013 354.285C416.502 354.37 416.896 353.712 416.906 352.829C416.915 351.946 416.539 351.148 416.06 351.072V351.072ZM416.539 352.754C416.53 353.449 416.22 353.947 415.844 353.891C415.478 353.825 415.177 353.214 415.186 352.519C415.186 351.824 415.506 351.317 415.882 351.382C416.248 351.448 416.549 352.059 416.539 352.754Z" fill="#1A1A1A"/>
<path d="M449.693 348.103C449.646 350.396 447.955 352.538 445.935 352.876C443.906 353.224 442.619 351.833 442.675 349.541C442.731 347.239 444.526 344.806 446.555 344.468C448.584 344.129 449.759 345.802 449.702 348.094L449.693 348.103Z" fill="#282629"/>
<path d="M449.223 349.428C448.8 351.176 447.429 352.529 446.151 352.453C444.883 352.378 444.178 350.903 444.601 349.156C445.024 347.408 446.395 346.055 447.664 346.131C448.932 346.206 449.636 347.681 449.223 349.428V349.428Z" fill="#4D4D4D"/>
<path d="M448.472 349.391C448.19 350.565 447.26 351.486 446.395 351.429C445.54 351.382 445.061 350.377 445.343 349.203C445.625 348.019 446.555 347.108 447.419 347.155C448.284 347.202 448.753 348.207 448.472 349.391Z" fill="#2474A8"/>
<path d="M447.88 349.146C447.664 350.048 446.997 350.743 446.377 350.706C445.775 350.659 445.446 349.907 445.663 349.015C445.879 348.122 446.546 347.427 447.156 347.455C447.767 347.483 448.086 348.244 447.87 349.146H447.88Z" fill="white"/>
<path d="M444.46 351.26C444.056 351.082 443.389 351.082 442.797 350.706C441.332 345.736 449.195 340.916 449.777 347.624C449.42 343.5 443.182 346.394 444.46 351.27V351.26Z" fill="#2873A7"/>
<g style="mix-blend-mode:multiply" opacity="0.3">
<path d="M462.629 106.004C464.536 104.867 468.924 105.309 471.686 106.652L479.192 110.288C481.963 111.631 482.649 113.642 480.742 114.788L461.793 126.118C459.886 127.265 456.109 127.096 453.338 125.743L445.841 122.107C443.079 120.763 441.773 118.471 443.68 117.325L462.629 105.994V106.004Z" fill="#1A1A1A"/>
</g>
<path d="M463.963 115.605L455.085 107.883L466.462 101.532L479.38 107.272L463.963 115.605Z" fill="#CECFD1"/>
<path d="M479.399 107.253L464.987 115.023L464.997 115.775L479.408 108.005L479.399 107.253Z" fill="#2474A8"/>
<path d="M471.667 110.288L464.442 106.915L464.658 100.414L471.601 103.185L471.667 110.288Z" fill="#8C5C26"/>
<path d="M471.676 110.26L477.416 107.413L477.323 100.151L471.611 103.167L471.676 110.26Z" fill="#EA7C00"/>
<path d="M464.658 100.414L471.601 103.185L477.322 100.151L470.539 97.7456L464.658 100.414Z" fill="#F9940C"/>
<path d="M471.601 103.185L475.04 101.4L468.191 98.9763L475.143 101.344L477.322 100.151L471.601 103.185Z" fill="#8C5C26"/>
<path d="M471.601 103.185L477.322 100.151L471.686 103.261L471.676 110.26L471.601 103.185Z" fill="#8C5C26"/>
<path d="M470.436 97.8584L464.715 100.442L471.601 103.185L464.865 100.433L470.436 97.8584Z" fill="#8C5C26"/>
<path d="M465.664 113.482L458.449 110.1L458.655 103.599L465.542 106.257L465.664 113.482Z" fill="#8C5C26"/>
<path d="M465.673 113.454L471.413 110.598L471.357 103.392L465.551 106.229L465.673 113.454Z" fill="#EA7C00"/>
<path d="M458.656 103.599L465.542 106.257L471.357 103.392L464.537 100.94L458.656 103.599Z" fill="#F9940C"/>
<path d="M465.542 106.257L469.027 104.585L462.188 102.161L469.14 104.529L471.357 103.392L465.542 106.257Z" fill="#8C5C26"/>
<path d="M465.542 106.257L471.357 103.392L465.654 106.333L465.673 113.454L465.542 106.257Z" fill="#8C5C26"/>
<path d="M464.433 101.043L458.712 103.627L465.542 106.257L459.031 103.617L464.433 101.043Z" fill="url(#paint0_linear_247_90)"/>
<path d="M443.737 117.785C444.112 115.493 445.606 113.585 447.072 113.52C447.147 113.52 447.222 113.52 447.297 113.52C447.034 113.463 446.762 113.445 446.48 113.463C444.347 113.557 442.309 115.53 441.933 117.86C441.548 120.19 442.966 121.994 445.099 121.891C445.334 121.881 445.559 121.853 445.775 121.797C445.757 121.797 445.738 121.797 445.728 121.797C444.263 121.872 443.38 120.077 443.756 117.785H443.737Z" fill="#625F5C"/>
<path d="M449.045 117.531C449.327 115.765 448.866 114.309 447.974 113.745C447.758 113.642 447.532 113.576 447.288 113.52C447.213 113.52 447.138 113.52 447.062 113.52C445.597 113.586 444.113 115.493 443.727 117.785C443.352 120.068 444.235 121.872 445.7 121.797C445.719 121.797 445.738 121.797 445.747 121.797C446.132 121.703 446.499 121.562 446.856 121.365C447.88 120.66 448.744 119.194 449.026 117.531H449.045ZM446.076 120.463C445.052 120.51 444.423 119.335 444.676 117.823C444.92 116.319 445.945 115.061 446.978 115.004C448.002 114.957 448.631 116.141 448.378 117.644C448.133 119.147 447.1 120.416 446.076 120.463Z" fill="#282322"/>
<path d="M446.978 115.004C445.954 115.051 444.92 116.319 444.676 117.823C444.422 119.335 445.052 120.519 446.076 120.463C447.1 120.416 448.133 119.147 448.378 117.644C448.622 116.141 448.002 114.967 446.978 115.004Z" fill="#89827F"/>
<path d="M445.888 119.025C445.719 118.79 445.644 118.386 445.71 117.907C445.841 117.08 446.339 116.357 446.856 116.272C446.978 116.263 447.091 116.272 447.185 116.338C447.062 116.16 446.884 116.075 446.668 116.103C446.161 116.188 445.653 116.911 445.522 117.738C445.428 118.358 445.587 118.847 445.888 119.025Z" fill="#333333"/>
<path d="M457.331 117.607L456.607 116.752L456.419 112.975L455.781 110.673L457.068 111.35L457.331 117.607Z" fill="#22A5F0"/>
<path d="M457.058 119.749L450.219 123.441L449.871 116.413L456.682 112.815L457.058 119.749Z" fill="#2473B2"/>
<path d="M464.038 115.831C464.038 115.831 458.157 118.988 458.007 119.072C457.528 117.691 457.302 117.297 457.302 117.297L457.068 111.34L458.139 104.67L463.456 101.701L464.038 115.821V115.831Z" fill="#2976AD"/>
<path d="M457.068 111.35L448.049 106.727L449.073 100.254L458.139 104.679L457.068 111.35Z" fill="#22A5F0"/>
<path d="M455.781 110.673L448.923 114.469L442.299 111.349L449.477 107.46L455.781 110.673Z" fill="#1396E1"/>
<path d="M456.682 112.815L449.852 116.498L448.922 114.469L455.78 110.673L456.682 112.815Z" fill="#2BAEF9"/>
<path d="M449.928 116.545L450.134 121.75L441.698 117.672L441.679 111.782L442.299 111.349L448.922 114.469L449.928 116.545Z" fill="#22A5F0"/>
<path d="M450.313 123.554L441.52 119.504L441.482 117.522L450.2 121.759L450.313 123.554Z" fill="#B2B2B2"/>
<path d="M448.068 108.23L448.049 106.727L449.477 107.46L448.068 108.23Z" fill="#22A5F0"/>
<path d="M458.176 104.726L449.073 100.254L454.71 97.3885L463.456 101.72L458.176 104.726Z" fill="#1396E1"/>
<path d="M458.242 120.425L456.795 120.096C456.795 120.096 454.259 117.221 455.809 116.498C456.795 116.667 457.979 118.978 457.979 118.978L458.242 120.425V120.425Z" fill="#91908A"/>
<path d="M458.082 120.2C458.186 122.633 456.532 125.01 454.381 125.498C452.229 125.996 450.745 124.615 450.632 122.173C450.529 119.739 452.276 117.043 454.428 116.554C456.579 116.066 457.969 117.766 458.082 120.2V120.2Z" fill="#282629"/>
<path d="M457.659 121.637C457.331 123.507 455.959 125.038 454.578 125.038C453.206 125.038 452.352 123.525 452.671 121.646C452.99 119.777 454.371 118.255 455.743 118.245C457.115 118.245 457.97 119.767 457.65 121.646L457.659 121.637Z" fill="#4D4D4D"/>
<path d="M456.852 121.646C456.635 122.915 455.696 123.939 454.775 123.939C453.855 123.939 453.263 122.915 453.479 121.646C453.704 120.378 454.634 119.345 455.564 119.345C456.495 119.345 457.068 120.378 456.852 121.646V121.646Z" fill="#2474A8"/>
<path d="M456.194 121.43C456.025 122.398 455.358 123.178 454.691 123.187C454.043 123.187 453.639 122.398 453.798 121.44C453.967 120.472 454.644 119.692 455.292 119.692C455.95 119.692 456.354 120.472 456.185 121.44L456.194 121.43Z" fill="white"/>
<path d="M463.531 115.746C463.531 115.746 459.003 118.227 458.383 118.565C458.176 117.09 457.584 116.226 457.584 116.226L457.434 111.603L463.174 108.569L463.541 115.756L463.531 115.746Z" fill="#2375A9"/>
<path d="M452.361 124.08C451.901 123.883 451.018 123.713 450.332 123.291C450.153 115.53 457.584 112.825 458.233 120.425C457.838 115.756 452.023 116.78 452.361 124.08V124.08Z" fill="#1396E1"/>
<path d="M476.186 109.95C475.904 109.828 475.397 109.64 475.397 109.64L474.767 107.488C474.767 107.488 475.96 107.958 476.186 109.95Z" fill="#314190"/>
<path d="M469.375 112.655L458.007 118.875L458.251 120.472L471.094 113.473L469.375 112.655Z" fill="#2474A8"/>
<path d="M456.72 110.899L448.312 106.755L449.279 101.062L457.763 105.196L456.72 110.899Z" fill="#E5E5E5"/>
<path d="M463.315 107.451L457.584 110.325L458.402 105.346L463.146 102.875L463.315 107.451Z" fill="#E5E5E5"/>
<path d="M448.443 116C448.058 115.897 447.739 116.564 447.729 117.297C447.729 118.02 448.03 118.668 448.415 118.734C448.697 118.781 448.979 118.537 449.101 118.133C449.082 118.133 449.59 116.301 448.443 116V116Z" fill="white"/>
<path d="M448.659 115.709C448.152 115.615 447.729 116.301 447.711 117.231C447.692 118.161 448.086 118.988 448.603 119.082C449.101 119.166 449.524 118.48 449.543 117.55C449.561 116.62 449.167 115.793 448.659 115.699V115.709ZM449.148 117.475C449.139 118.198 448.819 118.725 448.425 118.659C448.039 118.593 447.729 117.954 447.739 117.221C447.748 116.498 448.077 115.972 448.462 116.038C448.857 116.103 449.157 116.752 449.148 117.475Z" fill="#1A1A1A"/>
<path d="M442.487 113.557C442.121 113.463 441.82 114.102 441.811 114.797C441.811 115.493 442.102 116.103 442.468 116.169C442.731 116.216 443.004 115.981 443.126 115.596C443.107 115.596 443.586 113.839 442.487 113.557V113.557Z" fill="white"/>
<path d="M442.694 113.285C442.215 113.2 441.811 113.849 441.792 114.741C441.783 115.634 442.158 116.413 442.647 116.498C443.135 116.583 443.53 115.925 443.539 115.042C443.549 114.159 443.173 113.36 442.694 113.285V113.285ZM443.173 114.967C443.164 115.662 442.853 116.16 442.478 116.103C442.111 116.038 441.811 115.427 441.82 114.732C441.82 114.036 442.14 113.529 442.515 113.595C442.882 113.661 443.182 114.271 443.173 114.967Z" fill="#1A1A1A"/>
<path d="M476.327 110.316C476.28 112.608 474.589 114.751 472.569 115.089C470.54 115.436 469.253 114.046 469.309 111.754C469.365 109.452 471.16 107.018 473.189 106.68C475.218 106.342 476.392 108.014 476.336 110.307L476.327 110.316Z" fill="#282629"/>
<path d="M475.857 111.641C475.434 113.388 474.062 114.741 472.785 114.666C471.517 114.591 470.812 113.116 471.235 111.368C471.657 109.621 473.029 108.268 474.297 108.343C475.566 108.418 476.27 109.893 475.857 111.641V111.641Z" fill="#4D4D4D"/>
<path d="M475.096 111.603C474.814 112.778 473.884 113.698 473.02 113.642C472.165 113.595 471.686 112.59 471.968 111.415C472.249 110.232 473.18 109.32 474.044 109.367C474.908 109.414 475.378 110.419 475.096 111.603V111.603Z" fill="#2474A8"/>
<path d="M474.504 111.359C474.288 112.261 473.621 112.956 473.001 112.918C472.4 112.872 472.071 112.12 472.287 111.227C472.503 110.335 473.17 109.64 473.781 109.668C474.391 109.696 474.711 110.457 474.495 111.359H474.504Z" fill="white"/>
<path d="M471.094 113.473C470.69 113.294 470.023 113.294 469.431 112.918C467.965 107.949 475.829 103.129 476.411 109.837C476.054 105.713 469.816 108.606 471.094 113.482V113.473Z" fill="#2873A7"/>
<g style="mix-blend-mode:multiply" opacity="0.3">
<path d="M684.662 413.014C686.569 411.877 690.956 412.318 693.718 413.662L701.225 417.298C703.996 418.641 704.682 420.652 702.775 421.798L683.826 433.128C681.919 434.274 678.142 434.105 675.371 432.752L667.874 429.117C665.112 427.773 663.806 425.481 665.713 424.335L684.662 413.004V413.014Z" fill="#1A1A1A"/>
</g>
<path d="M686.005 422.606L677.118 414.893L688.495 408.542L701.412 414.282L686.005 422.606Z" fill="#CECFD1"/>
<path d="M701.441 414.263L687.02 422.023L687.029 422.784L701.441 415.015V414.263Z" fill="#2474A8"/>
<path d="M693.7 417.298L686.475 413.916L686.691 407.414L693.634 410.186L693.7 417.298Z" fill="#8C5C26"/>
<path d="M693.709 417.27L699.449 414.413L699.355 407.151L693.643 410.167L693.709 417.27Z" fill="#EA7C00"/>
<path d="M686.691 407.414L693.634 410.186L699.355 407.151L692.572 404.755L686.691 407.414Z" fill="#F9940C"/>
<path d="M693.634 410.186L697.072 408.401L690.224 405.986L697.176 408.344L699.355 407.151L693.634 410.186Z" fill="#8C5C26"/>
<path d="M693.634 410.186L699.355 407.151L693.718 410.261L693.709 417.27L693.634 410.186Z" fill="#8C5C26"/>
<path d="M692.469 404.859L686.748 407.442L693.634 410.186L686.898 407.433L692.469 404.859Z" fill="#8C5C26"/>
<path d="M687.696 420.483L680.481 417.11L680.688 410.599L687.574 413.258L687.696 420.483Z" fill="#8C5C26"/>
<path d="M687.706 420.454L693.446 417.608L693.389 410.392L687.583 413.23L687.706 420.454Z" fill="#EA7C00"/>
<path d="M680.688 410.599L687.574 413.258L693.389 410.392L686.569 407.94L680.688 410.599Z" fill="#F9940C"/>
<path d="M687.574 413.258L691.06 411.585L684.22 409.171L691.172 411.538L693.389 410.392L687.574 413.258Z" fill="#8C5C26"/>
<path d="M687.574 413.258L693.389 410.392L687.687 413.342L687.706 420.454L687.574 413.258Z" fill="#8C5C26"/>
<path d="M686.465 408.053L680.744 410.637L687.574 413.258L681.064 410.618L686.465 408.053Z" fill="url(#paint1_linear_247_90)"/>
<path d="M665.769 424.795C666.145 422.502 667.639 420.595 669.104 420.529C669.179 420.529 669.255 420.529 669.33 420.529C669.067 420.473 668.794 420.454 668.512 420.473C666.38 420.567 664.341 422.54 663.965 424.87C663.58 427.2 664.999 429.004 667.131 428.9C667.366 428.891 667.592 428.863 667.808 428.807C667.789 428.807 667.77 428.807 667.761 428.807C666.295 428.882 665.412 427.087 665.788 424.795H665.769Z" fill="#625F5C"/>
<path d="M671.077 424.532C671.359 422.766 670.899 421.309 670.006 420.746C669.79 420.642 669.565 420.577 669.32 420.52C669.245 420.52 669.17 420.52 669.095 420.52C667.629 420.586 666.145 422.493 665.76 424.785C665.384 427.068 666.267 428.872 667.733 428.797C667.752 428.797 667.77 428.797 667.78 428.797C668.165 428.703 668.531 428.562 668.888 428.365C669.912 427.66 670.777 426.195 671.058 424.532H671.077ZM668.109 427.463C667.085 427.51 666.455 426.336 666.709 424.823C666.953 423.32 667.977 422.061 669.01 422.005C670.034 421.958 670.664 423.141 670.41 424.645C670.166 426.148 669.133 427.416 668.109 427.463Z" fill="#282322"/>
<path d="M669.01 422.005C667.986 422.052 666.953 423.32 666.709 424.823C666.455 426.336 667.084 427.519 668.108 427.463C669.132 427.416 670.166 426.148 670.41 424.645C670.654 423.141 670.034 421.967 669.01 422.005Z" fill="#89827F"/>
<path d="M667.93 426.035C667.761 425.8 667.686 425.396 667.752 424.917C667.883 424.09 668.381 423.367 668.898 423.282C669.02 423.273 669.133 423.282 669.227 423.348C669.104 423.169 668.926 423.085 668.71 423.113C668.203 423.198 667.695 423.921 667.564 424.748C667.47 425.368 667.629 425.856 667.93 426.035Z" fill="#333333"/>
<path d="M679.363 424.607L678.64 423.761L678.452 419.975L677.813 417.683L679.1 418.359L679.363 424.607Z" fill="#22A5F0"/>
<path d="M679.091 426.758L672.252 430.441L671.904 423.414L678.715 419.825L679.091 426.758Z" fill="#2473B2"/>
<path d="M686.08 422.841C686.08 422.841 680.199 425.997 680.049 426.082C679.57 424.701 679.344 424.306 679.344 424.306L679.11 418.35L680.181 411.679L685.498 408.711L686.08 422.831V422.841Z" fill="#2976AD"/>
<path d="M679.1 418.359L670.082 413.737L671.115 407.264L680.171 411.689L679.1 418.359Z" fill="#22A5F0"/>
<path d="M677.813 417.683L670.955 421.478L664.332 418.359L671.51 414.47L677.813 417.683Z" fill="#1396E1"/>
<path d="M678.715 419.825L671.885 423.508L670.955 421.478L677.813 417.683L678.715 419.825Z" fill="#2BAEF9"/>
<path d="M671.96 423.545L672.167 428.76L663.731 424.673L663.712 418.791L664.332 418.359L670.955 421.478L671.96 423.545Z" fill="#22A5F0"/>
<path d="M672.346 430.554L663.562 426.514L663.515 424.532L672.233 428.759L672.346 430.554Z" fill="#B2B2B2"/>
<path d="M670.1 415.24L670.082 413.737L671.51 414.47L670.1 415.24Z" fill="#22A5F0"/>
<path d="M680.209 411.736L671.115 407.264L676.742 404.389L685.489 408.72L680.209 411.736Z" fill="#1396E1"/>
<path d="M680.275 427.435L678.828 427.106C678.828 427.106 676.291 424.231 677.841 423.508C678.828 423.677 680.011 425.988 680.011 425.988L680.275 427.435Z" fill="#91908A"/>
<path d="M680.115 427.209C680.218 429.643 678.565 432.02 676.413 432.508C674.262 433.006 672.778 431.625 672.665 429.182C672.562 426.749 674.309 424.053 676.46 423.564C678.612 423.076 680.002 424.776 680.115 427.209V427.209Z" fill="#282629"/>
<path d="M679.692 428.647C679.363 430.516 677.992 432.048 676.611 432.048C675.239 432.048 674.384 430.535 674.704 428.656C675.023 426.787 676.404 425.265 677.776 425.255C679.147 425.255 680.002 426.777 679.683 428.656L679.692 428.647Z" fill="#4D4D4D"/>
<path d="M678.884 428.647C678.668 429.915 677.729 430.939 676.808 430.939C675.887 430.939 675.296 429.915 675.512 428.647C675.737 427.378 676.667 426.345 677.597 426.345C678.527 426.345 679.1 427.378 678.884 428.647Z" fill="#2474A8"/>
<path d="M678.227 428.431C678.058 429.398 677.391 430.178 676.724 430.188C676.075 430.188 675.671 429.398 675.831 428.44C676 427.472 676.677 426.693 677.325 426.693C677.982 426.693 678.386 427.472 678.217 428.44L678.227 428.431Z" fill="white"/>
<path d="M685.564 422.756C685.564 422.756 681.036 425.236 680.416 425.575C680.209 424.1 679.617 423.235 679.617 423.235L679.467 418.613L685.207 415.578L685.573 422.766L685.564 422.756Z" fill="#2375A9"/>
<path d="M674.393 431.08C673.933 430.883 673.05 430.714 672.364 430.291C672.186 422.531 679.617 419.825 680.265 427.425C679.871 422.756 674.055 423.78 674.393 431.08Z" fill="#1396E1"/>
<path d="M698.218 416.959C697.937 416.837 697.429 416.649 697.429 416.649L696.8 414.498C696.8 414.498 697.993 414.968 698.218 416.959Z" fill="#314190"/>
<path d="M691.407 419.665L680.04 425.875L680.284 427.472L693.127 420.483L691.407 419.665Z" fill="#2474A8"/>
<path d="M678.753 417.908L670.344 413.756L671.312 408.062L679.795 412.206L678.753 417.908Z" fill="#E5E5E5"/>
<path d="M685.348 414.451L679.617 417.335L680.434 412.347L685.179 409.876L685.348 414.451Z" fill="#E5E5E5"/>
<path d="M670.476 423C670.091 422.897 669.771 423.564 669.762 424.297C669.762 425.02 670.063 425.669 670.448 425.734C670.73 425.781 671.011 425.537 671.134 425.133C671.115 425.133 671.622 423.301 670.476 423Z" fill="white"/>
<path d="M670.692 422.719C670.185 422.625 669.762 423.31 669.743 424.24C669.725 425.171 670.119 425.997 670.636 426.091C671.134 426.176 671.556 425.49 671.575 424.56C671.594 423.63 671.199 422.803 670.692 422.709V422.719ZM671.181 424.485C671.171 425.208 670.852 425.734 670.457 425.669C670.072 425.603 669.762 424.964 669.771 424.231C669.781 423.508 670.11 422.982 670.495 423.047C670.889 423.113 671.19 423.761 671.181 424.485Z" fill="#1A1A1A"/>
<path d="M664.52 420.558C664.154 420.464 663.853 421.103 663.844 421.798C663.844 422.493 664.135 423.104 664.501 423.169C664.764 423.216 665.037 422.982 665.159 422.596C665.14 422.596 665.619 420.84 664.52 420.558V420.558Z" fill="white"/>
<path d="M664.727 420.285C664.247 420.201 663.843 420.849 663.825 421.741C663.815 422.634 664.191 423.414 664.68 423.498C665.168 423.583 665.563 422.925 665.572 422.042C665.581 421.159 665.206 420.36 664.727 420.285ZM665.206 421.967C665.196 422.662 664.886 423.16 664.51 423.104C664.144 423.038 663.843 422.427 663.853 421.732C663.853 421.037 664.172 420.53 664.548 420.595C664.914 420.661 665.215 421.272 665.206 421.967Z" fill="#1A1A1A"/>
<path d="M698.359 417.316C698.312 419.609 696.621 421.751 694.602 422.089C692.572 422.437 691.285 421.046 691.342 418.754C691.398 416.452 693.192 414.019 695.222 413.681C697.251 413.342 698.425 415.015 698.369 417.307L698.359 417.316Z" fill="#282629"/>
<path d="M697.89 418.641C697.467 420.389 696.095 421.741 694.818 421.666C693.549 421.591 692.845 420.116 693.267 418.369C693.69 416.621 695.062 415.268 696.33 415.343C697.598 415.419 698.303 416.894 697.89 418.641Z" fill="#4D4D4D"/>
<path d="M697.138 418.603C696.856 419.778 695.926 420.699 695.062 420.642C694.207 420.595 693.728 419.59 694.01 418.416C694.291 417.232 695.222 416.32 696.086 416.367C696.95 416.414 697.42 417.42 697.138 418.603Z" fill="#2474A8"/>
<path d="M696.537 418.359C696.321 419.261 695.654 419.956 695.034 419.919C694.432 419.872 694.104 419.12 694.32 418.228C694.536 417.335 695.203 416.64 695.814 416.668C696.424 416.696 696.744 417.457 696.527 418.359H696.537Z" fill="white"/>
<path d="M693.127 420.483C692.723 420.304 692.056 420.304 691.464 419.928C689.998 414.958 697.861 410.139 698.444 416.847C698.087 412.722 691.849 415.616 693.127 420.492V420.483Z" fill="#2873A7"/>
<defs>
<linearGradient id="paint0_linear_247_90" x1="458.408" y1="103.779" x2="465.196" y2="103.688" gradientUnits="userSpaceOnUse">
<stop stop-color="#C89E66"/>
<stop offset="0.85" stop-color="#BA7445"/>
<stop offset="0.97" stop-color="#BE7E4D"/>
<stop offset="1" stop-color="#C08251"/>
</linearGradient>
<linearGradient id="paint1_linear_247_90" x1="680.733" y1="410.854" x2="687.522" y2="410.764" gradientUnits="userSpaceOnUse">
<stop stop-color="#C89E66"/>
<stop offset="0.85" stop-color="#BA7445"/>
<stop offset="0.97" stop-color="#BE7E4D"/>
<stop offset="1" stop-color="#C08251"/>
</linearGradient>
</defs>
</svg>
