<svg width="1023" height="687" viewBox="0 0 1023 687" fill="none" xmlns="http://www.w3.org/2000/svg">
<g style="mix-blend-mode:multiply" opacity="0.3">
<path d="M462.629 106.004C464.536 104.867 468.924 105.309 471.686 106.652L479.192 110.288C481.963 111.631 482.649 113.642 480.742 114.788L461.793 126.118C459.886 127.265 456.109 127.096 453.338 125.743L445.841 122.107C443.079 120.763 441.773 118.471 443.68 117.325L462.629 105.994V106.004Z" fill="#1A1A1A"/>
</g>
<path d="M463.963 115.605L455.085 107.883L466.462 101.532L479.38 107.272L463.963 115.605Z" fill="#CECFD1"/>
<path d="M479.399 107.253L464.987 115.023L464.997 115.775L479.408 108.005L479.399 107.253Z" fill="#2474A8"/>
<path d="M471.667 110.288L464.442 106.915L464.658 100.414L471.601 103.185L471.667 110.288Z" fill="#8C5C26"/>
<path d="M471.676 110.26L477.416 107.413L477.323 100.151L471.611 103.167L471.676 110.26Z" fill="#EA7C00"/>
<path d="M464.658 100.414L471.601 103.185L477.322 100.151L470.539 97.7456L464.658 100.414Z" fill="#F9940C"/>
<path d="M471.601 103.185L475.04 101.4L468.191 98.9763L475.143 101.344L477.322 100.151L471.601 103.185Z" fill="#8C5C26"/>
<path d="M471.601 103.185L477.322 100.151L471.686 103.261L471.676 110.26L471.601 103.185Z" fill="#8C5C26"/>
<path d="M470.436 97.8584L464.715 100.442L471.601 103.185L464.865 100.433L470.436 97.8584Z" fill="#8C5C26"/>
<path d="M465.664 113.482L458.449 110.1L458.655 103.599L465.542 106.257L465.664 113.482Z" fill="#8C5C26"/>
<path d="M465.673 113.454L471.413 110.598L471.357 103.392L465.551 106.229L465.673 113.454Z" fill="#EA7C00"/>
<path d="M458.656 103.599L465.542 106.257L471.357 103.392L464.537 100.94L458.656 103.599Z" fill="#F9940C"/>
<path d="M465.542 106.257L469.027 104.585L462.188 102.161L469.14 104.529L471.357 103.392L465.542 106.257Z" fill="#8C5C26"/>
<path d="M465.542 106.257L471.357 103.392L465.654 106.333L465.673 113.454L465.542 106.257Z" fill="#8C5C26"/>
<path d="M464.433 101.043L458.712 103.627L465.542 106.257L459.031 103.617L464.433 101.043Z" fill="url(#paint0_linear_247_90)"/>
<path d="M443.737 117.785C444.112 115.493 445.606 113.585 447.072 113.52C447.147 113.52 447.222 113.52 447.297 113.52C447.034 113.463 446.762 113.445 446.48 113.463C444.347 113.557 442.309 115.53 441.933 117.86C441.548 120.19 442.966 121.994 445.099 121.891C445.334 121.881 445.559 121.853 445.775 121.797C445.757 121.797 445.738 121.797 445.728 121.797C444.263 121.872 443.38 120.077 443.756 117.785H443.737Z" fill="#625F5C"/>
<path d="M449.045 117.531C449.327 115.765 448.866 114.309 447.974 113.745C447.758 113.642 447.532 113.576 447.288 113.52C447.213 113.52 447.138 113.52 447.062 113.52C445.597 113.586 444.113 115.493 443.727 117.785C443.352 120.068 444.235 121.872 445.7 121.797C445.719 121.797 445.738 121.797 445.747 121.797C446.132 121.703 446.499 121.562 446.856 121.365C447.88 120.66 448.744 119.194 449.026 117.531H449.045ZM446.076 120.463C445.052 120.51 444.423 119.335 444.676 117.823C444.92 116.319 445.945 115.061 446.978 115.004C448.002 114.957 448.631 116.141 448.378 117.644C448.133 119.147 447.1 120.416 446.076 120.463Z" fill="#282322"/>
<path d="M446.978 115.004C445.954 115.051 444.92 116.319 444.676 117.823C444.422 119.335 445.052 120.519 446.076 120.463C447.1 120.416 448.133 119.147 448.378 117.644C448.622 116.141 448.002 114.967 446.978 115.004Z" fill="#89827F"/>
<path d="M445.888 119.025C445.719 118.79 445.644 118.386 445.71 117.907C445.841 117.08 446.339 116.357 446.856 116.272C446.978 116.263 447.091 116.272 447.185 116.338C447.062 116.16 446.884 116.075 446.668 116.103C446.161 116.188 445.653 116.911 445.522 117.738C445.428 118.358 445.587 118.847 445.888 119.025Z" fill="#333333"/>
<path d="M457.331 117.607L456.607 116.752L456.419 112.975L455.781 110.673L457.068 111.35L457.331 117.607Z" fill="#22A5F0"/>
<path d="M457.058 119.749L450.219 123.441L449.871 116.413L456.682 112.815L457.058 119.749Z" fill="#2473B2"/>
<path d="M464.038 115.831C464.038 115.831 458.157 118.988 458.007 119.072C457.528 117.691 457.302 117.297 457.302 117.297L457.068 111.34L458.139 104.67L463.456 101.701L464.038 115.821V115.831Z" fill="#2976AD"/>
<path d="M457.068 111.35L448.049 106.727L449.073 100.254L458.139 104.679L457.068 111.35Z" fill="#22A5F0"/>
<path d="M455.781 110.673L448.923 114.469L442.299 111.349L449.477 107.46L455.781 110.673Z" fill="#1396E1"/>
<path d="M456.682 112.815L449.852 116.498L448.922 114.469L455.78 110.673L456.682 112.815Z" fill="#2BAEF9"/>
<path d="M449.928 116.545L450.134 121.75L441.698 117.672L441.679 111.782L442.299 111.349L448.922 114.469L449.928 116.545Z" fill="#22A5F0"/>
<path d="M450.313 123.554L441.52 119.504L441.482 117.522L450.2 121.759L450.313 123.554Z" fill="#B2B2B2"/>
<path d="M448.068 108.23L448.049 106.727L449.477 107.46L448.068 108.23Z" fill="#22A5F0"/>
<path d="M458.176 104.726L449.073 100.254L454.71 97.3885L463.456 101.72L458.176 104.726Z" fill="#1396E1"/>
<path d="M458.242 120.425L456.795 120.096C456.795 120.096 454.259 117.221 455.809 116.498C456.795 116.667 457.979 118.978 457.979 118.978L458.242 120.425V120.425Z" fill="#91908A"/>
<path d="M458.082 120.2C458.186 122.633 456.532 125.01 454.381 125.498C452.229 125.996 450.745 124.615 450.632 122.173C450.529 119.739 452.276 117.043 454.428 116.554C456.579 116.066 457.969 117.766 458.082 120.2V120.2Z" fill="#282629"/>
<path d="M457.659 121.637C457.331 123.507 455.959 125.038 454.578 125.038C453.206 125.038 452.352 123.525 452.671 121.646C452.99 119.777 454.371 118.255 455.743 118.245C457.115 118.245 457.97 119.767 457.65 121.646L457.659 121.637Z" fill="#4D4D4D"/>
<path d="M456.852 121.646C456.635 122.915 455.696 123.939 454.775 123.939C453.855 123.939 453.263 122.915 453.479 121.646C453.704 120.378 454.634 119.345 455.564 119.345C456.495 119.345 457.068 120.378 456.852 121.646V121.646Z" fill="#2474A8"/>
<path d="M456.194 121.43C456.025 122.398 455.358 123.178 454.691 123.187C454.043 123.187 453.639 122.398 453.798 121.44C453.967 120.472 454.644 119.692 455.292 119.692C455.95 119.692 456.354 120.472 456.185 121.44L456.194 121.43Z" fill="white"/>
<path d="M463.531 115.746C463.531 115.746 459.003 118.227 458.383 118.565C458.176 117.09 457.584 116.226 457.584 116.226L457.434 111.603L463.174 108.569L463.541 115.756L463.531 115.746Z" fill="#2375A9"/>
<path d="M452.361 124.08C451.901 123.883 451.018 123.713 450.332 123.291C450.153 115.53 457.584 112.825 458.233 120.425C457.838 115.756 452.023 116.78 452.361 124.08V124.08Z" fill="#1396E1"/>
<path d="M476.186 109.95C475.904 109.828 475.397 109.64 475.397 109.64L474.767 107.488C474.767 107.488 475.96 107.958 476.186 109.95Z" fill="#314190"/>
<path d="M469.375 112.655L458.007 118.875L458.251 120.472L471.094 113.473L469.375 112.655Z" fill="#2474A8"/>
<path d="M456.72 110.899L448.312 106.755L449.279 101.062L457.763 105.196L456.72 110.899Z" fill="#E5E5E5"/>
<path d="M463.315 107.451L457.584 110.325L458.402 105.346L463.146 102.875L463.315 107.451Z" fill="#E5E5E5"/>
<path d="M448.443 116C448.058 115.897 447.739 116.564 447.729 117.297C447.729 118.02 448.03 118.668 448.415 118.734C448.697 118.781 448.979 118.537 449.101 118.133C449.082 118.133 449.59 116.301 448.443 116V116Z" fill="white"/>
<path d="M448.659 115.709C448.152 115.615 447.729 116.301 447.711 117.231C447.692 118.161 448.086 118.988 448.603 119.082C449.101 119.166 449.524 118.48 449.543 117.55C449.561 116.62 449.167 115.793 448.659 115.699V115.709ZM449.148 117.475C449.139 118.198 448.819 118.725 448.425 118.659C448.039 118.593 447.729 117.954 447.739 117.221C447.748 116.498 448.077 115.972 448.462 116.038C448.857 116.103 449.157 116.752 449.148 117.475Z" fill="#1A1A1A"/>
<path d="M442.487 113.557C442.121 113.463 441.82 114.102 441.811 114.797C441.811 115.493 442.102 116.103 442.468 116.169C442.731 116.216 443.004 115.981 443.126 115.596C443.107 115.596 443.586 113.839 442.487 113.557V113.557Z" fill="white"/>
<path d="M442.694 113.285C442.215 113.2 441.811 113.849 441.792 114.741C441.783 115.634 442.158 116.413 442.647 116.498C443.135 116.583 443.53 115.925 443.539 115.042C443.549 114.159 443.173 113.36 442.694 113.285V113.285ZM443.173 114.967C443.164 115.662 442.853 116.16 442.478 116.103C442.111 116.038 441.811 115.427 441.82 114.732C441.82 114.036 442.14 113.529 442.515 113.595C442.882 113.661 443.182 114.271 443.173 114.967Z" fill="#1A1A1A"/>
<path d="M476.327 110.316C476.28 112.608 474.589 114.751 472.569 115.089C470.54 115.436 469.253 114.046 469.309 111.754C469.365 109.452 471.16 107.018 473.189 106.68C475.218 106.342 476.392 108.014 476.336 110.307L476.327 110.316Z" fill="#282629"/>
<path d="M475.857 111.641C475.434 113.388 474.062 114.741 472.785 114.666C471.517 114.591 470.812 113.116 471.235 111.368C471.657 109.621 473.029 108.268 474.297 108.343C475.566 108.418 476.27 109.893 475.857 111.641V111.641Z" fill="#4D4D4D"/>
<path d="M475.096 111.603C474.814 112.778 473.884 113.698 473.02 113.642C472.165 113.595 471.686 112.59 471.968 111.415C472.249 110.232 473.18 109.32 474.044 109.367C474.908 109.414 475.378 110.419 475.096 111.603V111.603Z" fill="#2474A8"/>
<path d="M474.504 111.359C474.288 112.261 473.621 112.956 473.001 112.918C472.4 112.872 472.071 112.12 472.287 111.227C472.503 110.335 473.17 109.64 473.781 109.668C474.391 109.696 474.711 110.457 474.495 111.359H474.504Z" fill="white"/>
<path d="M471.094 113.473C470.69 113.294 470.023 113.294 469.431 112.918C467.965 107.949 475.829 103.129 476.411 109.837C476.054 105.713 469.816 108.606 471.094 113.482V113.473Z" fill="#2873A7"/>
<defs>
<linearGradient id="paint0_linear_247_90" x1="458.408" y1="103.779" x2="465.196" y2="103.688" gradientUnits="userSpaceOnUse">
<stop stop-color="#C89E66"/>
<stop offset="0.85" stop-color="#BA7445"/>
<stop offset="0.97" stop-color="#BE7E4D"/>
<stop offset="1" stop-color="#C08251"/>
</linearGradient>
</defs>
</svg>
