<svg width="1023" height="687" viewBox="0 0 1023 687" fill="none" xmlns="http://www.w3.org/2000/svg">
<g style="mix-blend-mode:multiply" opacity="0.3">
<path d="M684.662 413.014C686.569 411.877 690.956 412.318 693.718 413.662L701.225 417.298C703.996 418.641 704.682 420.652 702.775 421.798L683.826 433.128C681.919 434.274 678.142 434.105 675.371 432.752L667.874 429.117C665.112 427.773 663.806 425.481 665.713 424.335L684.662 413.004V413.014Z" fill="#1A1A1A"/>
</g>
<path d="M686.005 422.606L677.118 414.893L688.495 408.542L701.412 414.282L686.005 422.606Z" fill="#CECFD1"/>
<path d="M701.441 414.263L687.02 422.023L687.029 422.784L701.441 415.015V414.263Z" fill="#2474A8"/>
<path d="M693.7 417.298L686.475 413.916L686.691 407.414L693.634 410.186L693.7 417.298Z" fill="#8C5C26"/>
<path d="M693.709 417.27L699.449 414.413L699.355 407.151L693.643 410.167L693.709 417.27Z" fill="#EA7C00"/>
<path d="M686.691 407.414L693.634 410.186L699.355 407.151L692.572 404.755L686.691 407.414Z" fill="#F9940C"/>
<path d="M693.634 410.186L697.072 408.401L690.224 405.986L697.176 408.344L699.355 407.151L693.634 410.186Z" fill="#8C5C26"/>
<path d="M693.634 410.186L699.355 407.151L693.718 410.261L693.709 417.27L693.634 410.186Z" fill="#8C5C26"/>
<path d="M692.469 404.859L686.748 407.442L693.634 410.186L686.898 407.433L692.469 404.859Z" fill="#8C5C26"/>
<path d="M687.696 420.483L680.481 417.11L680.688 410.599L687.574 413.258L687.696 420.483Z" fill="#8C5C26"/>
<path d="M687.706 420.454L693.446 417.608L693.389 410.392L687.583 413.23L687.706 420.454Z" fill="#EA7C00"/>
<path d="M680.688 410.599L687.574 413.258L693.389 410.392L686.569 407.94L680.688 410.599Z" fill="#F9940C"/>
<path d="M687.574 413.258L691.06 411.585L684.22 409.171L691.172 411.538L693.389 410.392L687.574 413.258Z" fill="#8C5C26"/>
<path d="M687.574 413.258L693.389 410.392L687.687 413.342L687.706 420.454L687.574 413.258Z" fill="#8C5C26"/>
<path d="M686.465 408.053L680.744 410.637L687.574 413.258L681.064 410.618L686.465 408.053Z" fill="url(#paint0_linear_247_90)"/>
<path d="M665.769 424.795C666.145 422.502 667.639 420.595 669.104 420.529C669.179 420.529 669.255 420.529 669.33 420.529C669.067 420.473 668.794 420.454 668.512 420.473C666.38 420.567 664.341 422.54 663.965 424.87C663.58 427.2 664.999 429.004 667.131 428.9C667.366 428.891 667.592 428.863 667.808 428.807C667.789 428.807 667.77 428.807 667.761 428.807C666.295 428.882 665.412 427.087 665.788 424.795H665.769Z" fill="#625F5C"/>
<path d="M671.077 424.532C671.359 422.766 670.899 421.309 670.006 420.746C669.79 420.642 669.565 420.577 669.32 420.52C669.245 420.52 669.17 420.52 669.095 420.52C667.629 420.586 666.145 422.493 665.76 424.785C665.384 427.068 666.267 428.872 667.733 428.797C667.752 428.797 667.77 428.797 667.78 428.797C668.165 428.703 668.531 428.562 668.888 428.365C669.912 427.66 670.777 426.195 671.058 424.532H671.077ZM668.109 427.463C667.085 427.51 666.455 426.336 666.709 424.823C666.953 423.32 667.977 422.061 669.01 422.005C670.034 421.958 670.664 423.141 670.41 424.645C670.166 426.148 669.133 427.416 668.109 427.463Z" fill="#282322"/>
<path d="M669.01 422.005C667.986 422.052 666.953 423.32 666.709 424.823C666.455 426.336 667.084 427.519 668.108 427.463C669.132 427.416 670.166 426.148 670.41 424.645C670.654 423.141 670.034 421.967 669.01 422.005Z" fill="#89827F"/>
<path d="M667.93 426.035C667.761 425.8 667.686 425.396 667.752 424.917C667.883 424.09 668.381 423.367 668.898 423.282C669.02 423.273 669.133 423.282 669.227 423.348C669.104 423.169 668.926 423.085 668.71 423.113C668.203 423.198 667.695 423.921 667.564 424.748C667.47 425.368 667.629 425.856 667.93 426.035Z" fill="#333333"/>
<path d="M679.363 424.607L678.64 423.761L678.452 419.975L677.813 417.683L679.1 418.359L679.363 424.607Z" fill="#22A5F0"/>
<path d="M679.091 426.758L672.252 430.441L671.904 423.414L678.715 419.825L679.091 426.758Z" fill="#2473B2"/>
<path d="M686.08 422.841C686.08 422.841 680.199 425.997 680.049 426.082C679.57 424.701 679.344 424.306 679.344 424.306L679.11 418.35L680.181 411.679L685.498 408.711L686.08 422.831V422.841Z" fill="#2976AD"/>
<path d="M679.1 418.359L670.082 413.737L671.115 407.264L680.171 411.689L679.1 418.359Z" fill="#22A5F0"/>
<path d="M677.813 417.683L670.955 421.478L664.332 418.359L671.51 414.47L677.813 417.683Z" fill="#1396E1"/>
<path d="M678.715 419.825L671.885 423.508L670.955 421.478L677.813 417.683L678.715 419.825Z" fill="#2BAEF9"/>
<path d="M671.96 423.545L672.167 428.76L663.731 424.673L663.712 418.791L664.332 418.359L670.955 421.478L671.96 423.545Z" fill="#22A5F0"/>
<path d="M672.346 430.554L663.562 426.514L663.515 424.532L672.233 428.759L672.346 430.554Z" fill="#B2B2B2"/>
<path d="M670.1 415.24L670.082 413.737L671.51 414.47L670.1 415.24Z" fill="#22A5F0"/>
<path d="M680.209 411.736L671.115 407.264L676.742 404.389L685.489 408.72L680.209 411.736Z" fill="#1396E1"/>
<path d="M680.275 427.435L678.828 427.106C678.828 427.106 676.291 424.231 677.841 423.508C678.828 423.677 680.011 425.988 680.011 425.988L680.275 427.435Z" fill="#91908A"/>
<path d="M680.115 427.209C680.218 429.643 678.565 432.02 676.413 432.508C674.262 433.006 672.778 431.625 672.665 429.182C672.562 426.749 674.309 424.053 676.46 423.564C678.612 423.076 680.002 424.776 680.115 427.209V427.209Z" fill="#282629"/>
<path d="M679.692 428.647C679.363 430.516 677.992 432.048 676.611 432.048C675.239 432.048 674.384 430.535 674.704 428.656C675.023 426.787 676.404 425.265 677.776 425.255C679.147 425.255 680.002 426.777 679.683 428.656L679.692 428.647Z" fill="#4D4D4D"/>
<path d="M678.884 428.647C678.668 429.915 677.729 430.939 676.808 430.939C675.887 430.939 675.296 429.915 675.512 428.647C675.737 427.378 676.667 426.345 677.597 426.345C678.527 426.345 679.1 427.378 678.884 428.647Z" fill="#2474A8"/>
<path d="M678.227 428.431C678.058 429.398 677.391 430.178 676.724 430.188C676.075 430.188 675.671 429.398 675.831 428.44C676 427.472 676.677 426.693 677.325 426.693C677.982 426.693 678.386 427.472 678.217 428.44L678.227 428.431Z" fill="white"/>
<path d="M685.564 422.756C685.564 422.756 681.036 425.236 680.416 425.575C680.209 424.1 679.617 423.235 679.617 423.235L679.467 418.613L685.207 415.578L685.573 422.766L685.564 422.756Z" fill="#2375A9"/>
<path d="M674.393 431.08C673.933 430.883 673.05 430.714 672.364 430.291C672.186 422.531 679.617 419.825 680.265 427.425C679.871 422.756 674.055 423.78 674.393 431.08Z" fill="#1396E1"/>
<path d="M698.218 416.959C697.937 416.837 697.429 416.649 697.429 416.649L696.8 414.498C696.8 414.498 697.993 414.968 698.218 416.959Z" fill="#314190"/>
<path d="M691.407 419.665L680.04 425.875L680.284 427.472L693.127 420.483L691.407 419.665Z" fill="#2474A8"/>
<path d="M678.753 417.908L670.344 413.756L671.312 408.062L679.795 412.206L678.753 417.908Z" fill="#E5E5E5"/>
<path d="M685.348 414.451L679.617 417.335L680.434 412.347L685.179 409.876L685.348 414.451Z" fill="#E5E5E5"/>
<path d="M670.476 423C670.091 422.897 669.771 423.564 669.762 424.297C669.762 425.02 670.063 425.669 670.448 425.734C670.73 425.781 671.011 425.537 671.134 425.133C671.115 425.133 671.622 423.301 670.476 423Z" fill="white"/>
<path d="M670.692 422.719C670.185 422.625 669.762 423.31 669.743 424.24C669.725 425.171 670.119 425.997 670.636 426.091C671.134 426.176 671.556 425.49 671.575 424.56C671.594 423.63 671.199 422.803 670.692 422.709V422.719ZM671.181 424.485C671.171 425.208 670.852 425.734 670.457 425.669C670.072 425.603 669.762 424.964 669.771 424.231C669.781 423.508 670.11 422.982 670.495 423.047C670.889 423.113 671.19 423.761 671.181 424.485Z" fill="#1A1A1A"/>
<path d="M664.52 420.558C664.154 420.464 663.853 421.103 663.844 421.798C663.844 422.493 664.135 423.104 664.501 423.169C664.764 423.216 665.037 422.982 665.159 422.596C665.14 422.596 665.619 420.84 664.52 420.558V420.558Z" fill="white"/>
<path d="M664.727 420.285C664.247 420.201 663.843 420.849 663.825 421.741C663.815 422.634 664.191 423.414 664.68 423.498C665.168 423.583 665.563 422.925 665.572 422.042C665.581 421.159 665.206 420.36 664.727 420.285ZM665.206 421.967C665.196 422.662 664.886 423.16 664.51 423.104C664.144 423.038 663.843 422.427 663.853 421.732C663.853 421.037 664.172 420.53 664.548 420.595C664.914 420.661 665.215 421.272 665.206 421.967Z" fill="#1A1A1A"/>
<path d="M698.359 417.316C698.312 419.609 696.621 421.751 694.602 422.089C692.572 422.437 691.285 421.046 691.342 418.754C691.398 416.452 693.192 414.019 695.222 413.681C697.251 413.342 698.425 415.015 698.369 417.307L698.359 417.316Z" fill="#282629"/>
<path d="M697.89 418.641C697.467 420.389 696.095 421.741 694.818 421.666C693.549 421.591 692.845 420.116 693.267 418.369C693.69 416.621 695.062 415.268 696.33 415.343C697.598 415.419 698.303 416.894 697.89 418.641Z" fill="#4D4D4D"/>
<path d="M697.138 418.603C696.856 419.778 695.926 420.699 695.062 420.642C694.207 420.595 693.728 419.59 694.01 418.416C694.291 417.232 695.222 416.32 696.086 416.367C696.95 416.414 697.42 417.42 697.138 418.603Z" fill="#2474A8"/>
<path d="M696.537 418.359C696.321 419.261 695.654 419.956 695.034 419.919C694.432 419.872 694.104 419.12 694.32 418.228C694.536 417.335 695.203 416.64 695.814 416.668C696.424 416.696 696.744 417.457 696.527 418.359H696.537Z" fill="white"/>
<path d="M693.127 420.483C692.723 420.304 692.056 420.304 691.464 419.928C689.998 414.958 697.861 410.139 698.444 416.847C698.087 412.722 691.849 415.616 693.127 420.492V420.483Z" fill="#2873A7"/>
<defs>
<linearGradient id="paint0_linear_247_90" x1="680.733" y1="410.854" x2="687.522" y2="410.764" gradientUnits="userSpaceOnUse">
<stop stop-color="#C89E66"/>
<stop offset="0.85" stop-color="#BA7445"/>
<stop offset="0.97" stop-color="#BE7E4D"/>
<stop offset="1" stop-color="#C08251"/>
</linearGradient>
</defs>
</svg>
