<svg width="168" height="49" viewBox="0 0 168 49" fill="none" xmlns="http://www.w3.org/2000/svg">
<g clip-path="url(#clip0_258_16497)">
<path d="M8.512 21.336C8.32 21.336 8.224 21.24 8.224 21.048L8.432 20.008C8.60267 19.176 8.784 18.2747 8.976 17.304C9.27467 15.64 9.504 14.392 9.664 13.56C10.2293 10.5627 10.7947 8.09333 11.36 6.152L5.6 6.232H4.64C4.608 6.28533 4.58667 6.312 4.576 6.312C4.544 6.45067 4.528 6.6 4.528 6.76C4.50667 6.97333 4.48533 7.128 4.464 7.224L1.664 20.744C1.54667 20.9573 1.39733 21.064 1.216 21.064C1.056 21.064 0.965334 20.9573 0.944 20.744C1.232 19.0907 1.59467 17.2347 2.032 15.176L3.04 10.616C3.54133 8.376 3.79733 7.12267 3.808 6.856C3.82933 6.54667 3.856 6.33333 3.888 6.216C3.01333 6.19467 2.18667 6.14133 1.408 6.056C1.20533 5.992 1.104 5.90133 1.104 5.784C1.104 5.67733 1.152 5.58133 1.248 5.496C1.35467 5.4 1.47733 5.34667 1.616 5.336C2.896 5.464 4.04267 5.528 5.056 5.528C6.22933 5.528 6.98667 5.52267 7.328 5.512C7.65867 5.512 8.16533 5.50133 8.848 5.48C9.2 5.48 9.696 5.46933 10.336 5.448L11.088 5.432C11.408 5.432 12.0107 5.448 12.896 5.48C13.056 5.544 13.136 5.62933 13.136 5.736C13.136 6.01333 12.784 6.14667 12.08 6.136C11.6853 7.45867 11.312 8.98933 10.96 10.728C10.6827 12.0933 10.512 12.904 10.448 13.16C10.416 13.3413 10.3733 13.56 10.32 13.816L10.128 14.776C10.0533 15.0747 9.936 15.6507 9.776 16.504C9.744 16.6533 9.70667 16.8347 9.664 17.048C9.62133 17.2613 9.57333 17.496 9.52 17.752L9.36 18.616L8.912 20.968C8.82667 21.2133 8.69333 21.336 8.512 21.336ZM14.4718 21.144C13.9171 21.144 13.5011 20.9253 13.2238 20.488C12.9571 20.0507 12.8238 19.528 12.8238 18.92C12.8238 17.9493 12.9838 17.0107 13.3038 16.104C13.6344 15.1867 14.0824 14.4293 14.6478 13.832C15.1918 13.224 15.8051 12.92 16.4878 12.92C17.4691 12.92 17.9598 13.6667 17.9598 15.16C17.9598 15.9067 17.8371 16.6693 17.5918 17.448C17.3464 18.2267 17.0264 18.92 16.6318 19.528C16.2478 20.136 15.8478 20.5733 15.4318 20.84C15.1118 21.0427 14.7918 21.144 14.4718 21.144ZM14.5998 20.424C14.9304 20.424 15.2984 20.136 15.7038 19.56C16.1198 18.984 16.4664 18.2693 16.7438 17.416C17.0318 16.5627 17.1758 15.8373 17.1758 15.24C17.1758 14.6213 17.1384 14.2373 17.0638 14.088C16.9998 13.928 16.9198 13.816 16.8238 13.752C16.7278 13.688 16.5784 13.656 16.3758 13.656C16.1518 13.656 15.9171 13.7413 15.6718 13.912C15.1811 14.2213 14.7544 14.7547 14.3918 15.512C13.8264 16.6427 13.5438 17.7413 13.5438 18.808C13.5438 19.5333 13.7518 20.0347 14.1678 20.312C14.3171 20.3867 14.4611 20.424 14.5998 20.424ZM20.5655 21.192C20.0535 21.192 19.6482 21.0053 19.3495 20.632C19.0615 20.248 18.9175 19.7893 18.9175 19.256C18.9175 18.3173 19.0882 17.3467 19.4295 16.344C19.7815 15.3413 20.2402 14.504 20.8055 13.832C21.3708 13.16 21.9682 12.824 22.5975 12.824C23.0562 12.824 23.3548 12.9893 23.4935 13.32C23.5255 13.3733 23.5522 13.432 23.5735 13.496C23.5948 13.5493 23.6162 13.6027 23.6375 13.656C23.6908 13.8053 23.7442 13.8907 23.7975 13.912C23.8402 14.0187 23.8615 14.0987 23.8615 14.152C23.8615 14.248 23.8135 14.3387 23.7175 14.424C23.6322 14.5093 23.5362 14.552 23.4295 14.552C23.2055 14.552 23.0615 14.3867 22.9975 14.056C22.9335 13.7253 22.7575 13.56 22.4695 13.56C22.0855 13.56 21.6802 13.8587 21.2535 14.456C20.8268 15.0427 20.4588 15.7893 20.1495 16.696C19.8508 17.5493 19.7015 18.312 19.7015 18.984C19.7015 19.9333 20.0482 20.408 20.7415 20.408C21.0935 20.408 21.4188 20.2427 21.7175 19.912C21.7495 19.8693 21.8082 19.8 21.8935 19.704C21.9788 19.5973 22.0588 19.5227 22.1335 19.48C22.2082 19.4267 22.2775 19.4 22.3415 19.4C22.5442 19.4 22.6455 19.4907 22.6455 19.672C22.6455 19.8853 22.5442 20.1147 22.3415 20.36C22.1388 20.5947 21.8775 20.792 21.5575 20.952C21.2375 21.112 20.9068 21.192 20.5655 21.192ZM30.7234 21.128C30.5527 21.128 30.4567 21.016 30.4354 20.792C30.542 19.8533 30.7767 18.8773 31.1394 17.864C31.4807 16.8827 31.7847 15.7733 32.0514 14.536L31.4434 15.288L30.8354 16.024C30.1634 16.8987 29.5394 17.5707 28.9634 18.04C28.8674 18.104 28.7607 18.136 28.6434 18.136C28.526 18.136 28.4247 18.0827 28.3394 17.976C28.254 17.8693 28.174 17.6987 28.0994 17.464C28.0354 17.2187 27.9714 16.9147 27.9074 16.552L27.6674 15.208L27.5874 14.856C26.734 16.8187 26.1527 18.2053 25.8434 19.016C25.8114 19.112 25.774 19.208 25.7314 19.304C25.6994 19.3893 25.6674 19.48 25.6354 19.576L25.4434 20.104C25.422 20.168 25.4114 20.2213 25.4114 20.264C25.39 20.3493 25.3687 20.4133 25.3474 20.456C25.39 20.488 25.4114 20.552 25.4114 20.648C25.4114 20.7333 25.358 20.8187 25.2514 20.904C25.1554 20.9893 25.0487 21.032 24.9314 21.032C24.75 21.032 24.6594 20.9307 24.6594 20.728C24.6594 19.864 25.6194 17.368 27.5394 13.24C27.6674 13.048 27.7954 12.952 27.9234 12.952C28.1687 12.952 28.2914 13.08 28.2914 13.336C28.2914 13.4427 28.2594 13.592 28.1954 13.784C28.1954 13.976 28.2327 14.216 28.3074 14.504C28.35 14.728 28.4194 15.1493 28.5154 15.768C28.5687 16.2267 28.67 16.7173 28.8194 17.24L29.5714 16.424C30.702 15.176 31.3847 14.36 31.6194 13.976C32.0674 13.2187 32.4247 12.84 32.6914 12.84C32.8727 12.84 32.99 12.9307 33.0434 13.112C32.926 14.264 32.622 15.592 32.1314 17.096C31.63 18.632 31.31 19.8267 31.1714 20.68C31.1394 20.808 31.0754 20.9147 30.9794 21C30.894 21.0853 30.8087 21.128 30.7234 21.128ZM35.4874 21.144C34.9327 21.144 34.5167 20.9253 34.2394 20.488C33.9727 20.0507 33.8394 19.528 33.8394 18.92C33.8394 17.9493 33.9994 17.0107 34.3194 16.104C34.65 15.1867 35.098 14.4293 35.6634 13.832C36.2074 13.224 36.8207 12.92 37.5034 12.92C38.4847 12.92 38.9754 13.6667 38.9754 15.16C38.9754 15.9067 38.8527 16.6693 38.6074 17.448C38.362 18.2267 38.042 18.92 37.6474 19.528C37.2634 20.136 36.8634 20.5733 36.4474 20.84C36.1274 21.0427 35.8074 21.144 35.4874 21.144ZM35.6154 20.424C35.946 20.424 36.314 20.136 36.7194 19.56C37.1354 18.984 37.482 18.2693 37.7594 17.416C38.0474 16.5627 38.1914 15.8373 38.1914 15.24C38.1914 14.6213 38.154 14.2373 38.0794 14.088C38.0154 13.928 37.9354 13.816 37.8394 13.752C37.7434 13.688 37.594 13.656 37.3914 13.656C37.1674 13.656 36.9327 13.7413 36.6874 13.912C36.1967 14.2213 35.77 14.7547 35.4074 15.512C34.842 16.6427 34.5594 17.7413 34.5594 18.808C34.5594 19.5333 34.7674 20.0347 35.1834 20.312C35.3327 20.3867 35.4767 20.424 35.6154 20.424ZM40.1731 13.832C40.0451 13.832 39.9331 13.7947 39.8371 13.72C39.7518 13.6453 39.7091 13.5653 39.7091 13.48C39.7091 13.4053 39.7465 13.3413 39.8211 13.288C40.7171 12.904 41.8371 12.712 43.1811 12.712C43.7571 12.712 44.2318 12.7333 44.6051 12.776C44.9678 12.8293 45.2825 12.8667 45.5491 12.888C45.7731 12.92 45.9065 12.9573 45.9491 13C45.9918 13.0533 46.0131 13.128 46.0131 13.224C46.0131 13.32 45.9598 13.416 45.8531 13.512C45.7465 13.5973 45.6131 13.64 45.4531 13.64C45.2718 13.64 44.9678 13.592 44.5411 13.496C44.0931 13.4107 43.6665 13.368 43.2611 13.368C42.1731 13.368 41.1865 13.5173 40.3011 13.816L40.2371 13.832H40.1731ZM41.0051 21.24C40.8238 21.24 40.7331 21.1333 40.7331 20.92C40.7331 20.8133 40.7705 20.712 40.8451 20.616C40.9411 20.36 41.0371 20.0133 41.1331 19.576C41.2611 19.032 41.3465 18.696 41.3891 18.568L41.5491 17.752L41.7251 16.728C41.9065 15.6827 42.0771 14.9307 42.2371 14.472C42.4078 14.0133 42.6371 13.784 42.9251 13.784C43.0318 13.784 43.1171 13.8533 43.1811 13.992L43.3891 14.536C43.3891 14.76 43.3091 14.9307 43.1491 15.048C43.1065 15.08 43.0531 15.096 42.9891 15.096C42.9251 15.096 42.8665 15.064 42.8131 15C42.5678 15.9067 42.4185 16.568 42.3651 16.984C42.2585 17.6773 42.1678 18.2107 42.0931 18.584C42.0505 18.7013 42.0025 18.872 41.9491 19.096L41.8051 19.624C41.5278 20.7013 41.2611 21.24 41.0051 21.24ZM44.5684 27.56C44.4084 27.56 44.3177 27.4533 44.2964 27.24C44.6164 26.024 44.8937 24.808 45.1284 23.592L45.6084 21.08L46.0884 18.568L46.2164 17.896C46.643 15.6773 46.931 14.1947 47.0804 13.448V13.096C47.0804 12.9893 47.1284 12.888 47.2244 12.792C47.3204 12.696 47.4324 12.648 47.5604 12.648C47.6777 12.648 47.7684 12.696 47.8324 12.792C47.8964 12.8773 47.9284 12.9733 47.9284 13.08C47.9284 13.2293 47.9017 13.384 47.8484 13.544L47.7844 13.752C47.763 13.8373 47.7524 13.896 47.7524 13.928L47.5284 15.08C48.2964 13.6187 49.1177 12.888 49.9924 12.888C50.451 12.888 50.7817 13.0267 50.9844 13.304C51.1977 13.5707 51.3044 13.976 51.3044 14.52C51.3044 15.544 51.1604 16.5627 50.8724 17.576C50.5844 18.5893 50.1684 19.4427 49.6244 20.136C49.0697 20.8507 48.4084 21.208 47.6404 21.208C47.3417 21.208 47.1017 21.144 46.9204 21.016C46.7497 20.8987 46.611 20.6907 46.5044 20.392L46.3124 21.336C46.0564 22.5093 45.8697 23.3947 45.7524 23.992C45.4964 25.2933 45.251 26.376 45.0164 27.24C44.9204 27.4533 44.771 27.56 44.5684 27.56ZM47.7524 20.456C48.307 20.456 48.8244 20.104 49.3044 19.4C49.9017 18.4933 50.2964 17.304 50.4884 15.832C50.5417 15.3733 50.5684 14.9787 50.5684 14.648C50.5684 13.9547 50.3977 13.608 50.0564 13.608C49.715 13.608 49.3257 13.8533 48.8884 14.344C48.291 15.016 47.8004 15.8267 47.4164 16.776C47.0324 17.7147 46.8404 18.5307 46.8404 19.224C46.8404 20.0453 47.1444 20.456 47.7524 20.456ZM53.7999 21.16C53.4585 21.16 53.1919 21.1067 52.9999 21C52.8079 20.8827 52.6532 20.7067 52.5359 20.472C52.3119 20.056 52.1999 19.5547 52.1999 18.968C52.1999 17.944 52.3545 16.9733 52.6639 16.056C52.9732 15.128 53.3945 14.3493 53.9279 13.72C54.4399 13.1227 54.9999 12.824 55.6079 12.824C55.9279 12.824 56.1785 12.9573 56.3599 13.224C56.5519 13.48 56.6479 13.7947 56.6479 14.168C56.6479 14.8187 56.4772 15.384 56.1359 15.864C55.8052 16.344 55.3572 16.744 54.7919 17.064C54.3012 17.352 53.7039 17.64 52.9999 17.928L52.9679 19.08C52.9679 19.976 53.2399 20.424 53.7839 20.424C54.0292 20.424 54.2852 20.3653 54.5519 20.248C54.8185 20.12 55.0959 19.9707 55.3839 19.8C55.5225 19.7253 55.6345 19.688 55.7199 19.688C55.9012 19.688 55.9919 19.784 55.9919 19.976C55.9919 20.1147 55.8585 20.28 55.5919 20.472C55.3359 20.664 55.0319 20.8293 54.6799 20.968C54.3279 21.096 54.0345 21.16 53.7999 21.16ZM53.1279 17.16C53.2239 17.1067 53.4372 16.9947 53.7679 16.824C53.9172 16.76 54.1305 16.6533 54.4079 16.504C54.9092 16.2267 55.2825 15.9067 55.5279 15.544C55.7839 15.1813 55.9119 14.7333 55.9119 14.2C55.9119 13.784 55.7359 13.576 55.3839 13.576C55.0745 13.576 54.7119 13.8587 54.2959 14.424C53.8585 14.9893 53.5065 15.7307 53.2399 16.648C53.1652 16.904 53.1279 17.0747 53.1279 17.16ZM57.5794 13.832C57.4514 13.832 57.3394 13.7947 57.2434 13.72C57.158 13.6453 57.1154 13.5653 57.1154 13.48C57.1154 13.4053 57.1527 13.3413 57.2274 13.288C58.1234 12.904 59.2434 12.712 60.5874 12.712C61.1634 12.712 61.638 12.7333 62.0114 12.776C62.374 12.8293 62.6887 12.8667 62.9554 12.888C63.1794 12.92 63.3127 12.9573 63.3554 13C63.398 13.0533 63.4194 13.128 63.4194 13.224C63.4194 13.32 63.366 13.416 63.2594 13.512C63.1527 13.5973 63.0194 13.64 62.8594 13.64C62.678 13.64 62.374 13.592 61.9474 13.496C61.4994 13.4107 61.0727 13.368 60.6674 13.368C59.5794 13.368 58.5927 13.5173 57.7074 13.816L57.6434 13.832H57.5794ZM58.4114 21.24C58.23 21.24 58.1394 21.1333 58.1394 20.92C58.1394 20.8133 58.1767 20.712 58.2514 20.616C58.3474 20.36 58.4434 20.0133 58.5394 19.576C58.6674 19.032 58.7527 18.696 58.7954 18.568L58.9554 17.752L59.1314 16.728C59.3127 15.6827 59.4834 14.9307 59.6434 14.472C59.814 14.0133 60.0434 13.784 60.3314 13.784C60.438 13.784 60.5234 13.8533 60.5874 13.992L60.7954 14.536C60.7954 14.76 60.7154 14.9307 60.5554 15.048C60.5127 15.08 60.4594 15.096 60.3954 15.096C60.3314 15.096 60.2727 15.064 60.2194 15C59.974 15.9067 59.8247 16.568 59.7714 16.984C59.6647 17.6773 59.574 18.2107 59.4994 18.584C59.4567 18.7013 59.4087 18.872 59.3554 19.096L59.2114 19.624C58.934 20.7013 58.6674 21.24 58.4114 21.24ZM64.3266 21.24C63.4093 21.24 62.9506 20.616 62.9506 19.368C62.9506 18.9093 63.02 18.3493 63.1586 17.688L63.4466 16.312L64.0706 13.272C64.1133 13.1867 64.1826 13.1173 64.2786 13.064C64.3746 13 64.4653 12.968 64.5506 12.968C64.6253 12.968 64.7 13.016 64.7746 13.112C64.8493 13.208 64.8866 13.3093 64.8866 13.416L64.3746 15.416L63.8786 17.512C63.708 18.28 63.6226 18.8667 63.6226 19.272C63.6226 19.72 63.6866 20.04 63.8146 20.232C63.9426 20.4133 64.1506 20.504 64.4386 20.504C64.8866 20.504 65.2546 20.3547 65.5426 20.056C65.8306 19.7573 66.0386 19.3627 66.1666 18.872C66.284 18.4027 66.3426 17.992 66.3426 17.64C66.3426 16.7227 66.1186 16.264 65.6706 16.264C65.3826 16.264 65.1213 16.4933 64.8866 16.952C64.7586 17.208 64.6466 17.3947 64.5506 17.512C64.4653 17.5973 64.3906 17.64 64.3266 17.64C64.1346 17.64 64.0386 17.5493 64.0386 17.368C64.0386 17.2613 64.1453 17.0427 64.3586 16.712C64.5826 16.3707 64.764 16.12 64.9026 15.96C65.2013 15.6613 65.4786 15.512 65.7346 15.512C66.1613 15.512 66.4866 15.7147 66.7106 16.12C66.9346 16.5253 67.0466 17.0213 67.0466 17.608C67.0466 18.28 66.924 18.8933 66.6786 19.448C66.444 20.0027 66.1186 20.44 65.7026 20.76C65.2866 21.08 64.828 21.24 64.3266 21.24ZM73.7035 21.16C73.4902 21.16 73.2875 21.048 73.0955 20.824C72.9142 20.6 72.7648 20.3013 72.6475 19.928C72.5408 19.5547 72.4875 19.16 72.4875 18.744C72.4875 18.232 72.5088 17.7093 72.5515 17.176C72.3915 17.1547 72.3115 17.064 72.3115 16.904C72.3115 16.872 72.3222 16.8133 72.3435 16.728L72.6635 16.168C72.8982 14.504 73.3675 12.3227 74.0715 9.624C74.5728 7.81067 75.1648 6.552 75.8475 5.848C76.0715 5.61333 76.2848 5.496 76.4875 5.496C77.2235 5.496 77.5915 5.944 77.5915 6.84C77.5915 7.96 77.0955 9.24 76.1035 10.68C75.8262 11.096 75.4422 11.656 74.9515 12.36C74.4395 13.0853 74.0502 13.7467 73.7835 14.344C73.7302 14.4613 73.6555 14.5413 73.5595 14.584L73.5115 14.888C74.5462 13.5653 75.4795 12.904 76.3115 12.904C76.6422 12.904 76.8768 13.08 77.0155 13.432C77.1542 13.7733 77.2235 14.1733 77.2235 14.632C77.2235 15.3787 77.0582 16.2747 76.7275 17.32C76.4075 18.3547 76.0128 19.2133 75.5435 19.896C74.9462 20.7387 74.3328 21.16 73.7035 21.16ZM74.4715 11.976C74.7702 11.528 74.9728 11.2187 75.0795 11.048L75.3515 10.648C76.3222 9.13333 76.8075 7.96533 76.8075 7.144C76.8075 6.87733 76.7915 6.68 76.7595 6.552C76.7275 6.41333 76.6475 6.344 76.5195 6.344C76.2848 6.344 76.0075 6.664 75.6875 7.304C75.0582 8.552 74.4608 10.4133 73.8955 12.888L74.4715 11.976ZM73.8635 20.376C74.2582 20.376 74.6528 20.0453 75.0475 19.384C75.4528 18.7227 75.7942 17.896 76.0715 16.904C76.3275 15.9547 76.4555 15.2613 76.4555 14.824C76.4555 14.3547 76.4288 14.072 76.3755 13.976C76.3222 13.8587 76.1888 13.8 75.9755 13.8C75.5915 13.8 75.1808 14.024 74.7435 14.472C74.3168 14.9093 73.8368 15.56 73.3035 16.424C73.2395 17.032 73.2075 17.5973 73.2075 18.12C73.2075 19.624 73.4262 20.376 73.8635 20.376ZM83.6669 21.16C83.5496 21.16 83.4216 21.064 83.2829 20.872C83.1549 20.6693 83.0909 20.4933 83.0909 20.344V20.072C83.0909 19.7413 83.3202 18.744 83.7789 17.08L83.9869 16.2L83.5549 17.112C83.4162 17.464 83.1922 17.96 82.8829 18.6C82.0936 20.2853 81.2509 21.128 80.3549 21.128C79.8216 21.128 79.4589 20.8347 79.2669 20.248C79.2136 20.056 79.1869 19.816 79.1869 19.528C79.1869 18.9307 79.2989 18.168 79.5229 17.24C79.6509 16.7067 79.7576 16.312 79.8429 16.056L79.9709 15.64C80.0882 15.2347 80.2056 14.808 80.3229 14.36C80.4509 13.9013 80.5202 13.5547 80.5309 13.32C80.5629 13.2133 80.6216 13.1227 80.7069 13.048C80.8029 12.9733 80.9042 12.936 81.0109 12.936C81.1176 12.936 81.2029 13.0747 81.2669 13.352C81.2669 13.6293 81.2136 13.9707 81.1069 14.376C81.0002 14.7707 80.8936 15.1227 80.7869 15.432C80.6909 15.7413 80.6322 15.9387 80.6109 16.024C80.1736 17.4 79.9549 18.5947 79.9549 19.608C79.9549 19.928 80.0776 20.152 80.3229 20.28C80.4082 20.3227 80.5256 20.344 80.6749 20.344C80.9736 20.344 81.3309 20.0453 81.7469 19.448C82.1309 18.8933 82.5202 18.2 82.9149 17.368C83.3096 16.536 83.6296 15.7787 83.8749 15.096C84.1309 14.36 84.3442 13.8213 84.5149 13.48C84.6856 13.1387 84.8722 12.968 85.0749 12.968C85.2562 12.968 85.3469 13.0587 85.3469 13.24C85.3469 13.3787 85.2616 13.7573 85.0909 14.376C84.9309 14.8987 84.8242 15.272 84.7709 15.496C84.7176 15.7093 84.6536 16.0133 84.5789 16.408L84.1949 18.584L84.0189 19.496C84.0082 19.592 83.9816 19.736 83.9389 19.928C83.9389 20.1307 83.9709 20.264 84.0349 20.328L84.1789 20.52C84.2109 20.552 84.2269 20.6213 84.2269 20.728C84.2269 20.8347 84.1629 20.9307 84.0349 21.016C83.9176 21.112 83.7949 21.16 83.6669 21.16ZM87.3786 27.56C86.8666 27.56 86.4346 27.384 86.0826 27.032C85.7413 26.6907 85.5706 26.2533 85.5706 25.72C85.5706 25.2293 85.6826 24.76 85.9066 24.312C86.1413 23.8747 86.4773 23.4213 86.9146 22.952C87.288 22.5467 87.736 22.1253 88.2586 21.688L89.7626 20.44C89.8373 20.1733 89.9013 19.8907 89.9546 19.592C90.072 19.1227 90.1626 18.7387 90.2266 18.44C89.8213 19.7093 89.2986 20.5413 88.6586 20.936C88.456 21.064 88.2586 21.128 88.0666 21.128C87.6933 21.128 87.384 20.9787 87.1386 20.68C86.904 20.3813 86.7866 19.9867 86.7866 19.496C86.7866 18.568 86.9626 17.5973 87.3146 16.584C87.6666 15.56 88.136 14.6853 88.7226 13.96C89.3306 13.224 89.992 12.856 90.7066 12.856C91.048 12.856 91.3733 12.9413 91.6826 13.112C91.7466 13.08 91.816 13.064 91.8906 13.064C92.072 13.064 92.1626 13.1493 92.1626 13.32C92.1626 13.5013 92.1306 13.672 92.0666 13.832C91.768 14.6107 91.2666 16.6373 90.5626 19.912C90.7333 19.8053 90.9306 19.6507 91.1546 19.448C91.208 19.4053 91.304 19.3253 91.4426 19.208C91.5813 19.08 91.6933 18.9893 91.7786 18.936C91.864 18.8827 91.9386 18.856 92.0026 18.856C92.184 18.856 92.2746 18.9467 92.2746 19.128C92.2746 19.2667 92.2373 19.3733 92.1626 19.448C91.5013 19.9493 90.936 20.3653 90.4666 20.696L90.2106 22.2L90.1306 22.6C90.0026 23.272 89.8906 23.832 89.7946 24.28C89.6986 24.7387 89.5813 25.176 89.4426 25.592C89.24 26.1787 88.9626 26.6533 88.6106 27.016C88.2693 27.3787 87.8586 27.56 87.3786 27.56ZM88.1146 20.36C88.328 20.36 88.5733 20.216 88.8506 19.928C89.128 19.6293 89.3946 19.2453 89.6506 18.776C89.9173 18.296 90.1306 17.7947 90.2906 17.272C90.536 16.5147 90.744 15.816 90.9146 15.176C91.0213 14.8027 91.1546 14.312 91.3146 13.704C91.1653 13.5653 90.9626 13.496 90.7066 13.496C90.248 13.496 89.768 13.8 89.2666 14.408C88.776 15.016 88.36 15.784 88.0186 16.712C87.688 17.6293 87.5226 18.4667 87.5226 19.224C87.5226 19.9813 87.72 20.36 88.1146 20.36ZM87.2346 26.76C87.4586 26.76 87.6613 26.7067 87.8426 26.6C88.024 26.504 88.1946 26.3333 88.3546 26.088C88.5146 25.832 88.6746 25.4747 88.8346 25.016C88.9946 24.5573 89.1226 24.088 89.2186 23.608C89.304 23.2453 89.3733 22.9147 89.4266 22.616L89.4906 22.264C89.5013 22.1787 89.5173 22.088 89.5386 21.992C89.56 21.896 89.576 21.7947 89.5866 21.688L89.6346 21.304C88.5893 22.168 87.7786 22.952 87.2026 23.656C86.6373 24.36 86.3546 24.9893 86.3546 25.544C86.3546 26.1307 86.4826 26.504 86.7386 26.664C86.8453 26.728 87.0106 26.76 87.2346 26.76ZM95.3624 21.16C95.0211 21.16 94.7544 21.1067 94.5624 21C94.3704 20.8827 94.2157 20.7067 94.0984 20.472C93.8744 20.056 93.7624 19.5547 93.7624 18.968C93.7624 17.944 93.9171 16.9733 94.2264 16.056C94.5357 15.128 94.9571 14.3493 95.4904 13.72C96.0024 13.1227 96.5624 12.824 97.1704 12.824C97.4904 12.824 97.7411 12.9573 97.9224 13.224C98.1144 13.48 98.2104 13.7947 98.2104 14.168C98.2104 14.8187 98.0397 15.384 97.6984 15.864C97.3677 16.344 96.9197 16.744 96.3544 17.064C95.8637 17.352 95.2664 17.64 94.5624 17.928L94.5304 19.08C94.5304 19.976 94.8024 20.424 95.3464 20.424C95.5917 20.424 95.8477 20.3653 96.1144 20.248C96.3811 20.12 96.6584 19.9707 96.9464 19.8C97.0851 19.7253 97.1971 19.688 97.2824 19.688C97.4637 19.688 97.5544 19.784 97.5544 19.976C97.5544 20.1147 97.4211 20.28 97.1544 20.472C96.8984 20.664 96.5944 20.8293 96.2424 20.968C95.8904 21.096 95.5971 21.16 95.3624 21.16ZM94.6904 17.16C94.7864 17.1067 94.9997 16.9947 95.3304 16.824C95.4797 16.76 95.6931 16.6533 95.9704 16.504C96.4717 16.2267 96.8451 15.9067 97.0904 15.544C97.3464 15.1813 97.4744 14.7333 97.4744 14.2C97.4744 13.784 97.2984 13.576 96.9464 13.576C96.6371 13.576 96.2744 13.8587 95.8584 14.424C95.4211 14.9893 95.0691 15.7307 94.8024 16.648C94.7277 16.904 94.6904 17.0747 94.6904 17.16ZM100.55 21.144C99.9952 21.144 99.5792 20.9253 99.3019 20.488C99.0352 20.0507 98.9019 19.528 98.9019 18.92C98.9019 17.9493 99.0619 17.0107 99.3819 16.104C99.7126 15.1867 100.161 14.4293 100.726 13.832C101.27 13.224 101.883 12.92 102.566 12.92C103.547 12.92 104.038 13.6667 104.038 15.16C104.038 15.9067 103.915 16.6693 103.67 17.448C103.425 18.2267 103.105 18.92 102.71 19.528C102.326 20.136 101.926 20.5733 101.51 20.84C101.19 21.0427 100.87 21.144 100.55 21.144ZM100.678 20.424C101.009 20.424 101.377 20.136 101.782 19.56C102.198 18.984 102.545 18.2693 102.822 17.416C103.11 16.5627 103.254 15.8373 103.254 15.24C103.254 14.6213 103.217 14.2373 103.142 14.088C103.078 13.928 102.998 13.816 102.902 13.752C102.806 13.688 102.657 13.656 102.454 13.656C102.23 13.656 101.995 13.7413 101.75 13.912C101.259 14.2213 100.833 14.7547 100.47 15.512C99.9046 16.6427 99.6219 17.7413 99.6219 18.808C99.6219 19.5333 99.8299 20.0347 100.246 20.312C100.395 20.3867 100.539 20.424 100.678 20.424ZM110.8 21.144C110.245 21.144 109.829 20.9253 109.552 20.488C109.285 20.0507 109.152 19.528 109.152 18.92C109.152 17.9493 109.312 17.0107 109.632 16.104C109.963 15.1867 110.411 14.4293 110.976 13.832C111.52 13.224 112.133 12.92 112.816 12.92C113.797 12.92 114.288 13.6667 114.288 15.16C114.288 15.9067 114.165 16.6693 113.92 17.448C113.675 18.2267 113.355 18.92 112.96 19.528C112.576 20.136 112.176 20.5733 111.76 20.84C111.44 21.0427 111.12 21.144 110.8 21.144ZM110.928 20.424C111.259 20.424 111.627 20.136 112.032 19.56C112.448 18.984 112.795 18.2693 113.072 17.416C113.36 16.5627 113.504 15.8373 113.504 15.24C113.504 14.6213 113.467 14.2373 113.392 14.088C113.328 13.928 113.248 13.816 113.152 13.752C113.056 13.688 112.907 13.656 112.704 13.656C112.48 13.656 112.245 13.7413 112 13.912C111.509 14.2213 111.083 14.7547 110.72 15.512C110.155 16.6427 109.872 17.7413 109.872 18.808C109.872 19.5333 110.08 20.0347 110.496 20.312C110.645 20.3867 110.789 20.424 110.928 20.424ZM123.898 21.096C123.727 21.096 123.605 21.064 123.53 21C123.455 20.936 123.429 20.824 123.45 20.664L124.234 15.992C124.33 15.416 124.378 14.9733 124.378 14.664C124.378 14.152 124.234 13.896 123.946 13.896C123.722 13.896 123.391 14.2533 122.954 14.968C122.527 15.672 122.101 16.472 121.674 17.368C121.247 18.2533 120.959 18.9093 120.81 19.336L120.586 19.864C120.49 20.1307 120.421 20.3013 120.378 20.376C120.186 20.792 119.994 21 119.802 21C119.695 21 119.626 20.9787 119.594 20.936C119.573 20.8827 119.562 20.776 119.562 20.616C119.562 20.456 119.77 19.224 120.186 16.92C120.613 14.616 120.858 13.4053 120.922 13.288C120.986 13.16 121.039 13.08 121.082 13.048C121.135 13.016 121.231 13 121.37 13C121.498 13 121.599 13.048 121.674 13.144C121.759 13.24 121.802 13.336 121.802 13.432C121.802 13.5387 121.791 13.6187 121.77 13.672C121.77 13.6933 121.717 13.8693 121.61 14.2C121.354 14.8933 121.114 15.9013 120.89 17.224L120.73 18.168C120.911 17.784 121.045 17.4853 121.13 17.272C121.429 16.5787 121.701 15.9707 121.946 15.448C122.202 14.9253 122.485 14.44 122.794 13.992C123.263 13.32 123.701 12.984 124.106 12.984C124.821 12.984 125.178 13.56 125.178 14.712C125.178 15.064 125.135 15.4853 125.05 15.976C124.975 16.4667 124.847 17.1493 124.666 18.024L124.586 18.44C124.447 19.208 124.367 19.8427 124.346 20.344L124.25 20.776C124.25 20.904 124.229 20.9893 124.186 21.032C124.154 21.0747 124.058 21.096 123.898 21.096ZM128.191 21.144C127.636 21.144 127.22 20.9253 126.943 20.488C126.676 20.0507 126.543 19.528 126.543 18.92C126.543 17.9493 126.703 17.0107 127.023 16.104C127.353 15.1867 127.801 14.4293 128.367 13.832C128.911 13.224 129.524 12.92 130.207 12.92C131.188 12.92 131.679 13.6667 131.679 15.16C131.679 15.9067 131.556 16.6693 131.311 17.448C131.065 18.2267 130.745 18.92 130.351 19.528C129.967 20.136 129.567 20.5733 129.151 20.84C128.831 21.0427 128.511 21.144 128.191 21.144ZM128.319 20.424C128.649 20.424 129.017 20.136 129.423 19.56C129.839 18.984 130.185 18.2693 130.463 17.416C130.751 16.5627 130.895 15.8373 130.895 15.24C130.895 14.6213 130.857 14.2373 130.783 14.088C130.719 13.928 130.639 13.816 130.543 13.752C130.447 13.688 130.297 13.656 130.095 13.656C129.871 13.656 129.636 13.7413 129.391 13.912C128.9 14.2213 128.473 14.7547 128.111 15.512C127.545 16.6427 127.263 17.7413 127.263 18.808C127.263 19.5333 127.471 20.0347 127.887 20.312C128.036 20.3867 128.18 20.424 128.319 20.424ZM134.284 21.192C133.772 21.192 133.367 21.0053 133.068 20.632C132.78 20.248 132.636 19.7893 132.636 19.256C132.636 18.3173 132.807 17.3467 133.148 16.344C133.5 15.3413 133.959 14.504 134.524 13.832C135.09 13.16 135.687 12.824 136.316 12.824C136.775 12.824 137.074 12.9893 137.212 13.32C137.244 13.3733 137.271 13.432 137.292 13.496C137.314 13.5493 137.335 13.6027 137.356 13.656C137.41 13.8053 137.463 13.8907 137.516 13.912C137.559 14.0187 137.58 14.0987 137.58 14.152C137.58 14.248 137.532 14.3387 137.436 14.424C137.351 14.5093 137.255 14.552 137.148 14.552C136.924 14.552 136.78 14.3867 136.716 14.056C136.652 13.7253 136.476 13.56 136.188 13.56C135.804 13.56 135.399 13.8587 134.972 14.456C134.546 15.0427 134.178 15.7893 133.868 16.696C133.57 17.5493 133.42 18.312 133.42 18.984C133.42 19.9333 133.767 20.408 134.46 20.408C134.812 20.408 135.138 20.2427 135.436 19.912C135.468 19.8693 135.527 19.8 135.612 19.704C135.698 19.5973 135.778 19.5227 135.852 19.48C135.927 19.4267 135.996 19.4 136.06 19.4C136.263 19.4 136.364 19.4907 136.364 19.672C136.364 19.8853 136.263 20.1147 136.06 20.36C135.858 20.5947 135.596 20.792 135.276 20.952C134.956 21.112 134.626 21.192 134.284 21.192ZM140.01 11.976C139.861 11.976 139.738 11.8853 139.642 11.704C139.546 11.512 139.498 11.3253 139.498 11.144C139.498 10.8453 139.578 10.6107 139.738 10.44C139.791 10.376 139.871 10.312 139.978 10.248C140.085 10.1947 140.207 10.168 140.346 10.168C140.495 10.168 140.645 10.2533 140.794 10.424C140.943 10.584 141.018 10.76 141.018 10.952C141.018 11.0693 140.954 11.2133 140.826 11.384C140.709 11.544 140.565 11.6827 140.394 11.8C140.234 11.9173 140.106 11.976 140.01 11.976ZM142.634 11.928C142.431 11.928 142.261 11.8427 142.122 11.672C142.079 11.64 142.058 11.592 142.058 11.528C142.026 11.496 142.01 11.3787 142.01 11.176C142.01 10.984 142.117 10.7867 142.33 10.584C142.543 10.3707 142.757 10.264 142.97 10.264C143.311 10.264 143.482 10.4987 143.482 10.968C143.482 11.1493 143.386 11.3573 143.194 11.592C143.002 11.816 142.815 11.928 142.634 11.928ZM139.658 21.16C139.306 21.16 139.034 21.1013 138.842 20.984C138.661 20.8667 138.485 20.648 138.314 20.328C138.143 20.0187 138.058 19.5707 138.058 18.984C138.058 17.9707 138.223 17.0107 138.554 16.104C138.885 15.1867 139.333 14.424 139.898 13.816C140.453 13.2293 141.023 12.936 141.61 12.936C142.207 12.936 142.506 13.4 142.506 14.328C142.506 14.8933 142.367 15.3787 142.09 15.784C141.823 16.1787 141.514 16.4933 141.162 16.728C140.821 16.952 140.421 17.1707 139.962 17.384C139.386 17.6613 139.018 17.8427 138.858 17.928L138.778 19.08C138.778 19.976 139.066 20.424 139.642 20.424C139.919 20.424 140.229 20.3387 140.57 20.168C140.751 20.0613 140.895 19.9813 141.002 19.928C141.109 19.8747 141.189 19.832 141.242 19.8C141.381 19.7253 141.493 19.688 141.578 19.688C141.759 19.688 141.85 19.784 141.85 19.976C141.85 20.1147 141.717 20.28 141.45 20.472C141.194 20.664 140.89 20.8293 140.538 20.968C140.186 21.096 139.893 21.16 139.658 21.16ZM138.986 17.16C139.146 17.064 139.359 16.9573 139.626 16.84C140.074 16.6373 140.485 16.4133 140.858 16.168C141.231 15.912 141.498 15.56 141.658 15.112C141.733 14.8987 141.77 14.6053 141.77 14.232C141.77 13.8693 141.669 13.688 141.466 13.688C141.381 13.688 141.327 13.6987 141.306 13.72C140.751 13.9547 140.271 14.392 139.866 15.032C139.461 15.6613 139.167 16.3707 138.986 17.16ZM144.104 21.192C143.72 21.192 143.416 21.1013 143.192 20.92C142.968 20.728 142.787 20.4133 142.648 19.976C142.627 19.944 142.616 19.8747 142.616 19.768C142.616 19.672 142.659 19.5813 142.744 19.496C142.829 19.4 142.925 19.352 143.032 19.352C143.128 19.352 143.219 19.4107 143.304 19.528C143.304 20.1787 143.613 20.504 144.232 20.504C144.691 20.504 145.149 20.2747 145.608 19.816C146.067 19.3467 146.488 18.7333 146.872 17.976C147.213 17.3147 147.464 16.712 147.624 16.168L147.752 15.752C147.869 15.3573 147.992 14.9627 148.12 14.568C148.259 14.1627 148.397 13.816 148.536 13.528C148.717 13.1547 148.899 12.968 149.08 12.968C149.272 12.968 149.368 13.0693 149.368 13.272C149.368 13.4533 149.267 13.832 149.064 14.408C148.84 15.08 148.653 15.88 148.504 16.808C148.355 17.7253 148.28 18.6427 148.28 19.56C148.28 20.0827 148.387 20.376 148.6 20.44L148.792 20.456C148.952 20.456 149.091 20.4187 149.208 20.344C149.24 20.3333 149.315 20.28 149.432 20.184C149.453 20.1627 149.539 20.0933 149.688 19.976C149.837 19.848 149.965 19.784 150.072 19.784C150.264 19.784 150.36 19.8853 150.36 20.088C150.36 20.216 150.264 20.3653 150.072 20.536C149.88 20.7067 149.651 20.8507 149.384 20.968C149.117 21.0853 148.872 21.144 148.648 21.144C147.965 21.144 147.624 20.4027 147.624 18.92C147.624 18.632 147.651 18.2373 147.704 17.736C147.32 18.728 146.787 19.5547 146.104 20.216C145.432 20.8667 144.765 21.192 144.104 21.192ZM152.369 21.16C152.198 21.16 152.102 21.048 152.081 20.824L152.257 19.816C152.363 19.1333 152.491 18.392 152.641 17.592L152.737 17.016C152.971 15.6613 153.115 14.872 153.169 14.648C153.286 14.104 153.366 13.6453 153.409 13.272C153.441 13.1653 153.499 13.0747 153.585 13C153.681 12.9253 153.777 12.888 153.873 12.888C154.001 12.888 154.091 12.9787 154.145 13.16C154.145 13.3307 154.123 13.5227 154.081 13.736C154.038 13.8747 153.985 14.168 153.921 14.616L153.649 16.04C154.843 14.376 155.857 13.3467 156.689 12.952C156.881 12.856 157.073 12.808 157.265 12.808C157.446 12.808 157.643 12.9413 157.857 13.208C158.081 13.4747 158.193 13.7093 158.193 13.912C158.193 14.0827 158.15 14.216 158.065 14.312C157.979 14.408 157.878 14.456 157.761 14.456C157.601 14.456 157.457 14.3067 157.329 14.008C157.318 13.9867 157.291 13.9333 157.249 13.848C157.217 13.752 157.179 13.6827 157.137 13.64C157.105 13.5867 157.067 13.56 157.025 13.56C156.95 13.56 156.801 13.624 156.577 13.752C156.363 13.8693 156.017 14.184 155.537 14.696C155.067 15.1973 154.705 15.624 154.449 15.976C154.545 16.9787 154.747 17.864 155.057 18.632C155.366 19.4 155.702 19.9227 156.065 20.2C156.257 20.3387 156.438 20.408 156.609 20.408C156.79 20.408 156.934 20.36 157.041 20.264C157.158 20.168 157.249 20.0133 157.313 19.8C157.398 19.5867 157.467 19.4747 157.521 19.464C157.553 19.4427 157.611 19.432 157.697 19.432C157.761 19.432 157.835 19.4693 157.921 19.544C157.995 19.6187 158.033 19.7573 158.033 19.96C158.033 20.1733 157.942 20.376 157.761 20.568C157.409 20.9627 157.057 21.16 156.705 21.16C155.681 21.16 154.886 20.3173 154.321 18.632C154.075 17.928 153.921 17.3253 153.857 16.824C153.825 16.8667 153.707 17.0693 153.505 17.432L153.313 17.784C153.142 18.712 152.977 19.688 152.817 20.712C152.806 20.8293 152.753 20.9307 152.657 21.016C152.561 21.112 152.465 21.16 152.369 21.16ZM160.769 21.16C160.427 21.16 160.161 21.1067 159.969 21C159.777 20.8827 159.622 20.7067 159.505 20.472C159.281 20.056 159.169 19.5547 159.169 18.968C159.169 17.944 159.323 16.9733 159.633 16.056C159.942 15.128 160.363 14.3493 160.897 13.72C161.409 13.1227 161.969 12.824 162.577 12.824C162.897 12.824 163.147 12.9573 163.329 13.224C163.521 13.48 163.617 13.7947 163.617 14.168C163.617 14.8187 163.446 15.384 163.105 15.864C162.774 16.344 162.326 16.744 161.761 17.064C161.27 17.352 160.673 17.64 159.969 17.928L159.937 19.08C159.937 19.976 160.209 20.424 160.753 20.424C160.998 20.424 161.254 20.3653 161.521 20.248C161.787 20.12 162.065 19.9707 162.353 19.8C162.491 19.7253 162.603 19.688 162.689 19.688C162.87 19.688 162.961 19.784 162.961 19.976C162.961 20.1147 162.827 20.28 162.561 20.472C162.305 20.664 162.001 20.8293 161.649 20.968C161.297 21.096 161.003 21.16 160.769 21.16ZM160.097 17.16C160.193 17.1067 160.406 16.9947 160.737 16.824C160.886 16.76 161.099 16.6533 161.377 16.504C161.878 16.2267 162.251 15.9067 162.497 15.544C162.753 15.1813 162.881 14.7333 162.881 14.2C162.881 13.784 162.705 13.576 162.353 13.576C162.043 13.576 161.681 13.8587 161.265 14.424C160.827 14.9893 160.475 15.7307 160.209 16.648C160.134 16.904 160.097 17.0747 160.097 17.16Z" fill="white"/>
<g clip-path="url(#clip1_258_16497)">
<path d="M149.668 42.9703C149.655 43.0192 149.651 43.0704 149.658 43.1207C149.665 43.1709 149.682 43.2193 149.709 43.2627C149.735 43.3061 149.77 43.3436 149.811 43.3731C149.853 43.4025 149.9 43.4231 149.949 43.4337L154.197 44.3409C154.245 44.3511 154.294 44.3519 154.343 44.343C154.391 44.3342 154.437 44.316 154.478 44.2894C154.56 44.2358 154.619 44.1514 154.639 44.0549C154.66 43.9583 154.641 43.8575 154.588 43.7746C154.561 43.7336 154.527 43.6982 154.487 43.6705C154.446 43.6427 154.401 43.6231 154.353 43.6129L151.022 42.9021L158.177 38.5671C158.684 38.2602 159.047 37.7647 159.189 37.1896C159.33 36.6145 159.237 36.0069 158.93 35.5004L157.194 32.6358C157.143 32.5514 157.061 32.4907 156.965 32.4672C156.869 32.4437 156.768 32.4592 156.683 32.5104C156.599 32.5615 156.538 32.6441 156.515 32.7399C156.491 32.8358 156.507 32.9371 156.558 33.0215L158.293 35.886C158.498 36.2237 158.56 36.6288 158.466 37.0122C158.372 37.3956 158.129 37.726 157.791 37.9305L150.636 42.2655L151.549 38.9838C151.575 38.8886 151.562 38.7869 151.514 38.701C151.465 38.6151 151.384 38.552 151.289 38.5256C151.194 38.4992 151.092 38.5118 151.007 38.5604C150.921 38.609 150.858 38.6898 150.831 38.7849L149.668 42.9703V42.9703Z" fill="white"/>
</g>
</g>
<defs>
<clipPath id="clip0_258_16497">
<rect width="168" height="49" fill="white"/>
</clipPath>
<clipPath id="clip1_258_16497">
<rect width="14.8858" height="14.8858" fill="white" transform="translate(151.714 49.4448) rotate(-121.21)"/>
</clipPath>
</defs>
</svg>
